<svg xmlns="http://www.w3.org/2000/svg" xmlns:xlink="http://www.w3.org/1999/xlink" xmlns:inkscape="http://www.inkscape.org/namespaces/inkscape" version="1.1" width="450" height="375.12" viewBox="0 0 450 375.12">
<defs>
<clipPath id="clip_0">
<path transform="matrix(.24,0,0,.24,0,0)" d="M0 0H1875V1562.5H0Z" clip-rule="evenodd"/>
</clipPath>
<clipPath id="clip_1">
<path transform="matrix(.24,0,0,.24,0,0)" d="M0 0H1875V1562.5H0Z" clip-rule="evenodd"/>
</clipPath>
<clipPath id="clip_2">
<path transform="matrix(.24,0,0,.24,0,0)" d="M165.625 21.875H1853.125V1403.125H165.625Z" clip-rule="evenodd"/>
</clipPath>
<clipPath id="clip_3">
<path transform="matrix(.24,0,0,.24,0,0)" d="M0 0H1875V1562.5H0Z" clip-rule="evenodd"/>
</clipPath>
<clipPath id="clip_4">
<path transform="matrix(.24,0,0,.24,0,0)" d="M0 21.875H1875V1403.125H0Z" clip-rule="evenodd"/>
</clipPath>
<clipPath id="clip_5">
<path transform="matrix(.24,0,0,.24,0,0)" d="M0 21.875H1875V1403.125H0Z" clip-rule="evenodd"/>
</clipPath>
<clipPath id="clip_6">
<path transform="matrix(.24,0,0,.24,0,0)" d="M0 21.875H1875V1403.125H0Z" clip-rule="evenodd"/>
</clipPath>
<clipPath id="clip_7">
<path transform="matrix(.24,0,0,.24,0,0)" d="M0 21.875H1875V1403.125H0Z" clip-rule="evenodd"/>
</clipPath>
<clipPath id="clip_8">
<path transform="matrix(.24,0,0,.24,0,0)" d="M0 21.875H1875V1403.125H0Z" clip-rule="evenodd"/>
</clipPath>
<clipPath id="clip_9">
<path transform="matrix(.24,0,0,.24,0,0)" d="M0 21.875H1875V1403.125H0Z" clip-rule="evenodd"/>
</clipPath>
<clipPath id="clip_10">
<path transform="matrix(.24,0,0,.24,0,0)" d="M0 21.875H1875V1403.125H0Z" clip-rule="evenodd"/>
</clipPath>
<clipPath id="clip_11">
<path transform="matrix(.24,0,0,.24,0,0)" d="M0 21.875H1875V1403.125H0Z" clip-rule="evenodd"/>
</clipPath>
<clipPath id="clip_12">
<path transform="matrix(.24,0,0,.24,0,0)" d="M0 0H1875V1562.5H0Z" clip-rule="evenodd"/>
</clipPath>
<clipPath id="clip_13">
<path transform="matrix(.24,0,0,.24,0,0)" d="M1523.75 1091.125H1833.125V1372.375H1523.75Z" clip-rule="evenodd"/>
</clipPath>
<clipPath id="clip_14">
<path transform="matrix(.24,0,0,.24,0,0)" d="M0 0H1875V1562.5H0Z" clip-rule="evenodd"/>
</clipPath>
</defs>
<g clip-path="url(#clip_0)">
<path transform="matrix(.75,0,0,.75,0,0)" d="M0 0H600V500H0Z" fill="#ffffff"/>
</g>
<g clip-path="url(#clip_1)">
<path transform="matrix(.75,0,0,.75,0,0)" d="M53 7H593V449H53Z" fill="#d3d3d3"/>
</g>
<g clip-path="url(#clip_2)">
<path transform="matrix(.75,0,0,.75,39.75,5.25)" stroke-width="4" stroke-linecap="butt" stroke-miterlimit="2" stroke-linejoin="miter" fill="none" stroke="#ee0000" stroke-opacity=".8" d="M0 283.67 33.75 292.78 67.5 241.3 101.25 271.46 135 278.96 168.75 190.83 202.5 188.05 236.25 135.41 270 205.37 303.75 157.17 337.5 89.44 371.25 85.23 405 78.97 438.75 42.3 472.5 35.62 506.25 30.61 540 29.8"/>
<path transform="matrix(.75,0,0,.75,39.75,5.25)" stroke-width="4" stroke-linecap="butt" stroke-miterlimit="2" stroke-linejoin="miter" fill="none" stroke="#3204c8" d="M0 139.66 33.75 119.52 67.5 60.95 101.25 58.01 135 70.6 168.75 125.94 202.5 121.54 236.25 111.03 270 143.81 303.75 108.96 337.5 45.6 371.25 120.43 405 89.52 438.75 53 472.5 55.86 506.25 47.69 540 55.86"/>
<path transform="matrix(.75,0,0,.75,39.75,5.25)" stroke-width="4" stroke-linecap="butt" stroke-miterlimit="2" stroke-linejoin="miter" fill="none" stroke="#005715" d="M0 348.95 33.75 360.58 67.5 319.87 101.25 354.76 135 360.58 168.75 215.18 202.5 221 236.25 151.21 270 238.45 303.75 186.11 337.5 110.5 371.25 40.71 405 58.16 438.75 29.08 472.5 11.63H506.25L540 0"/>
<path transform="matrix(.75,0,0,.75,39.75,5.25)" stroke-width="4" stroke-linecap="butt" stroke-miterlimit="2" stroke-linejoin="miter" fill="none" stroke="#753500" d="M0 223.99 33.75 221 67.5 182.18 101.25 197.11 135 200.09 168.75 173.22 202.5 164.26 236.25 134.39 270 182.18 303.75 140.36 337.5 80.64 371.25 95.57 405 80.64 438.75 44.8 472.5 38.82 506.25 32.85H540"/>
</g>
<g clip-path="url(#clip_3)">
<path transform="matrix(.75,0,0,.75,0,0)" stroke-width="1" stroke-linecap="butt" stroke-miterlimit="4" stroke-linejoin="miter" fill="none" stroke="#000000" d="M52 449.5H594M52 6.5H594"/>
<path transform="matrix(.75,0,0,.75,0,0)" stroke-width="1" stroke-linecap="butt" stroke-miterlimit="4" stroke-linejoin="miter" fill="none" stroke="#000000" d="M52.5 7V449M593.5 7V449"/>
<path transform="matrix(.75,0,0,.75,39.75,0)" d="M0 450V455"/>
<path transform="matrix(.75,0,0,.75,39.75,0)" stroke-width="1" stroke-linecap="butt" stroke-miterlimit="4" stroke-linejoin="miter" fill="none" stroke="#000000" d="M0 450V455"/>
<path transform="matrix(.75,0,0,.75,65.0625,0)" d="M0 450V455"/>
<path transform="matrix(.75,0,0,.75,65.0625,0)" stroke-width="1" stroke-linecap="butt" stroke-miterlimit="4" stroke-linejoin="miter" fill="none" stroke="#000000" d="M0 450V455"/>
<path transform="matrix(.75,0,0,.75,90.375,0)" d="M0 450V455"/>
<path transform="matrix(.75,0,0,.75,90.375,0)" stroke-width="1" stroke-linecap="butt" stroke-miterlimit="4" stroke-linejoin="miter" fill="none" stroke="#000000" d="M0 450V455"/>
<path transform="matrix(.75,0,0,.75,115.6875,0)" d="M0 450V455"/>
<path transform="matrix(.75,0,0,.75,115.6875,0)" stroke-width="1" stroke-linecap="butt" stroke-miterlimit="4" stroke-linejoin="miter" fill="none" stroke="#000000" d="M0 450V455"/>
<path transform="matrix(.75,0,0,.75,141,0)" d="M0 450V455"/>
<path transform="matrix(.75,0,0,.75,141,0)" stroke-width="1" stroke-linecap="butt" stroke-miterlimit="4" stroke-linejoin="miter" fill="none" stroke="#000000" d="M0 450V455"/>
<path transform="matrix(.75,0,0,.75,166.3125,0)" d="M0 450V455"/>
<path transform="matrix(.75,0,0,.75,166.3125,0)" stroke-width="1" stroke-linecap="butt" stroke-miterlimit="4" stroke-linejoin="miter" fill="none" stroke="#000000" d="M0 450V455"/>
<path transform="matrix(.75,0,0,.75,191.625,0)" d="M0 450V455"/>
<path transform="matrix(.75,0,0,.75,191.625,0)" stroke-width="1" stroke-linecap="butt" stroke-miterlimit="4" stroke-linejoin="miter" fill="none" stroke="#000000" d="M0 450V455"/>
<path transform="matrix(.75,0,0,.75,216.9375,0)" d="M0 450V455"/>
<path transform="matrix(.75,0,0,.75,216.9375,0)" stroke-width="1" stroke-linecap="butt" stroke-miterlimit="4" stroke-linejoin="miter" fill="none" stroke="#000000" d="M0 450V455"/>
<path transform="matrix(.75,0,0,.75,242.25,0)" d="M0 450V455"/>
<path transform="matrix(.75,0,0,.75,242.25,0)" stroke-width="1" stroke-linecap="butt" stroke-miterlimit="4" stroke-linejoin="miter" fill="none" stroke="#000000" d="M0 450V455"/>
<path transform="matrix(.75,0,0,.75,267.5625,0)" d="M0 450V455"/>
<path transform="matrix(.75,0,0,.75,267.5625,0)" stroke-width="1" stroke-linecap="butt" stroke-miterlimit="4" stroke-linejoin="miter" fill="none" stroke="#000000" d="M0 450V455"/>
<path transform="matrix(.75,0,0,.75,292.875,0)" d="M0 450V455"/>
<path transform="matrix(.75,0,0,.75,292.875,0)" stroke-width="1" stroke-linecap="butt" stroke-miterlimit="4" stroke-linejoin="miter" fill="none" stroke="#000000" d="M0 450V455"/>
<path transform="matrix(.75,0,0,.75,318.1875,0)" d="M0 450V455"/>
<path transform="matrix(.75,0,0,.75,318.1875,0)" stroke-width="1" stroke-linecap="butt" stroke-miterlimit="4" stroke-linejoin="miter" fill="none" stroke="#000000" d="M0 450V455"/>
<path transform="matrix(.75,0,0,.75,343.5,0)" d="M0 450V455"/>
<path transform="matrix(.75,0,0,.75,343.5,0)" stroke-width="1" stroke-linecap="butt" stroke-miterlimit="4" stroke-linejoin="miter" fill="none" stroke="#000000" d="M0 450V455"/>
<path transform="matrix(.75,0,0,.75,368.8125,0)" d="M0 450V455"/>
<path transform="matrix(.75,0,0,.75,368.8125,0)" stroke-width="1" stroke-linecap="butt" stroke-miterlimit="4" stroke-linejoin="miter" fill="none" stroke="#000000" d="M0 450V455"/>
<path transform="matrix(.75,0,0,.75,394.125,0)" d="M0 450V455"/>
<path transform="matrix(.75,0,0,.75,394.125,0)" stroke-width="1" stroke-linecap="butt" stroke-miterlimit="4" stroke-linejoin="miter" fill="none" stroke="#000000" d="M0 450V455"/>
<path transform="matrix(.75,0,0,.75,419.4375,0)" d="M0 450V455"/>
<path transform="matrix(.75,0,0,.75,419.4375,0)" stroke-width="1" stroke-linecap="butt" stroke-miterlimit="4" stroke-linejoin="miter" fill="none" stroke="#000000" d="M0 450V455"/>
<path transform="matrix(.75,0,0,.75,444.75,0)" d="M0 450V455"/>
<path transform="matrix(.75,0,0,.75,444.75,0)" stroke-width="1" stroke-linecap="butt" stroke-miterlimit="4" stroke-linejoin="miter" fill="none" stroke="#000000" d="M0 450V455"/>
<text xml:space="preserve" transform="matrix(.75 0 0 .75 39.75 0)" font-size="13" font-family="LiberationSans"><tspan y="470.6" x="-3.6149903">1</tspan></text>
<text xml:space="preserve" transform="matrix(.75 0 0 .75 65.0625 0)" font-size="13" font-family="LiberationSans"><tspan y="470.6" x="-3.6149903">2</tspan></text>
<text xml:space="preserve" transform="matrix(.75 0 0 .75 90.375 0)" font-size="13" font-family="LiberationSans"><tspan y="470.6" x="-3.6149903">3</tspan></text>
<text xml:space="preserve" transform="matrix(.75 0 0 .75 115.6875 0)" font-size="13" font-family="LiberationSans"><tspan y="470.6" x="-3.6149903">4</tspan></text>
<text xml:space="preserve" transform="matrix(.75 0 0 .75 141 0)" font-size="13" font-family="LiberationSans"><tspan y="470.6" x="-3.6149903">5</tspan></text>
<text xml:space="preserve" transform="matrix(.75 0 0 .75 166.3125 0)" font-size="13" font-family="LiberationSans"><tspan y="470.6" x="-3.6149903">6</tspan></text>
<text xml:space="preserve" transform="matrix(.75 0 0 .75 191.625 0)" font-size="13" font-family="LiberationSans"><tspan y="470.6" x="-3.6149903">7</tspan></text>
<text xml:space="preserve" transform="matrix(.75 0 0 .75 216.9375 0)" font-size="13" font-family="LiberationSans"><tspan y="470.6" x="-3.6149903">8</tspan></text>
<text xml:space="preserve" transform="matrix(.75 0 0 .75 242.25 0)" font-size="13" font-family="LiberationSans"><tspan y="470.6" x="-3.6149903">9</tspan></text>
<text xml:space="preserve" transform="matrix(.75 0 0 .75 267.5625 0)" font-size="13" font-family="LiberationSans"><tspan y="470.6" x="-7.2299807 -.0019798279">10</tspan></text>
<text xml:space="preserve" transform="matrix(.75 0 0 .75 292.875 0)" font-size="13" font-family="LiberationSans"><tspan y="470.6" x="-7.2299807 -.0019798279">20</tspan></text>
<text xml:space="preserve" transform="matrix(.75 0 0 .75 318.1875 0)" font-size="13" font-family="LiberationSans"><tspan y="470.6" x="-7.2299807 -.0019798279">30</tspan></text>
<text xml:space="preserve" transform="matrix(.75 0 0 .75 343.5 0)" font-size="13" font-family="LiberationSans"><tspan y="470.6" x="-7.2299807 -.0019798279">40</tspan></text>
<text xml:space="preserve" transform="matrix(.75 0 0 .75 368.8125 0)" font-size="13" font-family="LiberationSans"><tspan y="470.6" x="-7.2299807 -.0019798279">50</tspan></text>
<text xml:space="preserve" transform="matrix(.75 0 0 .75 394.125 0)" font-size="13" font-family="LiberationSans"><tspan y="470.6" x="-7.2299807 -.0019798279">60</tspan></text>
<text xml:space="preserve" transform="matrix(.75 0 0 .75 419.4375 0)" font-size="13" font-family="LiberationSans"><tspan y="470.6" x="-7.2299807 -.0019798279">70</tspan></text>
<text xml:space="preserve" transform="matrix(.75 0 0 .75 444.75 0)" font-size="13" font-family="LiberationSans"><tspan y="470.6" x="-7.2299807 -.0019798279">80</tspan></text>
<path transform="matrix(.75,0,0,.75,0,336.75)" d="M52 0H47"/>
<path transform="matrix(.75,0,0,.75,0,336.75)" stroke-width="1" stroke-linecap="butt" stroke-miterlimit="4" stroke-linejoin="miter" fill="none" stroke="#000000" d="M52 0H47"/>
<path transform="matrix(.75,0,0,.75,0,295.3125)" d="M52 0H47"/>
<path transform="matrix(.75,0,0,.75,0,295.3125)" stroke-width="1" stroke-linecap="butt" stroke-miterlimit="4" stroke-linejoin="miter" fill="none" stroke="#000000" d="M52 0H47"/>
<path transform="matrix(.75,0,0,.75,0,253.875)" d="M52 0H47"/>
<path transform="matrix(.75,0,0,.75,0,253.875)" stroke-width="1" stroke-linecap="butt" stroke-miterlimit="4" stroke-linejoin="miter" fill="none" stroke="#000000" d="M52 0H47"/>
<path transform="matrix(.75,0,0,.75,0,212.4375)" d="M52 0H47"/>
<path transform="matrix(.75,0,0,.75,0,212.4375)" stroke-width="1" stroke-linecap="butt" stroke-miterlimit="4" stroke-linejoin="miter" fill="none" stroke="#000000" d="M52 0H47"/>
<path transform="matrix(.75,0,0,.75,0,171)" d="M52 0H47"/>
<path transform="matrix(.75,0,0,.75,0,171)" stroke-width="1" stroke-linecap="butt" stroke-miterlimit="4" stroke-linejoin="miter" fill="none" stroke="#000000" d="M52 0H47"/>
<path transform="matrix(.75,0,0,.75,0,129.5625)" d="M52 0H47"/>
<path transform="matrix(.75,0,0,.75,0,129.5625)" stroke-width="1" stroke-linecap="butt" stroke-miterlimit="4" stroke-linejoin="miter" fill="none" stroke="#000000" d="M52 0H47"/>
<path transform="matrix(.75,0,0,.75,0,88.125)" d="M52 0H47"/>
<path transform="matrix(.75,0,0,.75,0,88.125)" stroke-width="1" stroke-linecap="butt" stroke-miterlimit="4" stroke-linejoin="miter" fill="none" stroke="#000000" d="M52 0H47"/>
<path transform="matrix(.75,0,0,.75,0,46.6875)" d="M52 0H47"/>
<path transform="matrix(.75,0,0,.75,0,46.6875)" stroke-width="1" stroke-linecap="butt" stroke-miterlimit="4" stroke-linejoin="miter" fill="none" stroke="#000000" d="M52 0H47"/>
<path transform="matrix(.75,0,0,.75,0,5.25)" d="M52 0H47"/>
<path transform="matrix(.75,0,0,.75,0,5.25)" stroke-width="1" stroke-linecap="butt" stroke-miterlimit="4" stroke-linejoin="miter" fill="none" stroke="#000000" d="M52 0H47"/>
<text xml:space="preserve" transform="matrix(.75 0 0 .75 0 336.75)" font-size="13" font-family="LiberationSans"><tspan y="4.55" x="26.328225 33.556226 37.170228">0.2</tspan></text>
<text xml:space="preserve" transform="matrix(.75 0 0 .75 0 295.3125)" font-size="13" font-family="LiberationSans"><tspan y="4.55" x="26.328225 33.556226 37.170228">0.3</tspan></text>
<text xml:space="preserve" transform="matrix(.75 0 0 .75 0 253.875)" font-size="13" font-family="LiberationSans"><tspan y="4.55" x="26.328225 33.556226 37.170228">0.4</tspan></text>
<text xml:space="preserve" transform="matrix(.75 0 0 .75 0 212.4375)" font-size="13" font-family="LiberationSans"><tspan y="4.55" x="26.328225 33.556226 37.170228">0.5</tspan></text>
<text xml:space="preserve" transform="matrix(.75 0 0 .75 0 171)" font-size="13" font-family="LiberationSans"><tspan y="4.55" x="26.328225 33.556226 37.170228">0.6</tspan></text>
<text xml:space="preserve" transform="matrix(.75 0 0 .75 0 129.5625)" font-size="13" font-family="LiberationSans"><tspan y="4.55" x="26.328225 33.556226 37.170228">0.7</tspan></text>
<text xml:space="preserve" transform="matrix(.75 0 0 .75 0 88.125)" font-size="13" font-family="LiberationSans"><tspan y="4.55" x="26.328225 33.556226 37.170228">0.8</tspan></text>
<text xml:space="preserve" transform="matrix(.75 0 0 .75 0 46.6875)" font-size="13" font-family="LiberationSans"><tspan y="4.55" x="26.328225 33.556226 37.170228">0.9</tspan></text>
</g>
<g clip-path="url(#clip_4)">
<path transform="matrix(.75,0,0,.75,0,0)" d="M53 172.75H593" fill-opacity="0" fill-rule="evenodd"/>
<path transform="matrix(.75,0,0,.75,0,0)" d="M53 170.75H65V174.75H53M77 170.75H89V174.75H77M101 170.75H113V174.75H101M125 170.75H137V174.75H125M149 170.75H161V174.75H149M173 170.75H185V174.75H173M197 170.75H209V174.75H197M221 170.75H233V174.75H221M245 170.75H257V174.75H245M269 170.75H281V174.75H269M293 170.75H305V174.75H293M317 170.75H329V174.75H317M341 170.75H353V174.75H341M365 170.75H377V174.75H365M389 170.75H401V174.75H389M413 170.75H425V174.75H413M437 170.75H449V174.75H437M461 170.75H473V174.75H461M485 170.75H497V174.75H485M509 170.75H521V174.75H509M533 170.75H545V174.75H533M557 170.75H569V174.75H557M581 170.75H593V174.75H581" fill="#3204c8"/>
</g>
<g clip-path="url(#clip_5)">
<path transform="matrix(.75,0,0,.75,0,0)" d="M53 230.99H593" fill-opacity="0" fill-rule="evenodd"/>
<path transform="matrix(.75,0,0,.75,0,0)" d="M53 228.99H65V232.99H53M77 228.99H89V232.99H77M101 228.99H113V232.99H101M125 228.99H137V232.99H125M149 228.99H161V232.99H149M173 228.99H185V232.99H173M197 228.99H209V232.99H197M221 228.99H233V232.99H221M245 228.99H257V232.99H245M269 228.99H281V232.99H269M293 228.99H305V232.99H293M317 228.99H329V232.99H317M341 228.99H353V232.99H341M365 228.99H377V232.99H365M389 228.99H401V232.99H389M413 228.99H425V232.99H413M437 228.99H449V232.99H437M461 228.99H473V232.99H461M485 228.99H497V232.99H485M509 228.99H521V232.99H509M533 228.99H545V232.99H533M557 228.99H569V232.99H557M581 228.99H593V232.99H581" fill="#753500"/>
</g>
<g clip-path="url(#clip_6)">
<path transform="matrix(.75,0,0,.75,0,0)" d="M53 292.78H593" fill-opacity="0" fill-rule="evenodd"/>
<path transform="matrix(.75,0,0,.75,0,0)" d="M53 290.78H65V294.78H53M77 290.78H89V294.78H77M101 290.78H113V294.78H101M125 290.78H137V294.78H125M149 290.78H161V294.78H149M173 290.78H185V294.78H173M197 290.78H209V294.78H197M221 290.78H233V294.78H221M245 290.78H257V294.78H245M269 290.78H281V294.78H269M293 290.78H305V294.78H293M317 290.78H329V294.78H317M341 290.78H353V294.78H341M365 290.78H377V294.78H365M389 290.78H401V294.78H389M413 290.78H425V294.78H413M437 290.78H449V294.78H437M461 290.78H473V294.78H461M485 290.78H497V294.78H485M509 290.78H521V294.78H509M533 290.78H545V294.78H533M557 290.78H569V294.78H557M581 290.78H593V294.78H581" fill="#ee0000" fill-opacity=".8"/>
</g>
<g clip-path="url(#clip_7)">
<path transform="matrix(.75,0,0,.75,0,0)" d="M53 355.95H593" fill-opacity="0" fill-rule="evenodd"/>
<path transform="matrix(.75,0,0,.75,0,0)" d="M53 353.95H65V357.95H53M77 353.95H89V357.95H77M101 353.95H113V357.95H101M125 353.95H137V357.95H125M149 353.95H161V357.95H149M173 353.95H185V357.95H173M197 353.95H209V357.95H197M221 353.95H233V357.95H221M245 353.95H257V357.95H245M269 353.95H281V357.95H269M293 353.95H305V357.95H293M317 353.95H329V357.95H317M341 353.95H353V357.95H341M365 353.95H377V357.95H365M389 353.95H401V357.95H389M413 353.95H425V357.95H413M437 353.95H449V357.95H437M461 353.95H473V357.95H461M485 353.95H497V357.95H485M509 353.95H521V357.95H509M533 353.95H545V357.95H533M557 353.95H569V357.95H557M581 353.95H593V357.95H581" fill="#005715"/>
</g>
<g clip-path="url(#clip_8)">
<path transform="matrix(.75,0,0,.75,0,0)" d="M53 270.26H593" fill-opacity="0" fill-rule="evenodd"/>
<path transform="matrix(.75,0,0,.75,0,0)" d="M53 268.26H57V272.26H53M61 268.26H65V272.26H61M69 268.26H73V272.26H69M77 268.26H81V272.26H77M85 268.26H89V272.26H85M93 268.26H97V272.26H93M101 268.26H105V272.26H101M109 268.26H113V272.26H109M117 268.26H121V272.26H117M125 268.26H129V272.26H125M133 268.26H137V272.26H133M141 268.26H145V272.26H141M149 268.26H153V272.26H149M157 268.26H161V272.26H157M165 268.26H169V272.26H165M173 268.26H177V272.26H173M181 268.26H185V272.26H181M189 268.26H193V272.26H189M197 268.26H201V272.26H197M205 268.26H209V272.26H205M213 268.26H217V272.26H213M221 268.26H225V272.26H221M229 268.26H233V272.26H229M237 268.26H241V272.26H237M245 268.26H249V272.26H245M253 268.26H257V272.26H253M261 268.26H265V272.26H261M269 268.26H273V272.26H269M277 268.26H281V272.26H277M285 268.26H289V272.26H285M293 268.26H297V272.26H293M301 268.26H305V272.26H301M309 268.26H313V272.26H309M317 268.26H321V272.26H317M325 268.26H329V272.26H325M333 268.26H337V272.26H333M341 268.26H345V272.26H341M349 268.26H353V272.26H349M357 268.26H361V272.26H357M365 268.26H369V272.26H365M373 268.26H377V272.26H373M381 268.26H385V272.26H381M389 268.26H393V272.26H389M397 268.26H401V272.26H397M405 268.26H409V272.26H405M413 268.26H417V272.26H413M421 268.26H425V272.26H421M429 268.26H433V272.26H429M437 268.26H441V272.26H437M445 268.26H449V272.26H445M453 268.26H457V272.26H453M461 268.26H465V272.26H461M469 268.26H473V272.26H469M477 268.26H481V272.26H477M485 268.26H489V272.26H485M493 268.26H497V272.26H493M501 268.26H505V272.26H501M509 268.26H513V272.26H509M517 268.26H521V272.26H517M525 268.26H529V272.26H525M533 268.26H537V272.26H533M541 268.26H545V272.26H541M549 268.26H553V272.26H549M557 268.26H561V272.26H557M565 268.26H569V272.26H565M573 268.26H577V272.26H573M581 268.26H585V272.26H581M589 268.26H593V272.26H589" fill="#3204c8"/>
</g>
<g clip-path="url(#clip_9)">
<path transform="matrix(.75,0,0,.75,0,0)" d="M53 275.78H593" fill-opacity="0" fill-rule="evenodd"/>
<path transform="matrix(.75,0,0,.75,0,0)" d="M53 273.78H57V277.78H53M61 273.78H65V277.78H61M69 273.78H73V277.78H69M77 273.78H81V277.78H77M85 273.78H89V277.78H85M93 273.78H97V277.78H93M101 273.78H105V277.78H101M109 273.78H113V277.78H109M117 273.78H121V277.78H117M125 273.78H129V277.78H125M133 273.78H137V277.78H133M141 273.78H145V277.78H141M149 273.78H153V277.78H149M157 273.78H161V277.78H157M165 273.78H169V277.78H165M173 273.78H177V277.78H173M181 273.78H185V277.78H181M189 273.78H193V277.78H189M197 273.78H201V277.78H197M205 273.78H209V277.78H205M213 273.78H217V277.78H213M221 273.78H225V277.78H221M229 273.78H233V277.78H229M237 273.78H241V277.78H237M245 273.78H249V277.78H245M253 273.78H257V277.78H253M261 273.78H265V277.78H261M269 273.78H273V277.78H269M277 273.78H281V277.78H277M285 273.78H289V277.78H285M293 273.78H297V277.78H293M301 273.78H305V277.78H301M309 273.78H313V277.78H309M317 273.78H321V277.78H317M325 273.78H329V277.78H325M333 273.78H337V277.78H333M341 273.78H345V277.78H341M349 273.78H353V277.78H349M357 273.78H361V277.78H357M365 273.78H369V277.78H365M373 273.78H377V277.78H373M381 273.78H385V277.78H381M389 273.78H393V277.78H389M397 273.78H401V277.78H397M405 273.78H409V277.78H405M413 273.78H417V277.78H413M421 273.78H425V277.78H421M429 273.78H433V277.78H429M437 273.78H441V277.78H437M445 273.78H449V277.78H445M453 273.78H457V277.78H453M461 273.78H465V277.78H461M469 273.78H473V277.78H469M477 273.78H481V277.78H477M485 273.78H489V277.78H485M493 273.78H497V277.78H493M501 273.78H505V277.78H501M509 273.78H513V277.78H509M517 273.78H521V277.78H517M525 273.78H529V277.78H525M533 273.78H537V277.78H533M541 273.78H545V277.78H541M549 273.78H553V277.78H549M557 273.78H561V277.78H557M565 273.78H569V277.78H565M573 273.78H577V277.78H573M581 273.78H585V277.78H581M589 273.78H593V277.78H589" fill="#753500"/>
</g>
<g clip-path="url(#clip_10)">
<path transform="matrix(.75,0,0,.75,0,0)" d="M53 184.59H593" fill-opacity="0" fill-rule="evenodd"/>
<path transform="matrix(.75,0,0,.75,0,0)" d="M53 182.59H57V186.59H53M61 182.59H65V186.59H61M69 182.59H73V186.59H69M77 182.59H81V186.59H77M85 182.59H89V186.59H85M93 182.59H97V186.59H93M101 182.59H105V186.59H101M109 182.59H113V186.59H109M117 182.59H121V186.59H117M125 182.59H129V186.59H125M133 182.59H137V186.59H133M141 182.59H145V186.59H141M149 182.59H153V186.59H149M157 182.59H161V186.59H157M165 182.59H169V186.59H165M173 182.59H177V186.59H173M181 182.59H185V186.59H181M189 182.59H193V186.59H189M197 182.59H201V186.59H197M205 182.59H209V186.59H205M213 182.59H217V186.59H213M221 182.59H225V186.59H221M229 182.59H233V186.59H229M237 182.59H241V186.59H237M245 182.59H249V186.59H245M253 182.59H257V186.59H253M261 182.59H265V186.59H261M269 182.59H273V186.59H269M277 182.59H281V186.59H277M285 182.59H289V186.59H285M293 182.59H297V186.59H293M301 182.59H305V186.59H301M309 182.59H313V186.59H309M317 182.59H321V186.59H317M325 182.59H329V186.59H325M333 182.59H337V186.59H333M341 182.59H345V186.59H341M349 182.59H353V186.59H349M357 182.59H361V186.59H357M365 182.59H369V186.59H365M373 182.59H377V186.59H373M381 182.59H385V186.59H381M389 182.59H393V186.59H389M397 182.59H401V186.59H397M405 182.59H409V186.59H405M413 182.59H417V186.59H413M421 182.59H425V186.59H421M429 182.59H433V186.59H429M437 182.59H441V186.59H437M445 182.59H449V186.59H445M453 182.59H457V186.59H453M461 182.59H465V186.59H461M469 182.59H473V186.59H469M477 182.59H481V186.59H477M485 182.59H489V186.59H485M493 182.59H497V186.59H493M501 182.59H505V186.59H501M509 182.59H513V186.59H509M517 182.59H521V186.59H517M525 182.59H529V186.59H525M533 182.59H537V186.59H533M541 182.59H545V186.59H541M549 182.59H553V186.59H549M557 182.59H561V186.59H557M565 182.59H569V186.59H565M573 182.59H577V186.59H573M581 182.59H585V186.59H581M589 182.59H593V186.59H589" fill="#ee0000" fill-opacity=".8"/>
</g>
<g clip-path="url(#clip_11)">
<path transform="matrix(.75,0,0,.75,0,0)" d="M53 7H593" fill-opacity="0" fill-rule="evenodd"/>
<path transform="matrix(.75,0,0,.75,0,0)" d="M53 5H57V9H53M61 5H65V9H61M69 5H73V9H69M77 5H81V9H77M85 5H89V9H85M93 5H97V9H93M101 5H105V9H101M109 5H113V9H109M117 5H121V9H117M125 5H129V9H125M133 5H137V9H133M141 5H145V9H141M149 5H153V9H149M157 5H161V9H157M165 5H169V9H165M173 5H177V9H173M181 5H185V9H181M189 5H193V9H189M197 5H201V9H197M205 5H209V9H205M213 5H217V9H213M221 5H225V9H221M229 5H233V9H229M237 5H241V9H237M245 5H249V9H245M253 5H257V9H253M261 5H265V9H261M269 5H273V9H269M277 5H281V9H277M285 5H289V9H285M293 5H297V9H293M301 5H305V9H301M309 5H313V9H309M317 5H321V9H317M325 5H329V9H325M333 5H337V9H333M341 5H345V9H341M349 5H353V9H349M357 5H361V9H357M365 5H369V9H365M373 5H377V9H373M381 5H385V9H381M389 5H393V9H389M397 5H401V9H397M405 5H409V9H405M413 5H417V9H413M421 5H425V9H421M429 5H433V9H429M437 5H441V9H437M445 5H449V9H445M453 5H457V9H453M461 5H465V9H461M469 5H473V9H469M477 5H481V9H477M485 5H489V9H485M493 5H497V9H493M501 5H505V9H501M509 5H513V9H509M517 5H521V9H517M525 5H529V9H525M533 5H537V9H533M541 5H545V9H541M549 5H553V9H549M557 5H561V9H557M565 5H569V9H565M573 5H577V9H573M581 5H585V9H581M589 5H593V9H589" fill="#005715"/>
</g>
<g clip-path="url(#clip_12)">
<path transform="matrix(.75,0,0,.75,364.94999,261.12)" d="M.5 .5H100.5V91.5H.5Z" fill="#d3d3d3"/>
<path transform="matrix(.75,0,0,.75,364.94999,261.12)" stroke-width="1" stroke-linecap="butt" stroke-miterlimit="4" stroke-linejoin="miter" fill="none" stroke="#000000" d="M.5 .5H100.5V91.5H.5Z"/>
</g>
<g clip-path="url(#clip_13)">
<text xml:space="preserve" transform="matrix(.75 0 0 .75 365.69999 273.0825)" font-size="13" font-family="LiberationSans"><tspan y="5.07" x="40 47.943">F1</tspan></text>
<path transform="matrix(.75,0,0,.75,365.69999,273.0825)" stroke-width="4" stroke-linecap="butt" stroke-miterlimit="4" stroke-linejoin="miter" fill="none" stroke="#ee0000" stroke-opacity=".8" d="M5 0H35"/>
<text xml:space="preserve" transform="matrix(.75 0 0 .75 365.69999 288.0075)" font-size="13" font-family="LiberationSans"><tspan y="5.07" x="40 48.671 53 60.228 66.728 69.614 76.114 79 86.228">Precision</tspan></text>
<path transform="matrix(.75,0,0,.75,365.69999,288.0075)" stroke-width="4" stroke-linecap="butt" stroke-miterlimit="4" stroke-linejoin="miter" fill="none" stroke="#3204c8" d="M5 0H35"/>
<text xml:space="preserve" transform="matrix(.75 0 0 .75 365.69999 302.9325)" font-size="13" font-family="LiberationSans"><tspan y="5.07" x="40 49.386 56.614004 63.114004 70.342 73.228008">Recall</tspan></text>
<path transform="matrix(.75,0,0,.75,365.69999,302.9325)" stroke-width="4" stroke-linecap="butt" stroke-miterlimit="4" stroke-linejoin="miter" fill="none" stroke="#005715" d="M5 0H35"/>
<text xml:space="preserve" transform="matrix(.75 0 0 .75 365.69999 317.85749)" font-size="13" font-family="LiberationSans"><tspan y="5.07" x="40 48.671 55.171 61.671 68.899 73.228008 80.45601 86.95601">Accuracy</tspan></text>
<path transform="matrix(.75,0,0,.75,365.69999,317.85749)" stroke-width="4" stroke-linecap="butt" stroke-miterlimit="4" stroke-linejoin="miter" fill="none" stroke="#753500" d="M5 0H35"/>
</g>
<g clip-path="url(#clip_14)">
<text xml:space="preserve" transform="matrix(.75 0 0 .75 0 -1.7320312)" font-size="16" font-family="LiberationSans"><tspan y="499.3094" x="251.42188 262.97389 271.86988 285.19789 294.09388 302.98988 308.31788 312.76588 321.66188 326.10987 330.55787 338.55787 347.45387 356.34986 360.79786 368.79786 373.24586 378.57386 389.24586">Number of shots (K)</tspan></text>
<text xml:space="preserve" transform="matrix(.000000000000000045924258 -.75 .75 .000000000000000045924258 -160.50029 175.6711)" font-size="16" font-family="LiberationSans"><tspan y="228" x="-39.56875 -28.896748 -20.000748 -14.672748 -10.224747 -1.3287459 3.9992543 17.327256 26.223256 35.119256 43.119256">Performance</tspan></text>
</g>
</svg>
