<svg xmlns="http://www.w3.org/2000/svg" xmlns:xlink="http://www.w3.org/1999/xlink" xmlns:inkscape="http://www.inkscape.org/namespaces/inkscape" version="1.1" width="688.5694" height="340.975" viewBox="0 0 688.5694 340.975">
<defs>
<clipPath id="clip_0">
<path transform="matrix(1,0,0,-1,0,340.975)" d="M290.7 258.38914H513.9V318.65H290.7Z"/>
</clipPath>
<clipPath id="clip_1">
<path transform="matrix(1,0,0,-1,0,340.975)" d="M290.7 258.38914H513.9V318.65H290.7Z"/>
</clipPath>
<clipPath id="clip_2">
<path transform="matrix(1,0,0,-1,0,340.975)" d="M290.7 258.38914H513.9V318.65H290.7Z"/>
</clipPath>
<clipPath id="clip_3">
<path transform="matrix(1,0,0,-1,0,340.975)" d="M290.7 258.38914H513.9V318.65H290.7Z"/>
</clipPath>
<clipPath id="clip_4">
<path transform="matrix(1,0,0,-1,0,340.975)" d="M290.7 258.38914H513.9V318.65H290.7Z"/>
</clipPath>
<clipPath id="clip_5">
<path transform="matrix(1,0,0,-1,0,340.975)" d="M290.7 258.38914H513.9V318.65H290.7Z"/>
</clipPath>
<clipPath id="clip_6">
<path transform="matrix(1,0,0,-1,0,340.975)" d="M290.7 258.38914H513.9V318.65H290.7Z"/>
</clipPath>
<clipPath id="clip_7">
<path transform="matrix(1,0,0,-1,0,340.975)" d="M290.7 258.38914H513.9V318.65H290.7Z"/>
</clipPath>
<clipPath id="clip_8">
<path transform="matrix(1,0,0,-1,0,340.975)" d="M290.7 258.38914H513.9V318.65H290.7Z"/>
</clipPath>
<clipPath id="clip_9">
<path transform="matrix(1,0,0,-1,0,340.975)" d="M290.7 258.38914H513.9V318.65H290.7Z"/>
</clipPath>
<clipPath id="clip_10">
<path transform="matrix(1,0,0,-1,0,340.975)" d="M290.7 149.91957H513.9V210.18044H290.7Z"/>
</clipPath>
<clipPath id="clip_11">
<path transform="matrix(1,0,0,-1,0,340.975)" d="M290.7 149.91957H513.9V210.18044H290.7Z"/>
</clipPath>
<clipPath id="clip_12">
<path transform="matrix(1,0,0,-1,0,340.975)" d="M290.7 149.91957H513.9V210.18044H290.7Z"/>
</clipPath>
<clipPath id="clip_13">
<path transform="matrix(1,0,0,-1,0,340.975)" d="M290.7 149.91957H513.9V210.18044H290.7Z"/>
</clipPath>
<clipPath id="clip_14">
<path transform="matrix(1,0,0,-1,0,340.975)" d="M290.7 149.91957H513.9V210.18044H290.7Z"/>
</clipPath>
<clipPath id="clip_15">
<path transform="matrix(1,0,0,-1,0,340.975)" d="M290.7 149.91957H513.9V210.18044H290.7Z"/>
</clipPath>
<clipPath id="clip_16">
<path transform="matrix(1,0,0,-1,0,340.975)" d="M290.7 149.91957H513.9V210.18044H290.7Z"/>
</clipPath>
<clipPath id="clip_17">
<path transform="matrix(1,0,0,-1,0,340.975)" d="M290.7 149.91957H513.9V210.18044H290.7Z"/>
</clipPath>
<clipPath id="clip_18">
<path transform="matrix(1,0,0,-1,0,340.975)" d="M290.7 149.91957H513.9V210.18044H290.7Z"/>
</clipPath>
<clipPath id="clip_19">
<path transform="matrix(1,0,0,-1,0,340.975)" d="M290.7 149.91957H513.9V210.18044H290.7Z"/>
</clipPath>
<clipPath id="clip_20">
<path transform="matrix(1,0,0,-1,0,340.975)" d="M290.7 41.45H513.9V101.71087H290.7Z"/>
</clipPath>
<clipPath id="clip_21">
<path transform="matrix(1,0,0,-1,0,340.975)" d="M290.7 41.45H513.9V101.71087H290.7Z"/>
</clipPath>
<clipPath id="clip_22">
<path transform="matrix(1,0,0,-1,0,340.975)" d="M290.7 41.45H513.9V101.71087H290.7Z"/>
</clipPath>
<clipPath id="clip_23">
<path transform="matrix(1,0,0,-1,0,340.975)" d="M290.7 41.45H513.9V101.71087H290.7Z"/>
</clipPath>
<clipPath id="clip_24">
<path transform="matrix(1,0,0,-1,0,340.975)" d="M290.7 41.45H513.9V101.71087H290.7Z"/>
</clipPath>
<clipPath id="clip_25">
<path transform="matrix(1,0,0,-1,0,340.975)" d="M290.7 41.45H513.9V101.71087H290.7Z"/>
</clipPath>
<clipPath id="clip_26">
<path transform="matrix(1,0,0,-1,0,340.975)" d="M290.7 41.45H513.9V101.71087H290.7Z"/>
</clipPath>
<clipPath id="clip_27">
<path transform="matrix(1,0,0,-1,0,340.975)" d="M290.7 41.45H513.9V101.71087H290.7Z"/>
</clipPath>
<clipPath id="clip_28">
<path transform="matrix(1,0,0,-1,0,340.975)" d="M290.7 41.45H513.9V101.71087H290.7Z"/>
</clipPath>
<clipPath id="clip_29">
<path transform="matrix(1,0,0,-1,0,340.975)" d="M290.7 41.45H513.9V101.71087H290.7Z"/>
</clipPath>
</defs>
<path transform="matrix(1,0,0,-1,0,340.975)" d="M0 0H688.5694V340.975H0Z" fill="#ffffff"/>
<path transform="matrix(1,0,0,-1,0,340.975)" d="M290.7 258.38914H513.9V318.65H290.7Z" fill="#ffffff"/>
<g clip-path="url(#clip_0)">
<path transform="matrix(1,0,0,-1,0,340.975)" d="M290.7 261.12828H308.556V272.08479H290.7Z" fill="#66c2a5"/>
</g>
<g clip-path="url(#clip_1)">
<path transform="matrix(1,0,0,-1,0,340.975)" d="M290.7 304.95436H317.484V315.91087H290.7Z" fill="#66c2a5"/>
</g>
<g clip-path="url(#clip_2)">
<path transform="matrix(1,0,0,-1,0,340.975)" d="M308.556 261.12828H317.484V272.08479H308.556Z" fill="#fc8d62"/>
</g>
<g clip-path="url(#clip_3)">
<path transform="matrix(1,0,0,-1,0,340.975)" d="M317.484 304.95436H348.732V315.91087H317.484Z" fill="#fc8d62"/>
</g>
<g clip-path="url(#clip_4)">
<path transform="matrix(1,0,0,-1,0,340.975)" d="M317.484 261.12828H379.98V272.08479H317.484Z" fill="#8da0cb"/>
</g>
<g clip-path="url(#clip_5)">
<path transform="matrix(1,0,0,-1,0,340.975)" d="M348.732 304.95436H384.444V315.91087H348.732Z" fill="#8da0cb"/>
</g>
<g clip-path="url(#clip_6)">
<path transform="matrix(1,0,0,-1,0,340.975)" d="M379.98 261.12828H507.204V272.08479H379.98Z" fill="#e78ac3"/>
</g>
<g clip-path="url(#clip_7)">
<path transform="matrix(1,0,0,-1,0,340.975)" d="M384.444 304.95436H493.812V315.91087H384.444Z" fill="#e78ac3"/>
</g>
<g clip-path="url(#clip_8)">
<path transform="matrix(1,0,0,-1,0,340.975)" d="M507.204 261.12828H511.668V272.08479H507.204Z" fill="#a6d854"/>
</g>
<g clip-path="url(#clip_9)">
<path transform="matrix(1,0,0,-1,0,340.975)" d="M493.812 304.95436H511.668V315.91087H493.812Z" fill="#a6d854"/>
</g>
<path transform="matrix(1,0,0,-1,0,340.975)" d="M290.7 258.38914V254.88913"/>
<path transform="matrix(1,0,0,-1,0,340.975)" stroke-width=".8" stroke-linecap="butt" stroke-linejoin="round" fill="none" stroke="#000000" d="M290.7 258.38914V254.88913"/>
<text xml:space="preserve" transform="matrix(1 0 -0 1 286.8797 98.71088)" font-size="12" font-family="DejaVuSans"><tspan y="0" x="0">0</tspan></text>
<path transform="matrix(1,0,0,-1,0,340.975)" d="M335.34 258.38914V254.88913"/>
<path transform="matrix(1,0,0,-1,0,340.975)" stroke-width=".8" stroke-linecap="butt" stroke-linejoin="round" fill="none" stroke="#000000" d="M335.34 258.38914V254.88913"/>
<text xml:space="preserve" transform="matrix(1 0 -0 1 327.69938 98.71088)" font-size="12" font-family="DejaVuSans"><tspan y="0" x="0 7.6320006">20</tspan></text>
<path transform="matrix(1,0,0,-1,0,340.975)" d="M379.98 258.38914V254.88913"/>
<path transform="matrix(1,0,0,-1,0,340.975)" stroke-width=".8" stroke-linecap="butt" stroke-linejoin="round" fill="none" stroke="#000000" d="M379.98 258.38914V254.88913"/>
<text xml:space="preserve" transform="matrix(1 0 -0 1 372.3394 98.71088)" font-size="12" font-family="DejaVuSans"><tspan y="0" x="0 7.6320006">40</tspan></text>
<path transform="matrix(1,0,0,-1,0,340.975)" d="M424.62 258.38914V254.88913"/>
<path transform="matrix(1,0,0,-1,0,340.975)" stroke-width=".8" stroke-linecap="butt" stroke-linejoin="round" fill="none" stroke="#000000" d="M424.62 258.38914V254.88913"/>
<text xml:space="preserve" transform="matrix(1 0 -0 1 416.97938 98.71088)" font-size="12" font-family="DejaVuSans"><tspan y="0" x="0 7.6320006">60</tspan></text>
<path transform="matrix(1,0,0,-1,0,340.975)" d="M469.26 258.38914V254.88913"/>
<path transform="matrix(1,0,0,-1,0,340.975)" stroke-width=".8" stroke-linecap="butt" stroke-linejoin="round" fill="none" stroke="#000000" d="M469.26 258.38914V254.88913"/>
<text xml:space="preserve" transform="matrix(1 0 -0 1 461.6194 98.71088)" font-size="12" font-family="DejaVuSans"><tspan y="0" x="0 7.6320006">80</tspan></text>
<path transform="matrix(1,0,0,-1,0,340.975)" d="M513.9 258.38914V254.88913"/>
<path transform="matrix(1,0,0,-1,0,340.975)" stroke-width=".8" stroke-linecap="butt" stroke-linejoin="round" fill="none" stroke="#000000" d="M513.9 258.38914V254.88913"/>
<text xml:space="preserve" transform="matrix(1 0 -0 1 502.43907 98.71088)" font-size="12" font-family="DejaVuSans"><tspan y="0" x="0 7.6320006 15.264001">100</tspan></text>
<path transform="matrix(1,0,0,-1,0,340.975)" d="M290.7 266.60655H287.2"/>
<path transform="matrix(1,0,0,-1,0,340.975)" stroke-width=".8" stroke-linecap="butt" stroke-linejoin="round" fill="none" stroke="#000000" d="M290.7 266.60655H287.2"/>
<text xml:space="preserve" transform="matrix(1 0 -0 1 79.15312 73.1185)" font-size="12" font-family="DejaVuSans"><tspan y="0" x="0 7.332 14.94 22.32 26.136 32.388 39.996004 51.684003 63.372 70.728008 75.66 82.76401 86.58001 89.91601 96.16801 99.98401 106.58401 109.920009 117.3 124.656009 129.58802 133.404 140.76001 148.36801 155.988 159.804 167.412 174.768 181.02 184.836 189.54 197.148">The summary is clear and has the</tspan></text>
<text xml:space="preserve" transform="matrix(1 0 -0 1 124.62187 86.56848)" font-size="12" font-family="DejaVuSans"><tspan y="0" x="0 7.3560006 14.976002 22.596003 27.278004 34.622007 42.242006 47.174005 50.510004 57.866 62.57 69.95 73.766 77.102 84.481998 91.586 98.965999 102.301998 106.118 113.462 117.686 121.502 129.122 136.502 141.206 148.562 151.898 155.234">appropriate level of detail.</tspan></text>
<path transform="matrix(1,0,0,-1,0,340.975)" d="M290.7 310.43263H287.2"/>
<path transform="matrix(1,0,0,-1,0,340.975)" stroke-width=".8" stroke-linecap="butt" stroke-linejoin="round" fill="none" stroke="#000000" d="M290.7 310.43263H287.2"/>
<text xml:space="preserve" transform="matrix(1 0 -0 1 7.2 22.567414)" font-size="12" font-family="DejaVuSans"><tspan y="0" x="0 7.332 14.94 22.32 26.136 32.388 39.996004 51.684003 63.372 70.728008 75.66 82.76401 86.58001 94.18801 101.544017 107.79601 111.612018 119.22002 126.60001 136.41602 140.23201 143.56801 151.17601 155.40001 162.744 167.47289 179.16089 186.51689 191.22089 194.55689 201.90088 209.50888 213.32488 220.68088 228.30088 235.64487 243.25287 247.95687 251.77286 259.38087 266.72486">The summary has new information about how</tspan></text>
<text xml:space="preserve" transform="matrix(1 0 -0 1 27.10625 36.017396)" font-size="12" font-family="DejaVuSans"><tspan y="0" x="0 11.688001 18.792 22.608 30.228 37.584 45.204004 52.584005 57.516004 61.332006 68.94 76.296009 82.548007 86.364009 93.98401 101.364009 108.744 116.352008 120.16801 127.77601 134.02802 141.40802 149.02802 152.84401 157.548 165.156 172.51201 177.216 181.032 184.57199 188.38799 194.98799 202.344 209.952 213.252 217.956 221.77199 229.152 236.508 242.76 246.096 249.43199">my paper has been used that I can't easily</tspan></text>
<text xml:space="preserve" transform="matrix(1 0 -0 1 192.04375 49.467409)" font-size="12" font-family="DejaVuSans"><tspan y="0" x="0 4.2240006 7.560001 15.168001 22.788002 26.604002 33.984 37.32 43.572 50.952 60.767999 68.376 75.756 80.437999 87.81799">find elsewhere.</tspan></text>
<path transform="matrix(1,0,0,-1,0,340.975)" stroke-width=".8" stroke-linecap="square" stroke-miterlimit="10" stroke-linejoin="miter" fill="none" stroke="#000000" d="M290.7 258.38914V318.65"/>
<path transform="matrix(1,0,0,-1,0,340.975)" stroke-width=".8" stroke-linecap="square" stroke-miterlimit="10" stroke-linejoin="miter" fill="none" stroke="#000000" d="M513.9 258.38914V318.65"/>
<path transform="matrix(1,0,0,-1,0,340.975)" stroke-width=".8" stroke-linecap="square" stroke-miterlimit="10" stroke-linejoin="miter" fill="none" stroke="#000000" d="M290.7 258.38914H513.9"/>
<path transform="matrix(1,0,0,-1,0,340.975)" stroke-width=".8" stroke-linecap="square" stroke-miterlimit="10" stroke-linejoin="miter" fill="none" stroke="#000000" d="M290.7 318.65H513.9"/>
<text xml:space="preserve" transform="matrix(1 0 -0 1 393.9328 16.325013)" font-size="12" font-family="DejaVuSans"><tspan y="0" x="0 4.6800005 12.036001">(a)</tspan></text>
<g>
<path transform="matrix(1,0,0,-1,0,340.975)" d="M533.46 205.25313H678.96939C680.5694 205.25313 681.3694 206.05313 681.3694 207.65312V310.25C681.3694 311.85 680.5694 312.65 678.96939 312.65H533.46C531.86 312.65 531.06 311.85 531.06 310.25V207.65312C531.06 206.05313 531.86 205.25313 533.46 205.25313Z" fill="#ffffff" fill-opacity=".8"/>
<path transform="matrix(1,0,0,-1,0,340.975)" stroke-width="1" stroke-linecap="butt" stroke-miterlimit="10" stroke-linejoin="miter" fill="none" stroke="#cccccc" stroke-opacity=".8" d="M533.46 205.25313H678.96939C680.5694 205.25313 681.3694 206.05313 681.3694 207.65312V310.25C681.3694 311.85 680.5694 312.65 678.96939 312.65H533.46C531.86 312.65 531.06 311.85 531.06 310.25V207.65312C531.06 206.05313 531.86 205.25313 533.46 205.25313Z"/>
</g>
<text xml:space="preserve" transform="matrix(1 0 -0 1 579.5975 40.71875)" font-size="10" font-family="DejaVuSans"><tspan y="0" x="0 6.512501 12.6625 17.872502 24.222502 30.342503 36.682504 41.8925 48.042505">Responses</tspan></text>
<path transform="matrix(1,0,0,-1,0,340.975)" d="M535.86 283.05314H559.86V291.45314H535.86Z" fill="#66c2a5"/>
<text xml:space="preserve" transform="matrix(1 0 -0 1 569.46 57.921876)" font-size="12" font-family="DejaVuSans"><tspan y="0" x="0 7.620001 12.324001 17.006 24.350003 31.958003 39.578004 42.914 50.018 53.834005 63.074007 66.41 72.662 80.018009 87.63801 92.32001 99.700008">Strongly Disagree</tspan></text>
<path transform="matrix(1,0,0,-1,0,340.975)" d="M535.86 265.42814H559.86V273.82814H535.86Z" fill="#fc8d62"/>
<text xml:space="preserve" transform="matrix(1 0 -0 1 569.46 75.546878)" font-size="12" font-family="DejaVuSans"><tspan y="0" x="0 9.240001 12.576001 18.828001 26.184002 33.804 38.486 45.866">Disagree</tspan></text>
<path transform="matrix(1,0,0,-1,0,340.975)" d="M535.86 247.80313H559.86V256.20314H535.86Z" fill="#8da0cb"/>
<text xml:space="preserve" transform="matrix(1 0 -0 1 569.46 93.171878)" font-size="12" font-family="DejaVuSans"><tspan y="0" x="0 8.976 16.355999 23.963999 28.668 33.6 40.955999">Neutral</tspan></text>
<path transform="matrix(1,0,0,-1,0,340.975)" d="M535.86 230.17813H559.86V238.57813H535.86Z" fill="#e78ac3"/>
<text xml:space="preserve" transform="matrix(1 0 -0 1 569.46 110.796878)" font-size="12" font-family="DejaVuSans"><tspan y="0" x="0 8.208 15.828001 20.510003 27.890004">Agree</tspan></text>
<path transform="matrix(1,0,0,-1,0,340.975)" d="M535.86 212.55313H559.86V220.95313H535.86Z" fill="#a6d854"/>
<text xml:space="preserve" transform="matrix(1 0 -0 1 569.46 128.42188)" font-size="12" font-family="DejaVuSans"><tspan y="0" x="0 7.620001 12.324001 17.006 24.350003 31.958003 39.578004 42.914 50.018 53.834005 62.042005 69.662 74.344 81.724">Strongly Agree</tspan></text>
<path transform="matrix(1,0,0,-1,0,340.975)" d="M290.7 149.91957H513.9V210.18044H290.7Z" fill="#ffffff"/>
<g clip-path="url(#clip_10)">
<path transform="matrix(1,0,0,-1,0,340.975)" d="M290.7 152.65869V152.65869 163.61522Z" fill="#66c2a5"/>
</g>
<g clip-path="url(#clip_11)">
<path transform="matrix(1,0,0,-1,0,340.975)" d="M290.7 196.48479V196.48479 207.4413Z" fill="#66c2a5"/>
</g>
<g clip-path="url(#clip_12)">
<path transform="matrix(1,0,0,-1,0,340.975)" d="M290.7 152.65869V152.65869 163.61522Z" fill="#fc8d62"/>
</g>
<g clip-path="url(#clip_13)">
<path transform="matrix(1,0,0,-1,0,340.975)" d="M290.7 196.48479H328.644V207.4413H290.7Z" fill="#fc8d62"/>
</g>
<g clip-path="url(#clip_14)">
<path transform="matrix(1,0,0,-1,0,340.975)" d="M290.7 152.65869H346.5V163.61522H290.7Z" fill="#8da0cb"/>
</g>
<g clip-path="url(#clip_15)">
<path transform="matrix(1,0,0,-1,0,340.975)" d="M328.644 196.48479H346.5V207.4413H328.644Z" fill="#8da0cb"/>
</g>
<g clip-path="url(#clip_16)">
<path transform="matrix(1,0,0,-1,0,340.975)" d="M346.5 152.65869H513.9V163.61522H346.5Z" fill="#e78ac3"/>
</g>
<g clip-path="url(#clip_17)">
<path transform="matrix(1,0,0,-1,0,340.975)" d="M346.5 196.48479H513.9V207.4413H346.5Z" fill="#e78ac3"/>
</g>
<g clip-path="url(#clip_18)">
<path transform="matrix(1,0,0,-1,0,340.975)" d="M513.9 152.65869V152.65869 163.61522Z" fill="#a6d854"/>
</g>
<g clip-path="url(#clip_19)">
<path transform="matrix(1,0,0,-1,0,340.975)" d="M513.9 196.48479V196.48479 207.4413Z" fill="#a6d854"/>
</g>
<path transform="matrix(1,0,0,-1,0,340.975)" d="M290.7 149.91957V146.41957"/>
<path transform="matrix(1,0,0,-1,0,340.975)" stroke-width=".8" stroke-linecap="butt" stroke-linejoin="round" fill="none" stroke="#000000" d="M290.7 149.91957V146.41957"/>
<text xml:space="preserve" transform="matrix(1 0 -0 1 286.8797 207.18044)" font-size="12" font-family="DejaVuSans"><tspan y="0" x="0">0</tspan></text>
<path transform="matrix(1,0,0,-1,0,340.975)" d="M335.34 149.91957V146.41957"/>
<path transform="matrix(1,0,0,-1,0,340.975)" stroke-width=".8" stroke-linecap="butt" stroke-linejoin="round" fill="none" stroke="#000000" d="M335.34 149.91957V146.41957"/>
<text xml:space="preserve" transform="matrix(1 0 -0 1 327.69938 207.18044)" font-size="12" font-family="DejaVuSans"><tspan y="0" x="0 7.6320006">20</tspan></text>
<path transform="matrix(1,0,0,-1,0,340.975)" d="M379.98 149.91957V146.41957"/>
<path transform="matrix(1,0,0,-1,0,340.975)" stroke-width=".8" stroke-linecap="butt" stroke-linejoin="round" fill="none" stroke="#000000" d="M379.98 149.91957V146.41957"/>
<text xml:space="preserve" transform="matrix(1 0 -0 1 372.3394 207.18044)" font-size="12" font-family="DejaVuSans"><tspan y="0" x="0 7.6320006">40</tspan></text>
<path transform="matrix(1,0,0,-1,0,340.975)" d="M424.62 149.91957V146.41957"/>
<path transform="matrix(1,0,0,-1,0,340.975)" stroke-width=".8" stroke-linecap="butt" stroke-linejoin="round" fill="none" stroke="#000000" d="M424.62 149.91957V146.41957"/>
<text xml:space="preserve" transform="matrix(1 0 -0 1 416.97938 207.18044)" font-size="12" font-family="DejaVuSans"><tspan y="0" x="0 7.6320006">60</tspan></text>
<path transform="matrix(1,0,0,-1,0,340.975)" d="M469.26 149.91957V146.41957"/>
<path transform="matrix(1,0,0,-1,0,340.975)" stroke-width=".8" stroke-linecap="butt" stroke-linejoin="round" fill="none" stroke="#000000" d="M469.26 149.91957V146.41957"/>
<text xml:space="preserve" transform="matrix(1 0 -0 1 461.6194 207.18044)" font-size="12" font-family="DejaVuSans"><tspan y="0" x="0 7.6320006">80</tspan></text>
<path transform="matrix(1,0,0,-1,0,340.975)" d="M513.9 149.91957V146.41957"/>
<path transform="matrix(1,0,0,-1,0,340.975)" stroke-width=".8" stroke-linecap="butt" stroke-linejoin="round" fill="none" stroke="#000000" d="M513.9 149.91957V146.41957"/>
<text xml:space="preserve" transform="matrix(1 0 -0 1 502.43907 207.18044)" font-size="12" font-family="DejaVuSans"><tspan y="0" x="0 7.6320006 15.264001">100</tspan></text>
<path transform="matrix(1,0,0,-1,0,340.975)" d="M290.7 158.13697H287.2"/>
<path transform="matrix(1,0,0,-1,0,340.975)" stroke-width=".8" stroke-linecap="butt" stroke-linejoin="round" fill="none" stroke="#000000" d="M290.7 158.13697H287.2"/>
<text xml:space="preserve" transform="matrix(1 0 -0 1 79.15312 181.58805)" font-size="12" font-family="DejaVuSans"><tspan y="0" x="0 7.332 14.94 22.32 26.136 32.388 39.996004 51.684003 63.372 70.728008 75.66 82.76401 86.58001 89.91601 96.16801 99.98401 106.58401 109.920009 117.3 124.656009 129.58802 133.404 140.76001 148.36801 155.988 159.804 167.412 174.768 181.02 184.836 189.54 197.148">The summary is clear and has the</tspan></text>
<text xml:space="preserve" transform="matrix(1 0 -0 1 124.62187 195.03806)" font-size="12" font-family="DejaVuSans"><tspan y="0" x="0 7.3560006 14.976002 22.596003 27.278004 34.622007 42.242006 47.174005 50.510004 57.866 62.57 69.95 73.766 77.102 84.481998 91.586 98.965999 102.301998 106.118 113.462 117.686 121.502 129.122 136.502 141.206 148.562 151.898 155.234">appropriate level of detail.</tspan></text>
<path transform="matrix(1,0,0,-1,0,340.975)" d="M290.7 201.96305H287.2"/>
<path transform="matrix(1,0,0,-1,0,340.975)" stroke-width=".8" stroke-linecap="butt" stroke-linejoin="round" fill="none" stroke="#000000" d="M290.7 201.96305H287.2"/>
<text xml:space="preserve" transform="matrix(1 0 -0 1 7.2 131.03696)" font-size="12" font-family="DejaVuSans"><tspan y="0" x="0 7.332 14.94 22.32 26.136 32.388 39.996004 51.684003 63.372 70.728008 75.66 82.76401 86.58001 94.18801 101.544017 107.79601 111.612018 119.22002 126.60001 136.41602 140.23201 143.56801 151.17601 155.40001 162.744 167.47289 179.16089 186.51689 191.22089 194.55689 201.90088 209.50888 213.32488 220.68088 228.30088 235.64487 243.25287 247.95687 251.77286 259.38087 266.72486">The summary has new information about how</tspan></text>
<text xml:space="preserve" transform="matrix(1 0 -0 1 27.10625 144.48697)" font-size="12" font-family="DejaVuSans"><tspan y="0" x="0 11.688001 18.792 22.608 30.228 37.584 45.204004 52.584005 57.516004 61.332006 68.94 76.296009 82.548007 86.364009 93.98401 101.364009 108.744 116.352008 120.16801 127.77601 134.02802 141.40802 149.02802 152.84401 157.548 165.156 172.51201 177.216 181.032 184.57199 188.38799 194.98799 202.344 209.952 213.252 217.956 221.77199 229.152 236.508 242.76 246.096 249.43199">my paper has been used that I can't easily</tspan></text>
<text xml:space="preserve" transform="matrix(1 0 -0 1 192.04375 157.93697)" font-size="12" font-family="DejaVuSans"><tspan y="0" x="0 4.2240006 7.560001 15.168001 22.788002 26.604002 33.984 37.32 43.572 50.952 60.767999 68.376 75.756 80.437999 87.81799">find elsewhere.</tspan></text>
<path transform="matrix(1,0,0,-1,0,340.975)" stroke-width=".8" stroke-linecap="square" stroke-miterlimit="10" stroke-linejoin="miter" fill="none" stroke="#000000" d="M290.7 149.91957V210.18044"/>
<path transform="matrix(1,0,0,-1,0,340.975)" stroke-width=".8" stroke-linecap="square" stroke-miterlimit="10" stroke-linejoin="miter" fill="none" stroke="#000000" d="M513.9 149.91957V210.18044"/>
<path transform="matrix(1,0,0,-1,0,340.975)" stroke-width=".8" stroke-linecap="square" stroke-miterlimit="10" stroke-linejoin="miter" fill="none" stroke="#000000" d="M290.7 149.91957H513.9"/>
<path transform="matrix(1,0,0,-1,0,340.975)" stroke-width=".8" stroke-linecap="square" stroke-miterlimit="10" stroke-linejoin="miter" fill="none" stroke="#000000" d="M290.7 210.18044H513.9"/>
<text xml:space="preserve" transform="matrix(1 0 -0 1 393.8 124.79457)" font-size="12" font-family="DejaVuSans"><tspan y="0" x="0 4.6800005 12.300001">(b)</tspan></text>
<path transform="matrix(1,0,0,-1,0,340.975)" d="M290.7 41.45H513.9V101.71087H290.7Z" fill="#ffffff"/>
<g clip-path="url(#clip_20)">
<path transform="matrix(1,0,0,-1,0,340.975)" d="M290.7 44.18913V44.18913 55.145654Z" fill="#66c2a5"/>
</g>
<g clip-path="url(#clip_21)">
<path transform="matrix(1,0,0,-1,0,340.975)" d="M290.7 88.01522V88.01522 98.97174Z" fill="#66c2a5"/>
</g>
<g clip-path="url(#clip_22)">
<path transform="matrix(1,0,0,-1,0,340.975)" d="M290.7 44.18913V44.18913 55.145654Z" fill="#fc8d62"/>
</g>
<g clip-path="url(#clip_23)">
<path transform="matrix(1,0,0,-1,0,340.975)" d="M290.7 88.01522H328.644V98.97174H290.7Z" fill="#fc8d62"/>
</g>
<g clip-path="url(#clip_24)">
<path transform="matrix(1,0,0,-1,0,340.975)" d="M290.7 44.18913H328.644V55.145654H290.7Z" fill="#8da0cb"/>
</g>
<g clip-path="url(#clip_25)">
<path transform="matrix(1,0,0,-1,0,340.975)" d="M328.644 88.01522H366.588V98.97174H328.644Z" fill="#8da0cb"/>
</g>
<g clip-path="url(#clip_26)">
<path transform="matrix(1,0,0,-1,0,340.975)" d="M328.644 44.18913H513.9V55.145654H328.644Z" fill="#e78ac3"/>
</g>
<g clip-path="url(#clip_27)">
<path transform="matrix(1,0,0,-1,0,340.975)" d="M366.588 88.01522H513.9V98.97174H366.588Z" fill="#e78ac3"/>
</g>
<g clip-path="url(#clip_28)">
<path transform="matrix(1,0,0,-1,0,340.975)" d="M513.9 44.18913V44.18913 55.145654Z" fill="#a6d854"/>
</g>
<g clip-path="url(#clip_29)">
<path transform="matrix(1,0,0,-1,0,340.975)" d="M513.9 88.01522V88.01522 98.97174Z" fill="#a6d854"/>
</g>
<path transform="matrix(1,0,0,-1,0,340.975)" d="M290.7 41.45V37.95"/>
<path transform="matrix(1,0,0,-1,0,340.975)" stroke-width=".8" stroke-linecap="butt" stroke-linejoin="round" fill="none" stroke="#000000" d="M290.7 41.45V37.95"/>
<text xml:space="preserve" transform="matrix(1 0 -0 1 286.8797 315.65)" font-size="12" font-family="DejaVuSans"><tspan y="0" x="0">0</tspan></text>
<path transform="matrix(1,0,0,-1,0,340.975)" d="M335.34 41.45V37.95"/>
<path transform="matrix(1,0,0,-1,0,340.975)" stroke-width=".8" stroke-linecap="butt" stroke-linejoin="round" fill="none" stroke="#000000" d="M335.34 41.45V37.95"/>
<text xml:space="preserve" transform="matrix(1 0 -0 1 327.69938 315.65)" font-size="12" font-family="DejaVuSans"><tspan y="0" x="0 7.6320006">20</tspan></text>
<path transform="matrix(1,0,0,-1,0,340.975)" d="M379.98 41.45V37.95"/>
<path transform="matrix(1,0,0,-1,0,340.975)" stroke-width=".8" stroke-linecap="butt" stroke-linejoin="round" fill="none" stroke="#000000" d="M379.98 41.45V37.95"/>
<text xml:space="preserve" transform="matrix(1 0 -0 1 372.3394 315.65)" font-size="12" font-family="DejaVuSans"><tspan y="0" x="0 7.6320006">40</tspan></text>
<path transform="matrix(1,0,0,-1,0,340.975)" d="M424.62 41.45V37.95"/>
<path transform="matrix(1,0,0,-1,0,340.975)" stroke-width=".8" stroke-linecap="butt" stroke-linejoin="round" fill="none" stroke="#000000" d="M424.62 41.45V37.95"/>
<text xml:space="preserve" transform="matrix(1 0 -0 1 416.97938 315.65)" font-size="12" font-family="DejaVuSans"><tspan y="0" x="0 7.6320006">60</tspan></text>
<path transform="matrix(1,0,0,-1,0,340.975)" d="M469.26 41.45V37.95"/>
<path transform="matrix(1,0,0,-1,0,340.975)" stroke-width=".8" stroke-linecap="butt" stroke-linejoin="round" fill="none" stroke="#000000" d="M469.26 41.45V37.95"/>
<text xml:space="preserve" transform="matrix(1 0 -0 1 461.6194 315.65)" font-size="12" font-family="DejaVuSans"><tspan y="0" x="0 7.6320006">80</tspan></text>
<path transform="matrix(1,0,0,-1,0,340.975)" d="M513.9 41.45V37.95"/>
<path transform="matrix(1,0,0,-1,0,340.975)" stroke-width=".8" stroke-linecap="butt" stroke-linejoin="round" fill="none" stroke="#000000" d="M513.9 41.45V37.95"/>
<text xml:space="preserve" transform="matrix(1 0 -0 1 502.43907 315.65)" font-size="12" font-family="DejaVuSans"><tspan y="0" x="0 7.6320006 15.264001">100</tspan></text>
<text xml:space="preserve" transform="matrix(1 0 -0 1 368.4953 331.275)" font-size="12" font-family="DejaVuSans"><tspan y="0" x="0 6.8141257 14.194126 18.876126 25.476126 32.856126 40.464128 45.16813 52.524129 60.144128">Percentage</tspan></text>
<path transform="matrix(1,0,0,-1,0,340.975)" d="M290.7 49.667394H287.2"/>
<path transform="matrix(1,0,0,-1,0,340.975)" stroke-width=".8" stroke-linecap="butt" stroke-linejoin="round" fill="none" stroke="#000000" d="M290.7 49.667394H287.2"/>
<text xml:space="preserve" transform="matrix(1 0 -0 1 79.15312 290.05763)" font-size="12" font-family="DejaVuSans"><tspan y="0" x="0 7.332 14.94 22.32 26.136 32.388 39.996004 51.684003 63.372 70.728008 75.66 82.76401 86.58001 89.91601 96.16801 99.98401 106.58401 109.920009 117.3 124.656009 129.58802 133.404 140.76001 148.36801 155.988 159.804 167.412 174.768 181.02 184.836 189.54 197.148">The summary is clear and has the</tspan></text>
<text xml:space="preserve" transform="matrix(1 0 -0 1 124.62187 303.50764)" font-size="12" font-family="DejaVuSans"><tspan y="0" x="0 7.3560006 14.976002 22.596003 27.278004 34.622007 42.242006 47.174005 50.510004 57.866 62.57 69.95 73.766 77.102 84.481998 91.586 98.965999 102.301998 106.118 113.462 117.686 121.502 129.122 136.502 141.206 148.562 151.898 155.234">appropriate level of detail.</tspan></text>
<path transform="matrix(1,0,0,-1,0,340.975)" d="M290.7 93.49348H287.2"/>
<path transform="matrix(1,0,0,-1,0,340.975)" stroke-width=".8" stroke-linecap="butt" stroke-linejoin="round" fill="none" stroke="#000000" d="M290.7 93.49348H287.2"/>
<text xml:space="preserve" transform="matrix(1 0 -0 1 7.2 239.50653)" font-size="12" font-family="DejaVuSans"><tspan y="0" x="0 7.332 14.94 22.32 26.136 32.388 39.996004 51.684003 63.372 70.728008 75.66 82.76401 86.58001 94.18801 101.544017 107.79601 111.612018 119.22002 126.60001 136.41602 140.23201 143.56801 151.17601 155.40001 162.744 167.47289 179.16089 186.51689 191.22089 194.55689 201.90088 209.50888 213.32488 220.68088 228.30088 235.64487 243.25287 247.95687 251.77286 259.38087 266.72486">The summary has new information about how</tspan></text>
<text xml:space="preserve" transform="matrix(1 0 -0 1 27.10625 252.95653)" font-size="12" font-family="DejaVuSans"><tspan y="0" x="0 11.688001 18.792 22.608 30.228 37.584 45.204004 52.584005 57.516004 61.332006 68.94 76.296009 82.548007 86.364009 93.98401 101.364009 108.744 116.352008 120.16801 127.77601 134.02802 141.40802 149.02802 152.84401 157.548 165.156 172.51201 177.216 181.032 184.57199 188.38799 194.98799 202.344 209.952 213.252 217.956 221.77199 229.152 236.508 242.76 246.096 249.43199">my paper has been used that I can't easily</tspan></text>
<text xml:space="preserve" transform="matrix(1 0 -0 1 192.04375 266.40653)" font-size="12" font-family="DejaVuSans"><tspan y="0" x="0 4.2240006 7.560001 15.168001 22.788002 26.604002 33.984 37.32 43.572 50.952 60.767999 68.376 75.756 80.437999 87.81799">find elsewhere.</tspan></text>
<path transform="matrix(1,0,0,-1,0,340.975)" stroke-width=".8" stroke-linecap="square" stroke-miterlimit="10" stroke-linejoin="miter" fill="none" stroke="#000000" d="M290.7 41.45V101.71087"/>
<path transform="matrix(1,0,0,-1,0,340.975)" stroke-width=".8" stroke-linecap="square" stroke-miterlimit="10" stroke-linejoin="miter" fill="none" stroke="#000000" d="M513.9 41.45V101.71087"/>
<path transform="matrix(1,0,0,-1,0,340.975)" stroke-width=".8" stroke-linecap="square" stroke-miterlimit="10" stroke-linejoin="miter" fill="none" stroke="#000000" d="M290.7 41.45H513.9"/>
<path transform="matrix(1,0,0,-1,0,340.975)" stroke-width=".8" stroke-linecap="square" stroke-miterlimit="10" stroke-linejoin="miter" fill="none" stroke="#000000" d="M290.7 101.71087H513.9"/>
<text xml:space="preserve" transform="matrix(1 0 -0 1 394.3156 233.26413)" font-size="12" font-family="DejaVuSans"><tspan y="0" x="0 4.6800005 11.280001">(c)</tspan></text>
</svg>
