<svg xmlns="http://www.w3.org/2000/svg" xmlns:xlink="http://www.w3.org/1999/xlink" width="627.453" height="344.427" viewBox="0 0 470.59 258.32"><path stroke-width=".398" stroke-miterlimit="10" fill="none" stroke="#000" d="M4.648 5.193h459.975M4.847 18.942V5.393"/><path d="M5.047 18.942h224.554V5.393H5.047z" fill="#f0f0f0"/><symbol id="a"><path d="M.702.238c0 .02-.007.021-.024.021-.013 0-.022 0-.023-.017C.648.108.527.047.426.047a.279.279 0 0 0-.214.085C.165.189.153.264.153.354c0 .056.003.164.066.23a.284.284 0 0 0 .204.077C.531.661.626.585.648.458.651.439.652.437.675.437c.026 0 .027.002.027.028V.68c0 .019 0 .028-.018.028C.675.708.673.706.665.699L.599.64a.303.303 0 0 1-.197.068C.153.708 0 .559 0 .354S.153 0 .402 0c.187 0 .3.123.3.238z"/></symbol><symbol id="b"><path d="M.239 0v.047H.177V.45L.003.442V.395c.059 0 .066 0 .066-.039V.047H0V0l.122.003L.239 0M.191.607a.078.078 0 1 1-.156 0 .078.078 0 0 1 .156 0z"/></symbol><symbol id="c"><path d="M.361.13v.053H.314V.132C.314.064.282.04.254.04.196.04.196.104.196.127v.276h.146V.45H.196v.191H.149C.148.541.099.442 0 .439V.403h.082V.129C.082.022.169 0 .24 0c.076 0 .121.057.121.13z"/></symbol><symbol id="d"><path d="M.526.03C.526.053.513.053.5.053.439.054.439.067.439.09v.215c0 .089-.071.154-.22.154C.162.459.04.455.04.367.04.323.075.304.102.304c.031 0 .063.021.063.063 0 .03-.019.047-.022.049.028.006.06.007.072.007.075 0 .11-.042.11-.118V.271C.254.268 0 .259 0 .114 0 .018.124 0 .193 0c.08 0 .127.041.149.083 0-.031 0-.077.104-.077h.048c.02 0 .032 0 .032.024M.325.145C.325.049.233.036.208.036.157.036.117.071.117.115c0 .108.158.122.208.125V.145z"/></symbol><symbol id="e"><path d="M.51.224C.51.358.418.459.255.459.091.459 0 .357 0 .224 0 .1.088 0 .255 0 .423 0 .51.101.51.224M.382.235C.382.148.382.04.255.04S.128.148.128.235c0 .045 0 .096.017.13.019.037.061.058.11.058.042 0 .084-.016.106-.051C.382.338.382.283.382.235z"/></symbol><symbol id="f"><path d="M.57 0v.047H.501v.259C.501.411.447.45.347.45A.189.189 0 0 1 .172.342V.45L0 .442V.395c.062 0 .069 0 .069-.039V.047H0V0l.126.003L.252 0v.047H.183v.209c0 .109.086.158.149.158.034 0 .055-.021.055-.097v-.27H.318V0l.126.003L.57 0z"/></symbol><symbol id="g"><path d="M.44.123C.44.137.426.137.416.137.398.137.397.135.392.122.366.059.318.04.267.04.128.04.128.187.128.233c0 .056 0 .186.129.186A.267.267 0 0 0 .322.413a.061.061 0 0 1-.02-.046c0-.044.035-.063.062-.063.031 0 .063.021.063.063 0 .086-.116.092-.174.092C.074.459 0 .344 0 .228 0 .095.094 0 .248 0 .41 0 .44.116.44.123z"/></symbol><symbol id="h"><path d="M.462.123c0 .018-.019.018-.024.018C.421.141.419.136.413.12.392.072.335.04.27.04.129.04.128.173.128.224H.43c.022 0 .032 0 .032.027a.223.223 0 0 1-.056.154C.369.441.316.459.247.459.087.459 0 .356 0 .231 0 .097.1 0 .261 0c.158 0 .201.106.201.123M.367.257H.128C.13.296.131.338.152.371c.026.04.066.052.095.052.117 0 .119-.131.12-.166z"/></symbol><symbol id="i"><path d="M.563 0v.047H.492L.324.246l.117.13C.454.39.46.397.543.397v.047L.451.441.348.444V.397A.071.071 0 0 0 .386.388C.382.382.382.38.378.376L.294.282.196.397h.04v.047L.115.441l-.11.003V.397h.071L.232.213.101.066C.084.047.048.047 0 .047V0l.092.003L.195 0v.047C.177.047.158.052.158.058c0 0 0 .002.007.01l.097.109.11-.13H.333V0l.12.003L.563 0z"/></symbol><use xlink:href="#a" transform="matrix(10.9091 0 0 -10.9091 11.722 14.997)"/><use xlink:href="#b" transform="matrix(10.9091 0 0 -10.9091 20.602 14.877)"/><use xlink:href="#c" transform="matrix(10.9091 0 0 -10.9091 23.799 14.942)"/><use xlink:href="#d" transform="matrix(10.9091 0 0 -10.9091 28.74 14.942)"/><use xlink:href="#c" transform="matrix(10.9091 0 0 -10.9091 34.773 14.942)"/><use xlink:href="#b" transform="matrix(10.9091 0 0 -10.9091 39.933 14.877)"/><use xlink:href="#e" transform="matrix(10.9091 0 0 -10.9091 43.25 14.942)"/><use xlink:href="#f" transform="matrix(10.9091 0 0 -10.9091 49.664 14.877)"/><use xlink:href="#g" transform="matrix(10.9091 0 0 -10.9091 60.737 14.942)"/><use xlink:href="#e" transform="matrix(10.9091 0 0 -10.9091 66.246 14.942)"/><use xlink:href="#f" transform="matrix(10.9091 0 0 -10.9091 72.66 14.877)"/><use xlink:href="#c" transform="matrix(10.9091 0 0 -10.9091 79.031 14.942)"/><use xlink:href="#h" transform="matrix(10.9091 0 0 -10.9091 84.028 14.942)"/><use xlink:href="#i" transform="matrix(10.9091 0 0 -10.9091 89.668 14.877)"/><use xlink:href="#c" transform="matrix(10.9091 0 0 -10.9091 96.268 14.942)"/><path stroke-width=".398" stroke-miterlimit="10" fill="none" stroke="#000" d="M229.8 18.942V5.393"/><path d="M229.999 18.942h111.168V5.393H229.999z" fill="#f0f0f0"/><symbol id="j"><path d="M.37 0v.047H.256v.592H.37v.047C.329.683.231.683.185.683c-.046 0-.144 0-.185.003V.639h.114V.047H0V0c.041.003.139.003.185.003C.231.003.329.003.37 0z"/></symbol><use xlink:href="#j" transform="matrix(10.9091 0 0 -10.9091 236.336 14.877)"/><use xlink:href="#f" transform="matrix(10.9091 0 0 -10.9091 241.223 14.877)"/><use xlink:href="#c" transform="matrix(10.9091 0 0 -10.9091 247.583 14.942)"/><use xlink:href="#h" transform="matrix(10.9091 0 0 -10.9091 252.58 14.942)"/><use xlink:href="#f" transform="matrix(10.9091 0 0 -10.9091 258.47 14.877)"/><use xlink:href="#c" transform="matrix(10.9091 0 0 -10.9091 264.83 14.942)"/><path stroke-width=".398" stroke-miterlimit="10" fill="none" stroke="#000" d="M341.366 18.942V5.393"/><path d="M341.565 18.942h122.66V5.393h-122.66z" fill="#f0f0f0"/><symbol id="k"><path d="M.377.146c0 .043-.02.078-.055.106C.283.281.251.287.173.3.136.307.071.318.071.365c0 .062.093.062.112.062.075 0 .113-.029.118-.084.001-.015.002-.02.023-.02.024 0 .024.005.024.028v.08c0 .019 0 .028-.018.028-.004 0-.006 0-.045-.019a.23.23 0 0 1-.101.019C.154.459 0 .459 0 .328 0 .288.02.261.04.244.08.209.118.203.195.189.231.183.306.17.306.111.306.036.214.036.192.036.086.036.06.109.048.152.043.166.038.166.024.166 0 .166 0 .16 0 .137V.028C0 .009 0 0 .018 0c.007 0 .009 0 .03.015l.026.017C.12 0 .172 0 .192 0c.031 0 .185 0 .185.146z"/></symbol><symbol id="l"><path d="M.89 0v.047H.821v.259C.821.409.77.45.667.45A.186.186 0 0 1 .498.354C.478.447.386.45.348.45A.187.187 0 0 1 .172.342V.45L0 .442V.395c.062 0 .069 0 .069-.039V.047H0V0l.126.003L.252 0v.047H.183v.209c0 .109.087.158.149.158.034 0 .056-.02.056-.097v-.27H.319V0l.126.003L.571 0v.047H.502v.209c0 .109.087.158.149.158.034 0 .056-.02.056-.097v-.27H.638V0l.126.003L.89 0z"/></symbol><symbol id="m"><path d="M.563.417C.563.55.472.644.328.644A.25.25 0 0 1 .177.595v.049L0 .636V.589c.062 0 .069 0 .069-.038V.047H0V0l.126.003L.252 0v.047H.183v.186A.195.195 0 0 1 .311.188c.15 0 .252.09.252.229m-.128 0C.435.276.365.224.3.224c-.014 0-.061 0-.106.054C.183.291.183.292.183.311v.212c0 .019.001.02.015.034.04.041.092.047.114.047.067 0 .123-.061.123-.187z"/></symbol><symbol id="n"><path d="M.305 0v.097H0V0h.305z"/></symbol><symbol id="o"><path d="M.405.368C.405.421.351.45.299.45.229.45.189.4.166.337V.45L0 .442V.395c.062 0 .069 0 .069-.039V.047H0V0l.126.003C.164.003.228.003.264 0v.047H.177v.175c0 .07.025.192.125.192 0 0-.019-.017-.019-.046 0-.041.032-.061.061-.061a.06.06 0 0 1 .061.061z"/></symbol><symbol id="p"><path d="M.554.401v.047A1.043 1.043 0 0 0 .475.445L.384.448V.401C.403.401.432.398.432.39L.427.378.311.128.184.401h.054v.047L.114.445 0 .448V.401h.064L.239.025C.251 0 .264 0 .277 0c.017 0 .027.003.037.024L.48.38c.006.014.01.021.074.021z"/></symbol><symbol id="q"><path d="M.246 0v.047H.177v.647L0 .686V.639C.062.639.069.639.069.6V.047H0V0l.123.003L.246 0z"/></symbol><symbol id="r"><path d="M.526.598a.059.059 0 0 1-.063.058.175.175 0 0 1-.106-.038.24.24 0 0 1-.134.033C.079.651.024.573.024.503c0-.041.02-.082.052-.105A.143.143 0 0 1 .042.309c0-.015.004-.064.044-.096C.073.21 0 .189 0 .126 0 .075.055 0 .255 0 .432 0 .51.059.51.129c0 .03-.008.093-.075.127C.379.284.319.284.223.284L.146.285a.064.064 0 0 0-.055.063c0 .01.004.025.01.033A.269.269 0 0 1 .223.355c.144 0 .199.078.199.148 0 .047-.025.08-.04.096a.15.15 0 0 0 .062.019.065.065 0 0 1-.004-.02.04.04 0 0 1 .043-.043c.026 0 .043.019.043.043M.311.503c0-.045 0-.112-.088-.112S.135.458.135.503s0 .112.088.112S.311.548.311.503M.424.126C.424.09.385.036.255.036c-.12 0-.169.046-.169.092 0 .06.063.06.077.06H.28c.031 0 .144 0 .144-.062z"/></symbol><symbol id="s"><path d="M.414.571C.414.7.236.7.199.7.06.7 0 .637 0 .573 0 .525.037.509.062.509c.032 0 .063.022.063.063 0 .047-.043.06-.045.061a.197.197 0 0 0 .113.031C.285.664.286.625.286.578c0-.044-.008-.06-.028-.08a.307.307 0 0 1-.09-.207V.253c0-.022 0-.027.023-.027.024 0 .024.006.024.03v.027c0 .103.093.164.131.186.02.012.068.039.068.102M.269.078a.078.078 0 1 1-.156 0 .078.078 0 0 1 .156 0z"/></symbol><use xlink:href="#j" transform="matrix(10.9091 0 0 -10.9091 347.903 14.877)"/><use xlink:href="#k" transform="matrix(10.9091 0 0 -10.9091 352.714 14.942)"/><use xlink:href="#b" transform="matrix(10.9091 0 0 -10.9091 361.943 14.877)"/><use xlink:href="#l" transform="matrix(10.9091 0 0 -10.9091 365.401 14.877)"/><use xlink:href="#m" transform="matrix(10.9091 0 0 -10.9091 375.765 16.993)"/><use xlink:href="#d" transform="matrix(10.9091 0 0 -10.9091 382.627 14.942)"/><use xlink:href="#g" transform="matrix(10.9091 0 0 -10.9091 388.845 14.942)"/><use xlink:href="#c" transform="matrix(10.9091 0 0 -10.9091 394.234 14.942)"/><use xlink:href="#n" transform="matrix(10.9091 0 0 -10.9091 399.023 12.979)"/><use xlink:href="#o" transform="matrix(10.9091 0 0 -10.9091 403.463 14.877)"/><use xlink:href="#h" transform="matrix(10.9091 0 0 -10.9091 408.58 14.942)"/><use xlink:href="#p" transform="matrix(10.9091 0 0 -10.9091 414.263 14.92)"/><use xlink:href="#h" transform="matrix(10.9091 0 0 -10.9091 420.601 14.942)"/><use xlink:href="#d" transform="matrix(10.9091 0 0 -10.9091 426.296 14.942)"/><use xlink:href="#q" transform="matrix(10.9091 0 0 -10.9091 432.612 14.877)"/><use xlink:href="#b" transform="matrix(10.9091 0 0 -10.9091 436.092 14.877)"/><use xlink:href="#f" transform="matrix(10.9091 0 0 -10.9091 439.55 14.877)"/><use xlink:href="#r" transform="matrix(10.9091 0 0 -10.9091 446.38 17.07)"/><use xlink:href="#s" transform="matrix(10.9091 0 0 -10.9091 453.001 14.877)"/><path stroke-width=".398" stroke-miterlimit="10" fill="none" stroke="#000" d="M464.424 18.942V5.393M4.648 19.141h459.975M4.847 100.635V19.34"/><symbol id="t"><path d="M.683.652v.031L.566.68.449.683V.652C.552.652.552.605.552.578V.151L.199.67C.19.682.189.683.17.683H0V.652h.029A.836.836 0 0 0 .079.65C.102.647.103.646.103.627V.105c0-.027 0-.074-.103-.074V0l.117.003L.234 0v.031C.131.031.131.078.131.105v.52l.01-.012.408-.6C.558.001.559 0 .566 0 .58 0 .58.007.58.026v.552c0 .027 0 .074.103.074z"/></symbol><symbol id="u"><path d="M.443.225c0 .128-.1.234-.221.234C.097.459 0 .35 0 .225 0 .096.104 0 .221 0c.121 0 .222.098.222.225M.36.233c0-.036 0-.09-.022-.134a.129.129 0 0 0-.23-.007C.083.136.083.197.083.233c0 .039 0 .093.024.137a.134.134 0 0 0 .114.067.131.131 0 0 0 .113-.065C.36.329.36.271.36.233z"/></symbol><symbol id="v"><path d="M.313.135v.057H.288V.137C.288.063.258.025.221.025.154.025.154.116.154.133v.278h.143v.031H.154v.184H.129C.128.544.098.437 0 .433V.411h.085V.135C.085.012.178 0 .214 0c.071 0 .099.071.099.135z"/></symbol><symbol id="w"><path d="M.387.13c0 .01-.008.012-.013.012C.365.142.363.136.361.128.326.025.236.025.226.025c-.05 0-.09.03-.113.067-.03.048-.03.114-.03.15h.279c.022 0 .025 0 .025.021 0 .099-.054.196-.179.196C.092.459 0 .356 0 .231 0 .097.105 0 .22 0a.17.17 0 0 1 .167.13M.321.263H.084c.006.149.09.174.124.174.103 0 .113-.135.113-.174z"/></symbol><symbol id="x"><path d="M.503 0v.031c-.052 0-.077 0-.078.03v.191c0 .086 0 .117-.031.153C.38.422.347.442.289.442A.157.157 0 0 1 .145.346H.144v.348L0 .683V.652C.07.652.078.645.078.596v-.52C.078.031.067.031 0 .031V0l.113.003L.225 0v.031c-.067 0-.078 0-.078.045V.26c0 .104.071.16.135.16C.345.42.356.366.356.309V.076C.356.031.345.031.278.031V0l.113.003L.503 0z"/></symbol><symbol id="y"><path d="M.451.1v.056H.426V.1C.426.042.401.036.39.036c-.033 0-.037.045-.037.05v.2c0 .042 0 .081-.036.118A.191.191 0 0 1 .18.459C.098.459.029.412.029.346c0-.03.02-.047.046-.047.028 0 .046.02.046.046C.121.357.116.39.07.391c.027.035.076.046.108.046.049 0 .106-.039.106-.128V.272C.233.269.163.266.1.236.025.202 0 .15 0 .106 0 .025.097 0 .16 0c.066 0 .112.04.131.087C.295.047.322.005.369.005.39.005.451.019.451.1M.284.151C.284.056.212.022.167.022c-.049 0-.09.035-.09.085 0 .055.042.138.207.144v-.1z"/></symbol><symbol id="z"><path d="M.842 0v.031H.818C.741.031.739.042.739.078v.527c0 .036.002.047.079.047h.024v.031H.673C.647.683.647.682.64.664L.421.101l-.217.56C.195.683.192.683.169.683H0V.652h.024C.101.652.103.641.103.605v-.5c0-.027 0-.074-.103-.074V0l.117.003L.234 0v.031C.131.031.131.078.131.105v.539h.001L.373.022C.378.009.383 0 .393 0c.011 0 .014.008.018.019l.246.633h.001V.078C.658.042.656.031.579.031H.555V0C.592.003.66.003.699.003.738.003.805.003.842 0z"/></symbol><symbol id="A"><path d="M.336.381c0 .032-.031.061-.074.061C.189.442.153.375.139.332v.11L0 .431V.4C.07.4.078.393.078.344V.076C.078.031.067.031 0 .031V0l.114.003c.04 0 .087 0 .127-.003v.031H.22C.146.031.144.042.144.078v.154c0 .099.042.188.118.188L.273.419A.043.043 0 0 1 .25.38C.25.352.271.337.293.337c.018 0 .043.012.043.044z"/></symbol><symbol id="B"><path d="M.214 0v.031c-.066 0-.07.005-.07.044v.367L.004.431V.4C.069.4.078.394.078.345V.076C.078.031.067.031 0 .031V0l.11.003C.145.003.18.001.214 0M.159.604a.053.053 0 0 1-.107 0 .053.053 0 0 1 .107 0z"/></symbol><symbol id="C"><path d="M.327.139c0 .053-.03.083-.042.095C.252.266.213.274.171.282.115.293.048.306.048.364.048.399.074.44.16.44.27.44.275.35.277.319.278.31.289.31.289.31c.013 0 .013.005.013.024v.101c0 .017 0 .024-.011.024-.005 0-.007 0-.02-.012A.129.129 0 0 0 .254.431C.216.459.175.459.16.459.038.459 0 .392 0 .336 0 .301.016.273.043.251.075.225.103.219.175.205.197.201.279.185.279.113.279.062.244.022.166.022c-.084 0-.12.057-.139.142C.024.177.023.181.013.181 0 .181 0 .174 0 .156V.024C0 .007 0 0 .011 0c.005 0 .006.001.025.02.002.002.002.004.02.023A.15.15 0 0 1 .166 0c.115 0 .161.067.161.139z"/></symbol><symbol id="D"><path d="M.222 0v.031c-.067 0-.078 0-.078.045v.618L0 .683V.652C.07.652.078.645.078.596v-.52C.078.031.067.031 0 .031V0l.111.003L.222 0z"/></symbol><symbol id="E"><path d="M.106.053a.053.053 0 0 1-.053.053A.053.053 0 0 1 0 .053C0 .024.024 0 .053 0c.029 0 .053.024.053.053z"/></symbol><symbol id="F"><path d="M.232.01c0 .003 0 .005-.017.022C.09.158.058.347.058.5c0 .174.038.348.161.473.013.012.013.014.013.017 0 .007-.004.01-.01.01-.01 0-.1-.068-.159-.195A.727.727 0 0 1 0 .5C0 .422.011.301.066.188A.432.432 0 0 1 .222 0c.006 0 .01.003.01.01z"/></symbol><symbol id="G"><path d="M.399.174H.374C.369.144.362.1.352.085.345.077.279.077.257.077h-.18L.183.18c.156.138.216.192.216.292 0 .114-.09.194-.212.194A.185.185 0 0 1 0 .485C0 .429.05.429.053.429c.017 0 .052.012.052.053a.05.05 0 0 1-.053.052L.039.533a.144.144 0 0 0 .135.102C.265.635.308.554.308.472c0-.08-.05-.159-.105-.221L.011.037C0 .026 0 .024 0 0h.371l.028.174z"/></symbol><symbol id="H"><path d="M.421.342c0 .08-.005.16-.04.234A.185.185 0 0 1 .037.569.535.535 0 0 1 0 .342C0 .267.004.177.045.101A.183.183 0 0 1 .21 0c.054 0 .13.021.174.116a.533.533 0 0 1 .037.226M.338.354c0-.075 0-.143-.011-.207C.312.052.255.022.21.022.171.022.112.047.094.143.083.203.083.295.083.354c0 .064 0 .13.008.184C.11.657.185.666.21.666.243.666.309.648.328.549c.01-.056.01-.132.01-.195z"/></symbol><symbol id="I"><path d="M.232.5a.729.729 0 0 1-.066.312A.432.432 0 0 1 .01 1C.004 1 0 .996 0 .99 0 .987 0 .985.019.967.117.868.174.709.174.5.174.329.137.153.013.027 0 .015 0 .013 0 .01 0 .004.004 0 .01 0c.01 0 .1.068.159.195C.22.305.232.416.232.5z"/></symbol><symbol id="J"><path d="M.106.571a.053.053 0 0 1-.053.053A.053.053 0 0 1 0 .571C0 .542.024.518.053.518c.029 0 .053.024.053.053M.109.196c0 .029-.002.103-.056.103C.018.299 0 .272 0 .246S.017.193.053.193l.008.001a.05.05 0 0 1 .026.01c0-.028 0-.106-.064-.18C.016.016.016.014.016.011.016.004.021 0 .026 0c.011 0 .083.08.083.196z"/></symbol><symbol id="K"><path d="M.504.267H.479C.471.128.452.034.267.034H.103l.388.614C.498.659.498.66.498.667c0 .016-.006.016-.026.016H.024L.013.458h.025c.007.113.037.194.201.194h.157L.007.037C0 .026 0 .025 0 .017 0 0 .005 0 .026 0h.461l.017.267z"/></symbol><symbol id="L"><path d="M.503 0v.031c-.052 0-.077 0-.078.03v.191c0 .086 0 .117-.031.153C.38.422.347.442.289.442.216.442.169.399.141.337v.105L0 .431V.4C.07.4.078.393.078.344V.076C.078.031.067.031 0 .031V0l.113.003L.225 0v.031c-.067 0-.078 0-.078.045V.26c0 .104.071.16.135.16C.345.42.356.366.356.309V.076C.356.031.345.031.278.031V0l.113.003L.503 0z"/></symbol><symbol id="M"><path d="M.457.61a.049.049 0 0 1-.051.049A.154.154 0 0 1 .3.612a.167.167 0 0 1-.106.036C.101.648.032.579.032.502.032.458.054.42.079.399A.138.138 0 0 1 .048.316c0-.031.013-.069.044-.089C.032.21 0 .167 0 .127 0 .055.099 0 .221 0c.118 0 .222.051.222.129a.128.128 0 0 1-.065.114C.325.271.267.271.206.271L.131.272C.099.276.078.307.078.339c0 .004 0 .027.017.047A.17.17 0 0 1 .194.355c.093 0 .162.069.162.146a.135.135 0 0 1-.041.097.131.131 0 0 0 .09.039l.01-.001C.404.632.399.621.399.609.399.592.412.58.428.58c.01 0 .029.007.029.03M.281.502A.164.164 0 0 0 .265.418a.086.086 0 0 0-.071-.04c-.087 0-.087.1-.087.123 0 .027.001.059.016.084.008.012.031.04.071.04.087 0 .087-.1.087-.123m.11-.375C.391.073.32.023.222.023c-.101 0-.17.051-.17.104 0 .046.038.083.082.086h.059c.086 0 .198 0 .198-.086z"/></symbol><symbol id="N"><path d="M.33 0v.031H.298c-.09 0-.093.011-.093.048V.64c0 .024 0 .026-.023.026C.12.602.032.602 0 .602V.571a.3.3 0 0 1 .131.026V.079C.131.043.128.031.038.031H.006V0c.035.003.122.003.162.003.04 0 .127 0 .162-.003z"/></symbol><symbol id="O"><path d="M.493.41c0 .127-.097.226-.209.226A.18.18 0 0 1 .144.57v.066L0 .625V.594c.071 0 .078-.006.078-.05V.076C.078.031.067.031 0 .031V0l.112.003L.225 0v.031c-.067 0-.078 0-.078.045V.253C.152.237.194.183.27.183c.119 0 .223.098.223.227M.41.41C.41.289.34.205.266.205c-.04 0-.078.02-.105.061C.147.287.147.288.147.308v.223a.15.15 0 0 0 .129.08C.349.611.41.523.41.41z"/></symbol><symbol id="P"><path d="M.781 0v.031c-.052 0-.077 0-.078.03v.191c0 .086 0 .117-.031.153C.658.422.625.442.567.442A.158.158 0 0 1 .422.344C.408.431.334.442.289.442.216.442.169.399.141.337v.105L0 .431V.4C.07.4.078.393.078.344V.076C.078.031.067.031 0 .031V0l.113.003L.225 0v.031c-.067 0-.078 0-.078.045V.26c0 .104.071.16.135.16C.345.42.356.366.356.309V.076C.356.031.345.031.278.031V0l.113.003L.503 0v.031c-.067 0-.078 0-.078.045V.26c0 .104.071.16.135.16C.623.42.634.366.634.309V.076C.634.031.623.031.556.031V0l.113.003L.781 0z"/></symbol><symbol id="Q"><path d="M.503.011v.031c-.07 0-.078.007-.078.056v.355L.278.442V.411c.07 0 .078-.007.078-.056V.177C.356.09.308.022.235.022.151.022.147.069.147.121v.332L0 .442V.411C.078.411.078.408.078.319v-.15C.078.091.078 0 .23 0c.056 0 .1.028.129.09V0l.144.011z"/></symbol><symbol id="R"><path d="M.493.227c0 .127-.098.226-.212.226A.178.178 0 0 1 .144.388v.317L0 .694V.663C.07.663.078.656.078.607V.011h.025l.036.062A.157.157 0 0 1 .27 0c.119 0 .223.098.223.227M.41.228A.268.268 0 0 0 .379.086.137.137 0 0 0 .266.022a.124.124 0 0 0-.105.061C.147.104.147.107.147.125v.206c0 .019 0 .02.011.036a.144.144 0 0 0 .118.064C.321.431.357.405.381.367A.269.269 0 0 0 .41.228z"/></symbol><use xlink:href="#t" transform="matrix(11.12728 0 0 -10.9091 11.391 28.824)"/><use xlink:href="#u" transform="matrix(11.12728 0 0 -10.9091 19.681 28.944)"/><use xlink:href="#v" transform="matrix(11.12728 0 0 -10.9091 25.145 28.944)"/><use xlink:href="#w" transform="matrix(11.12728 0 0 -10.9091 29.573 28.944)"/><use xlink:href="#v" transform="matrix(11.12728 0 0 -10.9091 39.755 28.944)"/><use xlink:href="#x" transform="matrix(11.12728 0 0 -10.9091 44.228 28.824)"/><use xlink:href="#y" transform="matrix(11.12728 0 0 -10.9091 50.415 28.944)"/><use xlink:href="#v" transform="matrix(11.12728 0 0 -10.9091 55.834 28.944)"/><use xlink:href="#z" transform="matrix(11.12728 0 0 -10.9091 65.692 28.824)"/><use xlink:href="#u" transform="matrix(11.12728 0 0 -10.9091 75.796 28.944)"/><use xlink:href="#A" transform="matrix(11.12728 0 0 -10.9091 81.36 28.824)"/><use xlink:href="#A" transform="matrix(11.12728 0 0 -10.9091 85.721 28.824)"/><use xlink:href="#B" transform="matrix(11.12728 0 0 -10.9091 90.139 28.824)"/><use xlink:href="#C" transform="matrix(11.12728 0 0 -10.9091 93.232 28.944)"/><use xlink:href="#w" transform="matrix(11.12728 0 0 -10.9091 102.89 28.944)"/><use xlink:href="#v" transform="matrix(11.12728 0 0 -10.9091 107.742 28.944)"/><use xlink:href="#y" transform="matrix(11.12728 0 0 -10.9091 117.545 28.944)"/><use xlink:href="#D" transform="matrix(11.12728 0 0 -10.9091 123.12 28.824)"/><use xlink:href="#E" transform="matrix(11.12728 0 0 -10.9091 126.803 28.824)"/><use xlink:href="#F" transform="matrix(11.12728 0 0 -10.9091 139.978 31.551)"/><use xlink:href="#G" transform="matrix(11.12728 0 0 -10.9091 143.761 28.824)"/><use xlink:href="#H" transform="matrix(11.12728 0 0 -10.9091 149.203 29.064)"/><use xlink:href="#G" transform="matrix(11.12728 0 0 -10.9091 154.889 28.824)"/><use xlink:href="#H" transform="matrix(11.12728 0 0 -10.9091 160.33 29.064)"/><use xlink:href="#I" transform="matrix(11.12728 0 0 -10.9091 166.094 31.551)"/><use xlink:href="#J" transform="matrix(11.12728 0 0 -10.9091 170.745 30.93)"/><use xlink:href="#K" transform="matrix(11.12728 0 0 -10.9091 179.68 28.824)"/><use xlink:href="#x" transform="matrix(11.12728 0 0 -10.9091 186.212 28.824)"/><use xlink:href="#y" transform="matrix(11.12728 0 0 -10.9091 192.399 28.944)"/><use xlink:href="#L" transform="matrix(11.12728 0 0 -10.9091 197.962 28.824)"/><use xlink:href="#M" transform="matrix(11.12728 0 0 -10.9091 204.105 31.071)"/><use xlink:href="#w" transform="matrix(11.12728 0 0 -10.9091 215.01 28.944)"/><use xlink:href="#v" transform="matrix(11.12728 0 0 -10.9091 219.85 28.944)"/><use xlink:href="#y" transform="matrix(11.12728 0 0 -10.9091 11.38 42.494)"/><use xlink:href="#D" transform="matrix(11.12728 0 0 -10.9091 16.955 42.374)"/><use xlink:href="#E" transform="matrix(11.12728 0 0 -10.9091 20.638 42.374)"/><use xlink:href="#F" transform="matrix(11.12728 0 0 -10.9091 30.62 45.101)"/><use xlink:href="#G" transform="matrix(11.12728 0 0 -10.9091 34.402 42.374)"/><use xlink:href="#H" transform="matrix(11.12728 0 0 -10.9091 39.844 42.614)"/><use xlink:href="#G" transform="matrix(11.12728 0 0 -10.9091 45.53 42.374)"/><use xlink:href="#N" transform="matrix(11.12728 0 0 -10.9091 51.527 42.374)"/><use xlink:href="#I" transform="matrix(11.12728 0 0 -10.9091 56.735 45.101)"/><use xlink:href="#O" transform="matrix(11.12728 0 0 -10.9091 65.014 44.49)"/><use xlink:href="#A" transform="matrix(11.12728 0 0 -10.9091 71.2 42.374)"/><use xlink:href="#u" transform="matrix(11.12728 0 0 -10.9091 75.562 42.494)"/><use xlink:href="#O" transform="matrix(11.12728 0 0 -10.9091 81.126 44.49)"/><use xlink:href="#u" transform="matrix(11.12728 0 0 -10.9091 87.613 42.494)"/><use xlink:href="#C" transform="matrix(11.12728 0 0 -10.9091 93.232 42.494)"/><use xlink:href="#w" transform="matrix(11.12728 0 0 -10.9091 97.56 42.494)"/><use xlink:href="#y" transform="matrix(11.12728 0 0 -10.9091 106.83 42.494)"/><use xlink:href="#D" transform="matrix(11.12728 0 0 -10.9091 112.405 42.374)"/><use xlink:href="#M" transform="matrix(11.12728 0 0 -10.9091 115.442 44.621)"/><use xlink:href="#u" transform="matrix(11.12728 0 0 -10.9091 121.006 42.494)"/><use xlink:href="#A" transform="matrix(11.12728 0 0 -10.9091 126.57 42.374)"/><use xlink:href="#B" transform="matrix(11.12728 0 0 -10.9091 130.987 42.374)"/><use xlink:href="#v" transform="matrix(11.12728 0 0 -10.9091 133.914 42.494)"/><use xlink:href="#x" transform="matrix(11.12728 0 0 -10.9091 138.387 42.374)"/><use xlink:href="#P" transform="matrix(11.12728 0 0 -10.9091 144.585 42.374)"/><use xlink:href="#C" transform="matrix(11.12728 0 0 -10.9091 153.865 42.494)"/><use xlink:href="#v" transform="matrix(11.12728 0 0 -10.9091 162.355 42.494)"/><use xlink:href="#x" transform="matrix(11.12728 0 0 -10.9091 166.828 42.374)"/><use xlink:href="#y" transform="matrix(11.12728 0 0 -10.9091 173.015 42.494)"/><use xlink:href="#v" transform="matrix(11.12728 0 0 -10.9091 178.434 42.494)"/><use xlink:href="#O" transform="matrix(11.12728 0 0 -10.9091 187.136 44.49)"/><use xlink:href="#w" transform="matrix(11.12728 0 0 -10.9091 193.623 42.494)"/><use xlink:href="#A" transform="matrix(11.12728 0 0 -10.9091 198.574 42.374)"/><use xlink:href="#v" transform="matrix(11.12728 0 0 -10.9091 202.836 42.494)"/><use xlink:href="#Q" transform="matrix(11.12728 0 0 -10.9091 207.31 42.494)"/><use xlink:href="#A" transform="matrix(11.12728 0 0 -10.9091 213.452 42.374)"/><use xlink:href="#R" transform="matrix(11.12728 0 0 -10.9091 217.813 42.494)"/><symbol id="S"><path d="M.504 0v.031C.45.031.432.033.409.062L.275.235c.03.038.068.087.092.113A.153.153 0 0 0 .486.4v.031a1.123 1.123 0 0 0-.178 0V.4C.329.398.337.385.337.369A.057.057 0 0 0 .322.334L.26.256.182.357C.173.367.173.369.173.375.173.39.188.399.208.4v.031L.1.428a1.66 1.66 0 0 0-.095.003V.4C.075.4.076.399.123.339L.222.21C.175.15.175.148.128.091A.16.16 0 0 0 0 .031V0c.026.002.057.003.083.003L.178 0v.031C.156.034.149.047.149.062c0 .022.029.055.09.127l.076-.1C.323.078.336.062.336.056.336.047.327.032.3.031V0l.108.003C.435.003.474.002.504 0z"/></symbol><symbol id="T"><path d="M.493.011v.031c-.07 0-.078.007-.078.056v.607L.271.694V.663c.07 0 .078-.007.078-.056V.391a.16.16 0 0 1-.126.062A.226.226 0 0 1 0 .226C0 .099.098 0 .212 0c.064 0 .109.034.134.066V0l.147.011M.346.129c0-.018 0-.02-.011-.037a.14.14 0 0 0-.118-.07C.172.022.136.048.112.086a.269.269 0 0 0-.029.139c0 .037.002.097.031.142a.137.137 0 0 0 .113.064.13.13 0 0 0 .108-.06C.346.354.346.352.346.334V.129z"/></symbol><symbol id="U"><path d="M.381.13c0 .01-.01.01-.013.01C.359.14.357.136.355.13.326.037.261.025.224.025.171.025.083.068.083.229c0 .163.082.205.135.205C.227.434.29.433.325.397.284.394.278.364.278.351c0-.026.018-.046.046-.046C.35.305.37.322.37.352.37.42.294.459.217.459.092.459 0 .351 0 .227 0 .099.099 0 .215 0c.134 0 .166.12.166.13z"/></symbol><symbol id="V"><path d="M.265 0v.058H0V0h.265z"/></symbol><use xlink:href="#v" transform="matrix(11.0291 0 0 -10.9091 11.234 56.043)"/><use xlink:href="#w" transform="matrix(11.0291 0 0 -10.9091 15.623 56.043)"/><use xlink:href="#S" transform="matrix(11.0291 0 0 -10.9091 20.355 55.923)"/><use xlink:href="#v" transform="matrix(11.0291 0 0 -10.9091 26.255 56.043)"/><use xlink:href="#B" transform="matrix(11.0291 0 0 -10.9091 34.317 55.923)"/><use xlink:href="#L" transform="matrix(11.0291 0 0 -10.9091 37.372 55.923)"/><use xlink:href="#O" transform="matrix(11.0291 0 0 -10.9091 43.472 58.04)"/><use xlink:href="#Q" transform="matrix(11.0291 0 0 -10.9091 49.648 56.043)"/><use xlink:href="#v" transform="matrix(11.0291 0 0 -10.9091 55.637 56.043)"/><use xlink:href="#C" transform="matrix(11.0291 0 0 -10.9091 60.081 56.043)"/><use xlink:href="#v" transform="matrix(11.0291 0 0 -10.9091 67.89 56.043)"/><use xlink:href="#u" transform="matrix(11.0291 0 0 -10.9091 72.28 56.043)"/><use xlink:href="#v" transform="matrix(11.0291 0 0 -10.9091 81.323 56.043)"/><use xlink:href="#w" transform="matrix(11.0291 0 0 -10.9091 85.713 56.043)"/><use xlink:href="#C" transform="matrix(11.0291 0 0 -10.9091 90.676 56.043)"/><use xlink:href="#v" transform="matrix(11.0291 0 0 -10.9091 94.867 56.043)"/><use xlink:href="#P" transform="matrix(11.0291 0 0 -10.9091 102.918 55.923)"/><use xlink:href="#u" transform="matrix(11.0291 0 0 -10.9091 112.062 56.043)"/><use xlink:href="#T" transform="matrix(11.0291 0 0 -10.9091 117.951 56.043)"/><use xlink:href="#w" transform="matrix(11.0291 0 0 -10.9091 124.017 56.043)"/><use xlink:href="#D" transform="matrix(11.0291 0 0 -10.9091 128.98 55.923)"/><use xlink:href="#A" transform="matrix(11.0291 0 0 -10.9091 135.609 55.923)"/><use xlink:href="#u" transform="matrix(11.0291 0 0 -10.9091 139.932 56.043)"/><use xlink:href="#R" transform="matrix(11.0291 0 0 -10.9091 145.447 56.043)"/><use xlink:href="#Q" transform="matrix(11.0291 0 0 -10.9091 151.623 56.043)"/><use xlink:href="#C" transform="matrix(11.0291 0 0 -10.9091 157.766 56.043)"/><use xlink:href="#v" transform="matrix(11.0291 0 0 -10.9091 161.957 56.043)"/><use xlink:href="#L" transform="matrix(11.0291 0 0 -10.9091 166.39 55.923)"/><use xlink:href="#w" transform="matrix(11.0291 0 0 -10.9091 172.479 56.043)"/><use xlink:href="#C" transform="matrix(11.0291 0 0 -10.9091 177.442 56.043)"/><use xlink:href="#C" transform="matrix(11.0291 0 0 -10.9091 181.787 56.043)"/><use xlink:href="#J" transform="matrix(11.0291 0 0 -10.9091 186.717 58.028)"/><use xlink:href="#B" transform="matrix(11.0291 0 0 -10.9091 192.828 55.923)"/><use xlink:href="#L" transform="matrix(11.0291 0 0 -10.9091 195.883 55.923)"/><use xlink:href="#U" transform="matrix(11.0291 0 0 -10.9091 205.665 56.043)"/><use xlink:href="#u" transform="matrix(11.0291 0 0 -10.9091 210.507 56.043)"/><use xlink:href="#L" transform="matrix(11.0291 0 0 -10.9091 216.066 55.923)"/><use xlink:href="#V" transform="matrix(11.0291 0 0 -10.9091 221.966 53.883)"/><symbol id="W"><path d="M.117.194c0 .064-.024.105-.064.105C.018.299 0 .272 0 .246S.017.193.053.193a.06.06 0 0 1 .04.016.254.254 0 0 0-.07-.187C.017.016.016.015.016.011.016.004.021 0 .026 0c.012 0 .091.079.091.194z"/></symbol><use xlink:href="#v" transform="matrix(10.69092 0 0 -10.9091 11.227 69.592)"/><use xlink:href="#A" transform="matrix(10.69092 0 0 -10.9091 15.482 69.472)"/><use xlink:href="#y" transform="matrix(10.69092 0 0 -10.9091 19.716 69.592)"/><use xlink:href="#C" transform="matrix(10.69092 0 0 -10.9091 25.072 69.592)"/><use xlink:href="#v" transform="matrix(10.69092 0 0 -10.9091 29.134 69.592)"/><use xlink:href="#W" transform="matrix(10.69092 0 0 -10.9091 34.01 71.577)"/><use xlink:href="#u" transform="matrix(10.69092 0 0 -10.9091 39.205 69.592)"/><use xlink:href="#Q" transform="matrix(10.69092 0 0 -10.9091 44.593 69.592)"/><use xlink:href="#A" transform="matrix(10.69092 0 0 -10.9091 50.495 69.472)"/><use xlink:href="#U" transform="matrix(10.69092 0 0 -10.9091 57.39 69.592)"/><use xlink:href="#u" transform="matrix(10.69092 0 0 -10.9091 62.084 69.592)"/><use xlink:href="#L" transform="matrix(10.69092 0 0 -10.9091 67.472 69.472)"/><use xlink:href="#v" transform="matrix(10.69092 0 0 -10.9091 72.978 69.592)"/><use xlink:href="#A" transform="matrix(10.69092 0 0 -10.9091 77.233 69.472)"/><use xlink:href="#B" transform="matrix(10.69092 0 0 -10.9091 81.477 69.472)"/><use xlink:href="#R" transform="matrix(10.69092 0 0 -10.9091 84.385 69.592)"/><use xlink:href="#Q" transform="matrix(10.69092 0 0 -10.9091 90.383 69.592)"/><use xlink:href="#v" transform="matrix(10.69092 0 0 -10.9091 96.188 69.592)"/><use xlink:href="#B" transform="matrix(10.69092 0 0 -10.9091 100.496 69.472)"/><use xlink:href="#u" transform="matrix(10.69092 0 0 -10.9091 103.415 69.592)"/><use xlink:href="#L" transform="matrix(10.69092 0 0 -10.9091 108.803 69.472)"/><use xlink:href="#B" transform="matrix(10.69092 0 0 -10.9091 117.399 69.472)"/><use xlink:href="#C" transform="matrix(10.69092 0 0 -10.9091 120.37 69.592)"/><use xlink:href="#y" transform="matrix(10.69092 0 0 -10.9091 127.213 69.592)"/><use xlink:href="#L" transform="matrix(10.69092 0 0 -10.9091 132.558 69.472)"/><use xlink:href="#y" transform="matrix(10.69092 0 0 -10.9091 141.143 69.592)"/><use xlink:href="#Q" transform="matrix(10.69092 0 0 -10.9091 146.489 69.592)"/><use xlink:href="#v" transform="matrix(10.69092 0 0 -10.9091 152.294 69.592)"/><use xlink:href="#u" transform="matrix(10.69092 0 0 -10.9091 156.549 69.592)"/><use xlink:href="#P" transform="matrix(10.69092 0 0 -10.9091 161.937 69.472)"/><use xlink:href="#y" transform="matrix(10.69092 0 0 -10.9091 170.843 69.592)"/><use xlink:href="#v" transform="matrix(10.69092 0 0 -10.9091 176.049 69.592)"/><use xlink:href="#B" transform="matrix(10.69092 0 0 -10.9091 180.357 69.472)"/><use xlink:href="#U" transform="matrix(10.69092 0 0 -10.9091 183.34 69.592)"/><use xlink:href="#T" transform="matrix(10.69092 0 0 -10.9091 190.738 69.592)"/><use xlink:href="#B" transform="matrix(10.69092 0 0 -10.9091 196.672 69.472)"/><use xlink:href="#C" transform="matrix(10.69092 0 0 -10.9091 199.644 69.592)"/><use xlink:href="#v" transform="matrix(10.69092 0 0 -10.9091 203.706 69.592)"/><use xlink:href="#A" transform="matrix(10.69092 0 0 -10.9091 207.961 69.472)"/><use xlink:href="#y" transform="matrix(10.69092 0 0 -10.9091 212.195 69.592)"/><use xlink:href="#U" transform="matrix(10.69092 0 0 -10.9091 217.562 69.592)"/><use xlink:href="#V" transform="matrix(10.69092 0 0 -10.9091 222.073 67.432)"/><use xlink:href="#v" transform="matrix(10.69092 0 0 -10.9091 11.227 83.141)"/><use xlink:href="#u" transform="matrix(10.69092 0 0 -10.9091 15.482 83.141)"/><use xlink:href="#A" transform="matrix(10.69092 0 0 -10.9091 20.828 83.021)"/><use xlink:href="#M" transform="matrix(10.69092 0 0 -10.9091 28.525 85.268)"/><use xlink:href="#w" transform="matrix(10.69092 0 0 -10.9091 33.87 83.141)"/><use xlink:href="#L" transform="matrix(10.69092 0 0 -10.9091 38.67 83.021)"/><use xlink:href="#w" transform="matrix(10.69092 0 0 -10.9091 44.572 83.141)"/><use xlink:href="#A" transform="matrix(10.69092 0 0 -10.9091 49.33 83.021)"/><use xlink:href="#y" transform="matrix(10.69092 0 0 -10.9091 53.563 83.141)"/><use xlink:href="#v" transform="matrix(10.69092 0 0 -10.9091 58.77 83.141)"/><use xlink:href="#B" transform="matrix(10.69092 0 0 -10.9091 63.078 83.021)"/><use xlink:href="#u" transform="matrix(10.69092 0 0 -10.9091 65.997 83.141)"/><use xlink:href="#L" transform="matrix(10.69092 0 0 -10.9091 71.385 83.021)"/><use xlink:href="#y" transform="matrix(10.69092 0 0 -10.9091 80.846 83.141)"/><use xlink:href="#D" transform="matrix(10.69092 0 0 -10.9091 86.203 83.021)"/><use xlink:href="#M" transform="matrix(10.69092 0 0 -10.9091 89.121 85.268)"/><use xlink:href="#u" transform="matrix(10.69092 0 0 -10.9091 94.467 83.141)"/><use xlink:href="#A" transform="matrix(10.69092 0 0 -10.9091 99.812 83.021)"/><use xlink:href="#B" transform="matrix(10.69092 0 0 -10.9091 104.046 83.021)"/><use xlink:href="#v" transform="matrix(10.69092 0 0 -10.9091 106.868 83.141)"/><use xlink:href="#x" transform="matrix(10.69092 0 0 -10.9091 111.166 83.021)"/><use xlink:href="#P" transform="matrix(10.69092 0 0 -10.9091 117.12 83.021)"/><use xlink:href="#T" transform="matrix(10.69092 0 0 -10.9091 129.554 83.141)"/><use xlink:href="#w" transform="matrix(10.69092 0 0 -10.9091 135.434 83.141)"/><use xlink:href="#C" transform="matrix(10.69092 0 0 -10.9091 140.245 83.141)"/><use xlink:href="#B" transform="matrix(10.69092 0 0 -10.9091 144.457 83.021)"/><use xlink:href="#M" transform="matrix(10.69092 0 0 -10.9091 147.376 85.268)"/><use xlink:href="#L" transform="matrix(10.69092 0 0 -10.9091 152.764 83.021)"/><use xlink:href="#w" transform="matrix(10.69092 0 0 -10.9091 158.666 83.141)"/><use xlink:href="#T" transform="matrix(10.69092 0 0 -10.9091 163.487 83.141)"/><use xlink:href="#v" transform="matrix(10.69092 0 0 -10.9091 172.778 83.141)"/><use xlink:href="#u" transform="matrix(10.69092 0 0 -10.9091 177.033 83.141)"/><use xlink:href="#P" transform="matrix(10.69092 0 0 -10.9091 185.927 83.021)"/><use xlink:href="#w" transform="matrix(10.69092 0 0 -10.9091 194.79 83.141)"/><use xlink:href="#y" transform="matrix(10.69092 0 0 -10.9091 199.59 83.141)"/><use xlink:href="#C" transform="matrix(10.69092 0 0 -10.9091 204.947 83.141)"/><use xlink:href="#Q" transform="matrix(10.69092 0 0 -10.9091 209.148 83.141)"/><use xlink:href="#A" transform="matrix(10.69092 0 0 -10.9091 215.06 83.021)"/><use xlink:href="#w" transform="matrix(10.69092 0 0 -10.9091 219.24 83.141)"/><symbol id="X"><path d="M.324.635c0 .037-.037.07-.09.07A.155.155 0 0 1 .079.546V.431H0V.4h.079V.076C.079.031.068.031.001.031V0l.114.003c.04 0 .087 0 .127-.003v.031H.221C.147.031.145.042.145.078V.4h.114v.031H.142v.116c0 .088.048.136.092.136.003 0 .018 0 .033-.007a.044.044 0 0 1-.03-.042C.237.611.253.591.28.591c.029 0 .044.02.044.044z"/></symbol><use xlink:href="#P" transform="matrix(10.9091 0 0 -10.9091 11.373 96.57)"/><use xlink:href="#u" transform="matrix(10.9091 0 0 -10.9091 20.417 96.69)"/><use xlink:href="#T" transform="matrix(10.9091 0 0 -10.9091 26.242 96.69)"/><use xlink:href="#w" transform="matrix(10.9091 0 0 -10.9091 32.242 96.69)"/><use xlink:href="#D" transform="matrix(10.9091 0 0 -10.9091 37.151 96.57)"/><use xlink:href="#T" transform="matrix(10.9091 0 0 -10.9091 43.828 96.69)"/><use xlink:href="#w" transform="matrix(10.9091 0 0 -10.9091 49.828 96.69)"/><use xlink:href="#P" transform="matrix(10.9091 0 0 -10.9091 54.726 96.57)"/><use xlink:href="#u" transform="matrix(10.9091 0 0 -10.9091 63.77 96.69)"/><use xlink:href="#M" transform="matrix(10.9091 0 0 -10.9091 69.224 98.817)"/><use xlink:href="#A" transform="matrix(10.9091 0 0 -10.9091 74.679 96.57)"/><use xlink:href="#y" transform="matrix(10.9091 0 0 -10.9091 78.999 96.69)"/><use xlink:href="#O" transform="matrix(10.9091 0 0 -10.9091 84.41 98.686)"/><use xlink:href="#x" transform="matrix(10.9091 0 0 -10.9091 90.519 96.57)"/><use xlink:href="#B" transform="matrix(10.9091 0 0 -10.9091 96.595 96.57)"/><use xlink:href="#U" transform="matrix(10.9091 0 0 -10.9091 99.639 96.69)"/><use xlink:href="#X" transform="matrix(10.9091 0 0 -10.9091 108.115 96.57)"/><use xlink:href="#y" transform="matrix(10.9091 0 0 -10.9091 111.442 96.69)"/><use xlink:href="#B" transform="matrix(10.9091 0 0 -10.9091 116.908 96.57)"/><use xlink:href="#A" transform="matrix(10.9091 0 0 -10.9091 119.886 96.57)"/><use xlink:href="#L" transform="matrix(10.9091 0 0 -10.9091 124.206 96.57)"/><use xlink:href="#w" transform="matrix(10.9091 0 0 -10.9091 130.228 96.69)"/><use xlink:href="#C" transform="matrix(10.9091 0 0 -10.9091 135.137 96.69)"/><use xlink:href="#C" transform="matrix(10.9091 0 0 -10.9091 139.435 96.69)"/><use xlink:href="#E" transform="matrix(10.9091 0 0 -10.9091 144.322 96.57)"/><path stroke-width=".398" stroke-miterlimit="10" fill="none" stroke="#000" d="M229.8 100.635V19.34"/><symbol id="Y"><path d="M.685.411v.031A.89.89 0 0 0 .612.439L.519.442V.411C.555.41.577.392.577.363c0-.006 0-.008-.005-.021L.481.086.382.365C.378.377.377.379.377.384c0 .027.039.027.059.027v.031L.332.439C.302.439.273.44.243.442V.411C.28.411.296.409.306.396.311.39.322.36.329.341L.243.099.148.366C.143.378.143.38.143.384c0 .027.039.027.059.027v.031L.093.439 0 .442V.411C.05.411.062.408.074.376L.2.022C.205.008.208 0 .221 0c.013 0 .015.006.02.02l.101.283.102-.284C.448.008.451 0 .464 0c.013 0 .016.009.02.019l.117.328C.619.397.65.41.685.411z"/></symbol><use xlink:href="#x" transform="matrix(11.12728 0 0 -10.9091 236.332 28.824)"/><use xlink:href="#B" transform="matrix(11.12728 0 0 -10.9091 242.53 28.824)"/><use xlink:href="#M" transform="matrix(11.12728 0 0 -10.9091 245.568 31.071)"/><use xlink:href="#x" transform="matrix(11.12728 0 0 -10.9091 251.176 28.824)"/><use xlink:href="#D" transform="matrix(11.12728 0 0 -10.9091 257.374 28.824)"/><use xlink:href="#B" transform="matrix(11.12728 0 0 -10.9091 260.467 28.824)"/><use xlink:href="#M" transform="matrix(11.12728 0 0 -10.9091 263.505 31.071)"/><use xlink:href="#x" transform="matrix(11.12728 0 0 -10.9091 269.113 28.824)"/><use xlink:href="#v" transform="matrix(11.12728 0 0 -10.9091 274.855 28.944)"/><use xlink:href="#B" transform="matrix(11.12728 0 0 -10.9091 279.339 28.824)"/><use xlink:href="#L" transform="matrix(11.12728 0 0 -10.9091 282.421 28.824)"/><use xlink:href="#M" transform="matrix(11.12728 0 0 -10.9091 288.563 31.071)"/><use xlink:href="#v" transform="matrix(11.12728 0 0 -10.9091 299.223 28.944)"/><use xlink:href="#x" transform="matrix(11.12728 0 0 -10.9091 303.697 28.824)"/><use xlink:href="#w" transform="matrix(11.12728 0 0 -10.9091 309.839 28.944)"/><use xlink:href="#T" transform="matrix(11.12728 0 0 -10.9091 320.065 28.944)"/><use xlink:href="#B" transform="matrix(11.12728 0 0 -10.9091 326.24 28.824)"/><use xlink:href="#C" transform="matrix(11.12728 0 0 -10.9091 329.334 28.944)"/><use xlink:href="#V" transform="matrix(11.12728 0 0 -10.9091 333.473 26.784)"/><use xlink:href="#v" transform="matrix(11.12728 0 0 -10.9091 236.187 42.494)"/><use xlink:href="#B" transform="matrix(11.12728 0 0 -10.9091 240.672 42.374)"/><use xlink:href="#L" transform="matrix(11.12728 0 0 -10.9091 243.754 42.374)"/><use xlink:href="#U" transform="matrix(11.12728 0 0 -10.9091 249.963 42.494)"/><use xlink:href="#v" transform="matrix(11.12728 0 0 -10.9091 254.748 42.494)"/><use xlink:href="#B" transform="matrix(11.12728 0 0 -10.9091 259.232 42.374)"/><use xlink:href="#u" transform="matrix(11.12728 0 0 -10.9091 262.27 42.494)"/><use xlink:href="#L" transform="matrix(11.12728 0 0 -10.9091 267.878 42.374)"/><use xlink:href="#R" transform="matrix(11.12728 0 0 -10.9091 278.794 42.494)"/><use xlink:href="#w" transform="matrix(11.12728 0 0 -10.9091 285.281 42.494)"/><use xlink:href="#v" transform="matrix(11.12728 0 0 -10.9091 290.132 42.494)"/><use xlink:href="#Y" transform="matrix(11.12728 0 0 -10.9091 294.15 42.494)"/><use xlink:href="#w" transform="matrix(11.12728 0 0 -10.9091 301.983 42.494)"/><use xlink:href="#w" transform="matrix(11.12728 0 0 -10.9091 306.935 42.494)"/><use xlink:href="#L" transform="matrix(11.12728 0 0 -10.9091 311.93 42.374)"/><use xlink:href="#w" transform="matrix(11.12728 0 0 -10.9091 322.847 42.494)"/><use xlink:href="#S" transform="matrix(11.12728 0 0 -10.9091 327.62 42.374)"/><use xlink:href="#V" transform="matrix(11.12728 0 0 -10.9091 333.484 40.334)"/><use xlink:href="#B" transform="matrix(10.69092 0 0 -10.9091 236.329 55.923)"/><use xlink:href="#C" transform="matrix(10.69092 0 0 -10.9091 239.3 56.043)"/><use xlink:href="#v" transform="matrix(10.69092 0 0 -10.9091 243.363 56.043)"/><use xlink:href="#B" transform="matrix(10.69092 0 0 -10.9091 247.672 55.923)"/><use xlink:href="#L" transform="matrix(10.69092 0 0 -10.9091 250.633 55.923)"/><use xlink:href="#M" transform="matrix(10.69092 0 0 -10.9091 256.535 58.17)"/><use xlink:href="#y" transform="matrix(10.69092 0 0 -10.9091 265.43 56.043)"/><use xlink:href="#D" transform="matrix(10.69092 0 0 -10.9091 270.786 55.923)"/><use xlink:href="#M" transform="matrix(10.69092 0 0 -10.9091 273.704 58.17)"/><use xlink:href="#u" transform="matrix(10.69092 0 0 -10.9091 279.05 56.043)"/><use xlink:href="#A" transform="matrix(10.69092 0 0 -10.9091 284.395 55.923)"/><use xlink:href="#B" transform="matrix(10.69092 0 0 -10.9091 288.64 55.923)"/><use xlink:href="#v" transform="matrix(10.69092 0 0 -10.9091 291.462 56.043)"/><use xlink:href="#x" transform="matrix(10.69092 0 0 -10.9091 295.76 55.923)"/><use xlink:href="#P" transform="matrix(10.69092 0 0 -10.9091 301.704 55.923)"/><use xlink:href="#C" transform="matrix(10.69092 0 0 -10.9091 310.62 56.043)"/><use xlink:href="#y" transform="matrix(10.69092 0 0 -10.9091 318.317 56.043)"/><use xlink:href="#L" transform="matrix(10.69092 0 0 -10.9091 323.663 55.923)"/><use xlink:href="#T" transform="matrix(10.69092 0 0 -10.9091 329.628 56.043)"/><use xlink:href="#v" transform="matrix(11.12728 0 0 -10.9091 236.187 69.592)"/><use xlink:href="#x" transform="matrix(11.12728 0 0 -10.9091 240.66 69.472)"/><use xlink:href="#w" transform="matrix(11.12728 0 0 -10.9091 246.803 69.592)"/><use xlink:href="#O" transform="matrix(11.12728 0 0 -10.9091 256.773 71.588)"/><use xlink:href="#A" transform="matrix(11.12728 0 0 -10.9091 262.96 69.472)"/><use xlink:href="#u" transform="matrix(11.12728 0 0 -10.9091 267.322 69.592)"/><use xlink:href="#O" transform="matrix(11.12728 0 0 -10.9091 272.885 71.588)"/><use xlink:href="#u" transform="matrix(11.12728 0 0 -10.9091 279.372 69.592)"/><use xlink:href="#C" transform="matrix(11.12728 0 0 -10.9091 284.992 69.592)"/><use xlink:href="#w" transform="matrix(11.12728 0 0 -10.9091 289.32 69.592)"/><use xlink:href="#T" transform="matrix(11.12728 0 0 -10.9091 294.339 69.592)"/><use xlink:href="#U" transform="matrix(11.12728 0 0 -10.9091 305.544 69.592)"/><use xlink:href="#u" transform="matrix(11.12728 0 0 -10.9091 310.429 69.592)"/><use xlink:href="#L" transform="matrix(11.12728 0 0 -10.9091 316.037 69.472)"/><use xlink:href="#v" transform="matrix(11.12728 0 0 -10.9091 321.778 69.592)"/><use xlink:href="#A" transform="matrix(11.12728 0 0 -10.9091 326.207 69.472)"/><use xlink:href="#B" transform="matrix(11.12728 0 0 -10.9091 330.625 69.472)"/><use xlink:href="#V" transform="matrix(11.12728 0 0 -10.9091 333.473 67.432)"/><use xlink:href="#R" transform="matrix(10.9091 0 0 -10.9091 236.281 83.141)"/><use xlink:href="#Q" transform="matrix(10.9091 0 0 -10.9091 242.39 83.141)"/><use xlink:href="#v" transform="matrix(10.9091 0 0 -10.9091 248.314 83.141)"/><use xlink:href="#B" transform="matrix(10.9091 0 0 -10.9091 252.71 83.021)"/><use xlink:href="#u" transform="matrix(10.9091 0 0 -10.9091 255.689 83.141)"/><use xlink:href="#L" transform="matrix(10.9091 0 0 -10.9091 261.187 83.021)"/><path stroke-width=".398" stroke-miterlimit="10" fill="none" stroke="#000" d="M341.366 100.635V19.34"/><symbol id="Z"><path d="M.727.652v.031A1.706 1.706 0 0 0 .629.68L.514.683V.652C.555.652.571.633.571.613a.063.063 0 0 0-.01-.03L.396.315.215.61C.208.62.208.622.208.627c0 .021.025.025.07.025v.031C.242.68.169.68.13.68L0 .683V.652h.018C.086.652.094.641.11.615L.32.273V.078C.32.042.318.031.241.031H.217V0c.036.003.107.003.146.003.039 0 .11 0 .146-.003v.031H.486c-.077 0-.08.01-.08.049v.193l.193.314c.037.061.096.065.128.065z"/></symbol><use xlink:href="#Z" transform="matrix(10.9091 0 0 -10.9091 394.803 28.824)"/><use xlink:href="#w" transform="matrix(10.9091 0 0 -10.9091 402.265 28.944)"/><use xlink:href="#C" transform="matrix(10.9091 0 0 -10.9091 407.174 28.944)"/><path stroke-width=".398" stroke-miterlimit="10" fill="none" stroke="#000" d="M464.424 100.635V19.34M4.648 100.834h459.975M4.847 155.23v-54.197"/><symbol id="aa"><path d="M.305 0v.031H.279C.2.031.197.042.197.078v.527c0 .036.003.047.082.047h.026v.031C.27.68.191.68.153.68.114.68.035.68 0 .683V.652h.026C.105.652.108.641.108.605V.078C.108.042.105.031.026.031H0V0c.035.003.114.003.152.003C.191.003.27.003.305 0z"/></symbol><symbol id="ab"><path d="M.489.605v.031A.94.94 0 0 0 .414.633L.327.636V.605C.358.604.374.587.374.562.374.552.373.55.368.538L.267.292.156.561C.152.571.15.575.15.579c0 .026.037.026.056.026v.031L.097.633C.07.633.03.634 0 .636V.605c.048 0 .067 0 .081-.035l.15-.365L.206.146C.184.091.156.022.092.022c-.005 0-.028 0-.047.018.031.004.039.026.039.042a.04.04 0 0 1-.042.042C.022.124 0 .111 0 .081 0 .036.042 0 .092 0 .155 0 .196.057.22.114l.176.427a.094.094 0 0 0 .093.064z"/></symbol><symbol id="ac"><path d="M.549.258H.524C.513.156.499.031.323.031H.241c-.047 0-.049.007-.049.04v.533c0 .034 0 .048.095.048H.32v.031C.284.68.193.68.152.68.113.68.035.68 0 .683V.652h.024C.101.652.103.641.103.605V.078C.103.042.101.031.024.031H0V0h.521l.028.258z"/></symbol><symbol id="ad"><path d="M.685 0v.031H.667c-.06 0-.074.007-.085.04L.366.696C.361.709.359.716.343.716S.324.71.319.696L.112.098C.094.047.054.032 0 .031V0l.102.003L.217 0v.031c-.05 0-.075.025-.075.051l.002.015.046.131h.247L.49.075.493.061c0-.03-.056-.03-.083-.03V0c.036.003.106.003.144.003L.685 0M.426.259H.201l.112.325.113-.325z"/></symbol><symbol id="ae"><path d="M.679.264v.031L.557.292c-.04 0-.125 0-.161.003V.264h.032c.09 0 .093-.011.093-.048V.152C.521.04.394.031.366.031.301.031.103.066.103.364.103.663.3.696.36.696c.107 0 .198-.09.218-.237C.58.445.58.442.594.442.61.442.61.445.61.466v.237C.61.72.61.727.599.727c-.004 0-.008 0-.016-.012L.533.641C.501.673.447.727.348.727A.357.357 0 0 1 0 .364C0 .159.16 0 .35 0c.073 0 .153.026.187.085C.55.063.59.023.601.023.61.023.61.031.61.046V.22c0 .039.004.044.069.044z"/></symbol><symbol id="af"><path d="M.609.255c0 .01 0 .017-.013.017C.585.272.585.266.584.256.576.113.469.031.36.031.299.031.103.065.103.363c0 .299.195.333.256.333.109 0 .198-.091.218-.237C.579.445.579.442.593.442c.016 0 .016.003.016.024v.237c0 .017 0 .024-.011.024-.004 0-.008 0-.016-.012L.532.641C.495.677.444.727.348.727A.357.357 0 0 1 0 .364C0 .157.162 0 .348 0c.163 0 .261.139.261.255z"/></symbol><symbol id="ag"><path d="M.137 0v.04H.04v.92h.097V1H0V0h.137z"/></symbol><symbol id="ah"><path d="M.443.165v.031h-.1v.455c0 .02 0 .026-.016.026-.009 0-.012 0-.02-.012L0 .196V.165h.266V.078C.266.042.264.031.19.031H.169V0C.21.003.262.003.304.003.346.003.399.003.44 0v.031H.419C.345.031.343.042.343.078v.087h.1M.272.196H.028l.244.373V.196z"/></symbol><symbol id="ai"><path d="M.137 0v1H0V.96h.097V.04H0V0h.137z"/></symbol><symbol id="aj"><path d="M.589.497C.589.595.49.683.353.683H0V.652h.024C.101.652.103.641.103.605V.078C.103.042.101.031.024.031H0V0c.035.003.109.003.147.003C.185.003.26.003.295 0v.031H.271C.194.031.192.042.192.078v.238h.169c.12 0 .228.081.228.181m-.103 0c0-.047 0-.155-.159-.155H.189v.27c0 .033.002.04.049.04h.089C.486.652.486.546.486.497z"/></symbol><use xlink:href="#aa" transform="matrix(11.12728 0 0 -10.9091 11.336 110.518)"/><use xlink:href="#L" transform="matrix(11.12728 0 0 -10.9091 15.397 110.518)"/><use xlink:href="#C" transform="matrix(11.12728 0 0 -10.9091 21.595 110.638)"/><use xlink:href="#O" transform="matrix(11.12728 0 0 -10.9091 25.923 112.634)"/><use xlink:href="#B" transform="matrix(11.12728 0 0 -10.9091 32.166 110.518)"/><use xlink:href="#A" transform="matrix(11.12728 0 0 -10.9091 35.204 110.518)"/><use xlink:href="#w" transform="matrix(11.12728 0 0 -10.9091 39.565 110.638)"/><use xlink:href="#T" transform="matrix(11.12728 0 0 -10.9091 44.584 110.638)"/><use xlink:href="#R" transform="matrix(11.12728 0 0 -10.9091 54.598 110.638)"/><use xlink:href="#ab" transform="matrix(11.12728 0 0 -10.9091 60.385 112.754)"/><use xlink:href="#ac" transform="matrix(11.12728 0 0 -10.9091 70.31 110.518)"/><use xlink:href="#ad" transform="matrix(11.12728 0 0 -10.9091 77.254 110.518)"/><use xlink:href="#ae" transform="matrix(11.12728 0 0 -10.9091 85.566 110.758)"/><use xlink:href="#af" transform="matrix(11.12728 0 0 -10.9091 94.3 110.758)"/><use xlink:href="#t" transform="matrix(11.12728 0 0 -10.9091 102.079 110.518)"/><use xlink:href="#ag" transform="matrix(11.12728 0 0 -10.9091 115.264 113.245)"/><use xlink:href="#ah" transform="matrix(11.12728 0 0 -10.9091 117.356 110.518)"/><use xlink:href="#ai" transform="matrix(11.12728 0 0 -10.9091 122.853 113.245)"/><use xlink:href="#Y" transform="matrix(11.12728 0 0 -10.9091 129.797 110.638)"/><use xlink:href="#x" transform="matrix(11.12728 0 0 -10.9091 137.986 110.518)"/><use xlink:href="#B" transform="matrix(11.12728 0 0 -10.9091 144.184 110.518)"/><use xlink:href="#U" transform="matrix(11.12728 0 0 -10.9091 147.289 110.638)"/><use xlink:href="#x" transform="matrix(11.12728 0 0 -10.9091 151.906 110.518)"/><use xlink:href="#Q" transform="matrix(11.12728 0 0 -10.9091 161.999 110.638)"/><use xlink:href="#C" transform="matrix(11.12728 0 0 -10.9091 168.197 110.638)"/><use xlink:href="#w" transform="matrix(11.12728 0 0 -10.9091 172.525 110.638)"/><use xlink:href="#C" transform="matrix(11.12728 0 0 -10.9091 177.533 110.638)"/><use xlink:href="#y" transform="matrix(11.12728 0 0 -10.9091 185.8 110.638)"/><use xlink:href="#z" transform="matrix(11.12728 0 0 -10.9091 195.314 110.518)"/><use xlink:href="#Q" transform="matrix(11.12728 0 0 -10.9091 205.462 110.638)"/><use xlink:href="#D" transform="matrix(11.12728 0 0 -10.9091 211.66 110.518)"/><use xlink:href="#v" transform="matrix(11.12728 0 0 -10.9091 214.598 110.638)"/><use xlink:href="#B" transform="matrix(11.12728 0 0 -10.9091 219.082 110.518)"/><use xlink:href="#V" transform="matrix(11.12728 0 0 -10.9091 221.93 108.478)"/><use xlink:href="#D" transform="matrix(11.12728 0 0 -10.9091 11.391 124.067)"/><use xlink:href="#y" transform="matrix(11.12728 0 0 -10.9091 14.473 124.187)"/><use xlink:href="#ab" transform="matrix(11.12728 0 0 -10.9091 19.592 126.303)"/><use xlink:href="#w" transform="matrix(11.12728 0 0 -10.9091 25.267 124.187)"/><use xlink:href="#A" transform="matrix(11.12728 0 0 -10.9091 30.207 124.067)"/><use xlink:href="#aj" transform="matrix(11.12728 0 0 -10.9091 40.1 124.067)"/><use xlink:href="#w" transform="matrix(11.12728 0 0 -10.9091 47.299 124.187)"/><use xlink:href="#A" transform="matrix(11.12728 0 0 -10.9091 52.25 124.067)"/><use xlink:href="#U" transform="matrix(11.12728 0 0 -10.9091 56.68 124.187)"/><use xlink:href="#w" transform="matrix(11.12728 0 0 -10.9091 61.564 124.187)"/><use xlink:href="#O" transform="matrix(11.12728 0 0 -10.9091 66.516 126.183)"/><use xlink:href="#v" transform="matrix(11.12728 0 0 -10.9091 72.602 124.187)"/><use xlink:href="#A" transform="matrix(11.12728 0 0 -10.9091 77.031 124.067)"/><use xlink:href="#u" transform="matrix(11.12728 0 0 -10.9091 81.393 124.187)"/><use xlink:href="#L" transform="matrix(11.12728 0 0 -10.9091 87.001 124.067)"/><use xlink:href="#F" transform="matrix(11.12728 0 0 -10.9091 99.386 126.794)"/><use xlink:href="#z" transform="matrix(11.12728 0 0 -10.9091 103.024 124.067)"/><use xlink:href="#ac" transform="matrix(11.12728 0 0 -10.9091 113.184 124.067)"/><use xlink:href="#aj" transform="matrix(11.12728 0 0 -10.9091 120.16 124.067)"/><use xlink:href="#I" transform="matrix(11.12728 0 0 -10.9091 127.983 126.794)"/><use xlink:href="#y" transform="matrix(11.12728 0 0 -10.9091 137.474 124.187)"/><use xlink:href="#C" transform="matrix(11.12728 0 0 -10.9091 143.05 124.187)"/><use xlink:href="#v" transform="matrix(11.12728 0 0 -10.9091 152.73 124.187)"/><use xlink:href="#x" transform="matrix(11.12728 0 0 -10.9091 157.203 124.067)"/><use xlink:href="#w" transform="matrix(11.12728 0 0 -10.9091 163.345 124.187)"/><use xlink:href="#w" transform="matrix(11.12728 0 0 -10.9091 173.75 124.187)"/><use xlink:href="#T" transform="matrix(11.12728 0 0 -10.9091 178.768 124.187)"/><use xlink:href="#M" transform="matrix(11.12728 0 0 -10.9091 184.888 126.314)"/><use xlink:href="#w" transform="matrix(11.12728 0 0 -10.9091 190.451 124.187)"/><use xlink:href="#D" transform="matrix(11.12728 0 0 -10.9091 200.9 124.067)"/><use xlink:href="#y" transform="matrix(11.12728 0 0 -10.9091 203.982 124.187)"/><use xlink:href="#R" transform="matrix(11.12728 0 0 -10.9091 209.501 124.187)"/><use xlink:href="#w" transform="matrix(11.12728 0 0 -10.9091 216 124.187)"/><use xlink:href="#D" transform="matrix(11.12728 0 0 -10.9091 221.007 124.067)"/><use xlink:href="#O" transform="matrix(10.75637 0 0 -10.9091 11.325 139.733)"/><use xlink:href="#A" transform="matrix(10.75637 0 0 -10.9091 17.306 137.617)"/><use xlink:href="#w" transform="matrix(10.75637 0 0 -10.9091 21.522 137.737)"/><use xlink:href="#T" transform="matrix(10.75637 0 0 -10.9091 26.373 137.737)"/><use xlink:href="#B" transform="matrix(10.75637 0 0 -10.9091 32.343 137.617)"/><use xlink:href="#U" transform="matrix(10.75637 0 0 -10.9091 35.344 137.737)"/><use xlink:href="#v" transform="matrix(10.75637 0 0 -10.9091 39.97 137.737)"/><use xlink:href="#u" transform="matrix(10.75637 0 0 -10.9091 44.25 137.737)"/><use xlink:href="#A" transform="matrix(10.75637 0 0 -10.9091 49.629 137.617)"/><use xlink:href="#W" transform="matrix(10.75637 0 0 -10.9091 54.469 139.722)"/><use xlink:href="#Y" transform="matrix(10.75637 0 0 -10.9091 60.363 137.737)"/><use xlink:href="#w" transform="matrix(10.75637 0 0 -10.9091 67.925 137.737)"/><use xlink:href="#w" transform="matrix(10.75637 0 0 -10.9091 76.347 137.737)"/><use xlink:href="#P" transform="matrix(10.75637 0 0 -10.9091 81.177 137.617)"/><use xlink:href="#O" transform="matrix(10.75637 0 0 -10.9091 90.094 139.733)"/><use xlink:href="#D" transform="matrix(10.75637 0 0 -10.9091 96.128 137.617)"/><use xlink:href="#u" transform="matrix(10.75637 0 0 -10.9091 99.065 137.737)"/><use xlink:href="#ab" transform="matrix(10.75637 0 0 -10.9091 104.045 139.853)"/><use xlink:href="#y" transform="matrix(10.75637 0 0 -10.9091 113.5 137.737)"/><use xlink:href="#u" transform="matrix(10.75637 0 0 -10.9091 122.46 137.737)"/><use xlink:href="#L" transform="matrix(10.75637 0 0 -10.9091 127.881 137.617)"/><use xlink:href="#w" transform="matrix(10.75637 0 0 -10.9091 133.819 137.737)"/><use xlink:href="#V" transform="matrix(10.75637 0 0 -10.9091 138.422 135.577)"/><use xlink:href="#D" transform="matrix(10.75637 0 0 -10.9091 142.241 137.617)"/><use xlink:href="#y" transform="matrix(10.75637 0 0 -10.9091 145.22 137.737)"/><use xlink:href="#ab" transform="matrix(10.75637 0 0 -10.9091 150.158 139.853)"/><use xlink:href="#w" transform="matrix(10.75637 0 0 -10.9091 155.633 137.737)"/><use xlink:href="#A" transform="matrix(10.75637 0 0 -10.9091 160.42 137.617)"/><use xlink:href="#z" transform="matrix(10.75637 0 0 -10.9091 168.357 137.617)"/><use xlink:href="#ac" transform="matrix(10.75637 0 0 -10.9091 178.178 137.617)"/><use xlink:href="#aj" transform="matrix(10.75637 0 0 -10.9091 184.922 137.617)"/><use xlink:href="#y" transform="matrix(10.75637 0 0 -10.9091 195.85 137.737)"/><use xlink:href="#C" transform="matrix(10.75637 0 0 -10.9091 201.24 137.737)"/><use xlink:href="#v" transform="matrix(10.75637 0 0 -10.9091 208.963 137.737)"/><use xlink:href="#x" transform="matrix(10.75637 0 0 -10.9091 213.287 137.617)"/><use xlink:href="#w" transform="matrix(10.75637 0 0 -10.9091 219.224 137.737)"/><use xlink:href="#L" transform="matrix(10.9091 0 0 -10.9091 11.373 151.166)"/><use xlink:href="#u" transform="matrix(10.9091 0 0 -10.9091 17.395 151.286)"/><use xlink:href="#T" transform="matrix(10.9091 0 0 -10.9091 23.22 151.286)"/><use xlink:href="#w" transform="matrix(10.9091 0 0 -10.9091 29.22 151.286)"/><use xlink:href="#D" transform="matrix(10.9091 0 0 -10.9091 37.762 151.166)"/><use xlink:href="#y" transform="matrix(10.9091 0 0 -10.9091 40.784 151.286)"/><use xlink:href="#R" transform="matrix(10.9091 0 0 -10.9091 46.195 151.286)"/><use xlink:href="#w" transform="matrix(10.9091 0 0 -10.9091 52.566 151.286)"/><use xlink:href="#D" transform="matrix(10.9091 0 0 -10.9091 57.475 151.166)"/><use xlink:href="#O" transform="matrix(10.9091 0 0 -10.9091 64.086 153.282)"/><use xlink:href="#A" transform="matrix(10.9091 0 0 -10.9091 70.151 151.166)"/><use xlink:href="#w" transform="matrix(10.9091 0 0 -10.9091 74.428 151.286)"/><use xlink:href="#T" transform="matrix(10.9091 0 0 -10.9091 79.348 151.286)"/><use xlink:href="#B" transform="matrix(10.9091 0 0 -10.9091 85.402 151.166)"/><use xlink:href="#U" transform="matrix(10.9091 0 0 -10.9091 88.446 151.286)"/><use xlink:href="#v" transform="matrix(10.9091 0 0 -10.9091 93.137 151.286)"/><use xlink:href="#u" transform="matrix(10.9091 0 0 -10.9091 97.479 151.286)"/><use xlink:href="#A" transform="matrix(10.9091 0 0 -10.9091 102.933 151.166)"/><use xlink:href="#y" transform="matrix(10.9091 0 0 -10.9091 110.886 151.286)"/><use xlink:href="#v" transform="matrix(10.9091 0 0 -10.9091 116.199 151.286)"/><use xlink:href="#w" transform="matrix(10.9091 0 0 -10.9091 124.184 151.286)"/><use xlink:href="#y" transform="matrix(10.9091 0 0 -10.9091 129.082 151.286)"/><use xlink:href="#U" transform="matrix(10.9091 0 0 -10.9091 134.559 151.286)"/><use xlink:href="#x" transform="matrix(10.9091 0 0 -10.9091 139.086 151.166)"/><use xlink:href="#D" transform="matrix(10.9091 0 0 -10.9091 148.795 151.166)"/><use xlink:href="#y" transform="matrix(10.9091 0 0 -10.9091 151.817 151.286)"/><use xlink:href="#ab" transform="matrix(10.9091 0 0 -10.9091 156.835 153.402)"/><use xlink:href="#w" transform="matrix(10.9091 0 0 -10.9091 162.388 151.286)"/><use xlink:href="#A" transform="matrix(10.9091 0 0 -10.9091 167.242 151.166)"/><use xlink:href="#y" transform="matrix(10.9091 0 0 -10.9091 175.195 151.286)"/><use xlink:href="#L" transform="matrix(10.9091 0 0 -10.9091 180.65 151.166)"/><use xlink:href="#T" transform="matrix(10.9091 0 0 -10.9091 186.737 151.286)"/><use xlink:href="#Q" transform="matrix(10.9091 0 0 -10.9091 196.413 151.286)"/><use xlink:href="#C" transform="matrix(10.9091 0 0 -10.9091 202.49 151.286)"/><use xlink:href="#w" transform="matrix(10.9091 0 0 -10.9091 206.744 151.286)"/><use xlink:href="#E" transform="matrix(10.9091 0 0 -10.9091 212.22 151.166)"/><use xlink:href="#E" transform="matrix(10.9091 0 0 -10.9091 215.253 151.166)"/><path stroke-width=".398" stroke-miterlimit="10" fill="none" stroke="#000" d="M229.8 155.23v-54.197"/><use xlink:href="#T" transform="matrix(11.12728 0 0 -10.9091 236.354 110.638)"/><use xlink:href="#A" transform="matrix(11.12728 0 0 -10.9091 242.474 110.518)"/><use xlink:href="#y" transform="matrix(11.12728 0 0 -10.9091 246.88 110.638)"/><use xlink:href="#Y" transform="matrix(11.12728 0 0 -10.9091 251.988 110.638)"/><use xlink:href="#B" transform="matrix(11.12728 0 0 -10.9091 260.189 110.518)"/><use xlink:href="#L" transform="matrix(11.12728 0 0 -10.9091 263.271 110.518)"/><use xlink:href="#M" transform="matrix(11.12728 0 0 -10.9091 269.413 112.765)"/><use xlink:href="#B" transform="matrix(11.12728 0 0 -10.9091 283.556 110.518)"/><use xlink:href="#L" transform="matrix(11.12728 0 0 -10.9091 286.627 110.518)"/><use xlink:href="#C" transform="matrix(11.12728 0 0 -10.9091 292.836 110.638)"/><use xlink:href="#O" transform="matrix(11.12728 0 0 -10.9091 297.165 112.634)"/><use xlink:href="#B" transform="matrix(11.12728 0 0 -10.9091 303.407 110.518)"/><use xlink:href="#A" transform="matrix(11.12728 0 0 -10.9091 306.445 110.518)"/><use xlink:href="#y" transform="matrix(11.12728 0 0 -10.9091 310.851 110.638)"/><use xlink:href="#v" transform="matrix(11.12728 0 0 -10.9091 316.27 110.638)"/><use xlink:href="#B" transform="matrix(11.12728 0 0 -10.9091 320.755 110.518)"/><use xlink:href="#u" transform="matrix(11.12728 0 0 -10.9091 323.793 110.638)"/><use xlink:href="#L" transform="matrix(11.12728 0 0 -10.9091 329.4 110.518)"/><use xlink:href="#X" transform="matrix(10.9091 0 0 -10.9091 236.336 124.067)"/><use xlink:href="#A" transform="matrix(10.9091 0 0 -10.9091 239.62 124.067)"/><use xlink:href="#u" transform="matrix(10.9091 0 0 -10.9091 243.896 124.187)"/><use xlink:href="#P" transform="matrix(10.9091 0 0 -10.9091 249.394 124.067)"/><use xlink:href="#w" transform="matrix(10.9091 0 0 -10.9091 262.06 124.187)"/><use xlink:href="#S" transform="matrix(10.9091 0 0 -10.9091 266.74 124.067)"/><use xlink:href="#B" transform="matrix(10.9091 0 0 -10.9091 272.729 124.067)"/><use xlink:href="#C" transform="matrix(10.9091 0 0 -10.9091 275.762 124.187)"/><use xlink:href="#v" transform="matrix(10.9091 0 0 -10.9091 279.907 124.187)"/><use xlink:href="#B" transform="matrix(10.9091 0 0 -10.9091 284.303 124.067)"/><use xlink:href="#L" transform="matrix(10.9091 0 0 -10.9091 287.325 124.067)"/><use xlink:href="#M" transform="matrix(10.9091 0 0 -10.9091 293.347 126.314)"/><use xlink:href="#P" transform="matrix(10.9091 0 0 -10.9091 302.467 124.067)"/><use xlink:href="#u" transform="matrix(10.9091 0 0 -10.9091 311.51 124.187)"/><use xlink:href="#T" transform="matrix(10.9091 0 0 -10.9091 317.336 124.187)"/><use xlink:href="#w" transform="matrix(10.9091 0 0 -10.9091 323.336 124.187)"/><use xlink:href="#D" transform="matrix(10.9091 0 0 -10.9091 328.245 124.067)"/><use xlink:href="#C" transform="matrix(10.9091 0 0 -10.9091 331.278 124.187)"/><path stroke-width=".398" stroke-miterlimit="10" fill="none" stroke="#000" d="M341.366 155.23v-54.197"/><use xlink:href="#Z" transform="matrix(10.9091 0 0 -10.9091 394.803 110.518)"/><use xlink:href="#w" transform="matrix(10.9091 0 0 -10.9091 402.265 110.638)"/><use xlink:href="#C" transform="matrix(10.9091 0 0 -10.9091 407.174 110.638)"/><path stroke-width=".398" stroke-miterlimit="10" fill="none" stroke="#000" d="M464.424 155.23v-54.197M4.648 155.43h459.975M4.847 196.277v-40.648"/><symbol id="ak"><path d="M.483 0v.031c-.037 0-.059 0-.097.053L.259.263C.258.265.253.271.253.274c0 .004.071.064.081.072C.397.397.439.399.46.4v.031C.431.428.418.428.39.428L.278.431V.4C.297.399.307.388.307.375.307.355.293.343.285.336L.144.214v.48L0 .683V.652C.07.652.078.645.078.596v-.52C.078.031.067.031 0 .031V0l.109.003L.219 0v.031c-.067 0-.078 0-.078.045v.103l.064.055C.282.128.324.072.324.054.324.035.307.031.288.031V0l.108.003L.483 0z"/></symbol><use xlink:href="#z" transform="matrix(11.12728 0 0 -10.9091 11.436 165.113)"/><use xlink:href="#y" transform="matrix(11.12728 0 0 -10.9091 21.584 165.233)"/><use xlink:href="#L" transform="matrix(11.12728 0 0 -10.9091 27.147 165.113)"/><use xlink:href="#ab" transform="matrix(11.12728 0 0 -10.9091 32.89 167.35)"/><use xlink:href="#Y" transform="matrix(11.12728 0 0 -10.9091 43.382 165.233)"/><use xlink:href="#u" transform="matrix(11.12728 0 0 -10.9091 51.227 165.233)"/><use xlink:href="#A" transform="matrix(11.12728 0 0 -10.9091 56.79 165.113)"/><use xlink:href="#ak" transform="matrix(11.12728 0 0 -10.9091 61.152 165.113)"/><use xlink:href="#C" transform="matrix(11.12728 0 0 -10.9091 67.083 165.233)"/><use xlink:href="#C" transform="matrix(11.12728 0 0 -10.9091 76.096 165.233)"/><use xlink:href="#w" transform="matrix(11.12728 0 0 -10.9091 80.425 165.233)"/><use xlink:href="#D" transform="matrix(11.12728 0 0 -10.9091 85.432 165.113)"/><use xlink:href="#w" transform="matrix(11.12728 0 0 -10.9091 88.47 165.233)"/><use xlink:href="#U" transform="matrix(11.12728 0 0 -10.9091 93.488 165.233)"/><use xlink:href="#v" transform="matrix(11.12728 0 0 -10.9091 98.273 165.233)"/><use xlink:href="#Y" transform="matrix(11.12728 0 0 -10.9091 107.22 165.233)"/><use xlink:href="#u" transform="matrix(11.12728 0 0 -10.9091 115.064 165.233)"/><use xlink:href="#A" transform="matrix(11.12728 0 0 -10.9091 120.628 165.113)"/><use xlink:href="#ak" transform="matrix(11.12728 0 0 -10.9091 124.99 165.113)"/><use xlink:href="#D" transform="matrix(11.12728 0 0 -10.9091 130.92 165.113)"/><use xlink:href="#u" transform="matrix(11.12728 0 0 -10.9091 133.958 165.233)"/><use xlink:href="#y" transform="matrix(11.12728 0 0 -10.9091 139.566 165.233)"/><use xlink:href="#T" transform="matrix(11.12728 0 0 -10.9091 145.152 165.233)"/><use xlink:href="#O" transform="matrix(11.12728 0 0 -10.9091 155.912 167.23)"/><use xlink:href="#D" transform="matrix(11.12728 0 0 -10.9091 162.155 165.113)"/><use xlink:href="#y" transform="matrix(11.12728 0 0 -10.9091 165.237 165.233)"/><use xlink:href="#U" transform="matrix(11.12728 0 0 -10.9091 170.823 165.233)"/><use xlink:href="#w" transform="matrix(11.12728 0 0 -10.9091 175.708 165.233)"/><use xlink:href="#P" transform="matrix(11.12728 0 0 -10.9091 180.693 165.113)"/><use xlink:href="#w" transform="matrix(11.12728 0 0 -10.9091 189.917 165.233)"/><use xlink:href="#L" transform="matrix(11.12728 0 0 -10.9091 194.913 165.113)"/><use xlink:href="#v" transform="matrix(11.12728 0 0 -10.9091 200.655 165.233)"/><use xlink:href="#C" transform="matrix(11.12728 0 0 -10.9091 205.14 165.233)"/><use xlink:href="#v" transform="matrix(11.12728 0 0 -10.9091 214.008 165.233)"/><use xlink:href="#u" transform="matrix(11.12728 0 0 -10.9091 218.437 165.233)"/><use xlink:href="#A" transform="matrix(10.70183 0 0 -10.9091 11.324 178.663)"/><use xlink:href="#w" transform="matrix(10.70183 0 0 -10.9091 15.519 178.783)"/><use xlink:href="#T" transform="matrix(10.70183 0 0 -10.9091 20.345 178.783)"/><use xlink:href="#Q" transform="matrix(10.70183 0 0 -10.9091 26.274 178.783)"/><use xlink:href="#U" transform="matrix(10.70183 0 0 -10.9091 32.246 178.783)"/><use xlink:href="#w" transform="matrix(10.70183 0 0 -10.9091 36.944 178.783)"/><use xlink:href="#O" transform="matrix(10.70183 0 0 -10.9091 45.355 180.78)"/><use xlink:href="#w" transform="matrix(10.70183 0 0 -10.9091 51.605 178.783)"/><use xlink:href="#A" transform="matrix(10.70183 0 0 -10.9091 56.368 178.663)"/><use xlink:href="#X" transform="matrix(10.70183 0 0 -10.9091 60.616 178.663)"/><use xlink:href="#u" transform="matrix(10.70183 0 0 -10.9091 63.837 178.783)"/><use xlink:href="#A" transform="matrix(10.70183 0 0 -10.9091 69.188 178.663)"/><use xlink:href="#P" transform="matrix(10.70183 0 0 -10.9091 73.426 178.663)"/><use xlink:href="#y" transform="matrix(10.70183 0 0 -10.9091 82.341 178.783)"/><use xlink:href="#L" transform="matrix(10.70183 0 0 -10.9091 87.692 178.663)"/><use xlink:href="#U" transform="matrix(10.70183 0 0 -10.9091 93.663 178.783)"/><use xlink:href="#w" transform="matrix(10.70183 0 0 -10.9091 98.362 178.783)"/><use xlink:href="#B" transform="matrix(10.70183 0 0 -10.9091 106.827 178.663)"/><use xlink:href="#L" transform="matrix(10.70183 0 0 -10.9091 109.791 178.663)"/><use xlink:href="#v" transform="matrix(10.70183 0 0 -10.9091 115.303 178.783)"/><use xlink:href="#w" transform="matrix(10.70183 0 0 -10.9091 119.562 178.783)"/><use xlink:href="#A" transform="matrix(10.70183 0 0 -10.9091 124.324 178.663)"/><use xlink:href="#X" transform="matrix(10.70183 0 0 -10.9091 128.573 178.663)"/><use xlink:href="#w" transform="matrix(10.70183 0 0 -10.9091 131.794 178.783)"/><use xlink:href="#A" transform="matrix(10.70183 0 0 -10.9091 136.556 178.663)"/><use xlink:href="#w" transform="matrix(10.70183 0 0 -10.9091 140.752 178.783)"/><use xlink:href="#L" transform="matrix(10.70183 0 0 -10.9091 145.557 178.663)"/><use xlink:href="#U" transform="matrix(10.70183 0 0 -10.9091 151.528 178.783)"/><use xlink:href="#w" transform="matrix(10.70183 0 0 -10.9091 156.226 178.783)"/><use xlink:href="#u" transform="matrix(10.70183 0 0 -10.9091 164.638 178.783)"/><use xlink:href="#A" transform="matrix(10.70183 0 0 -10.9091 169.989 178.663)"/><use xlink:href="#w" transform="matrix(10.70183 0 0 -10.9091 177.833 178.783)"/><use xlink:href="#L" transform="matrix(10.70183 0 0 -10.9091 182.638 178.663)"/><use xlink:href="#w" transform="matrix(10.70183 0 0 -10.9091 188.546 178.783)"/><use xlink:href="#A" transform="matrix(10.70183 0 0 -10.9091 193.308 178.663)"/><use xlink:href="#M" transform="matrix(10.70183 0 0 -10.9091 197.503 180.91)"/><use xlink:href="#ab" transform="matrix(10.70183 0 0 -10.9091 202.758 180.9)"/><use xlink:href="#Q" transform="matrix(10.70183 0 0 -10.9091 212.197 178.783)"/><use xlink:href="#C" transform="matrix(10.70183 0 0 -10.9091 218.158 178.783)"/><use xlink:href="#V" transform="matrix(10.70183 0 0 -10.9091 222.139 176.623)"/><symbol id="al"><path d="M.415.193c0 .082-.063.16-.167.181.082.027.14.097.14.176C.388.632.3.688.204.688.103.688.027.628.027.552.027.519.049.5.078.5.109.5.129.522.129.551c0 .05-.047.05-.062.05C.098.65.164.663.2.663.241.663.296.641.296.551A.25.25 0 0 0 .268.437C.238.389.204.386.179.385A.554.554 0 0 0 .14.382C.132.381.125.38.125.37c0-.011.007-.011.024-.011h.044C.275.359.312.291.312.193.312.057.243.028.199.028.156.028.081.045.046.104.081.099.112.121.112.159a.054.054 0 0 1-.056.056C.032.215 0 .201 0 .157 0 .066.093 0 .202 0c.122 0 .213.091.213.193z"/></symbol><use xlink:href="#y" transform="matrix(10.9091 0 0 -10.9091 11.373 192.332)"/><use xlink:href="#M" transform="matrix(10.9091 0 0 -10.9091 16.784 194.46)"/><use xlink:href="#w" transform="matrix(10.9091 0 0 -10.9091 22.239 192.332)"/><use xlink:href="#W" transform="matrix(10.9091 0 0 -10.9091 27.726 194.317)"/><use xlink:href="#w" transform="matrix(10.9091 0 0 -10.9091 33.759 192.332)"/><use xlink:href="#E" transform="matrix(10.9091 0 0 -10.9091 39.246 192.212)"/><use xlink:href="#M" transform="matrix(10.9091 0 0 -10.9091 41.646 194.46)"/><use xlink:href="#E" transform="matrix(10.9091 0 0 -10.9091 47.733 192.212)"/><use xlink:href="#ag" transform="matrix(10.9091 0 0 -10.9091 55.97 194.94)"/><use xlink:href="#al" transform="matrix(10.9091 0 0 -10.9091 58.173 192.452)"/><use xlink:href="#ai" transform="matrix(10.9091 0 0 -10.9091 63.41 194.94)"/><path stroke-width=".398" stroke-miterlimit="10" fill="none" stroke="#000" d="M229.8 196.277v-40.648"/><use xlink:href="#y" transform="matrix(11.12728 0 0 -10.9091 236.332 165.233)"/><use xlink:href="#U" transform="matrix(11.12728 0 0 -10.9091 241.918 165.233)"/><use xlink:href="#ak" transform="matrix(11.12728 0 0 -10.9091 246.502 165.113)"/><use xlink:href="#L" transform="matrix(11.12728 0 0 -10.9091 252.422 165.113)"/><use xlink:href="#u" transform="matrix(11.12728 0 0 -10.9091 258.564 165.233)"/><use xlink:href="#Y" transform="matrix(11.12728 0 0 -10.9091 263.716 165.233)"/><use xlink:href="#D" transform="matrix(11.12728 0 0 -10.9091 271.917 165.113)"/><use xlink:href="#w" transform="matrix(11.12728 0 0 -10.9091 274.955 165.233)"/><use xlink:href="#T" transform="matrix(11.12728 0 0 -10.9091 279.962 165.233)"/><use xlink:href="#M" transform="matrix(11.12728 0 0 -10.9091 286.093 167.36)"/><use xlink:href="#B" transform="matrix(11.12728 0 0 -10.9091 291.712 165.113)"/><use xlink:href="#L" transform="matrix(11.12728 0 0 -10.9091 294.795 165.113)"/><use xlink:href="#M" transform="matrix(11.12728 0 0 -10.9091 300.937 167.36)"/><use xlink:href="#O" transform="matrix(11.12728 0 0 -10.9091 312.198 167.23)"/><use xlink:href="#A" transform="matrix(11.12728 0 0 -10.9091 318.385 165.113)"/><use xlink:href="#B" transform="matrix(11.12728 0 0 -10.9091 322.802 165.113)"/><use xlink:href="#u" transform="matrix(11.12728 0 0 -10.9091 325.84 165.233)"/><use xlink:href="#A" transform="matrix(11.12728 0 0 -10.9091 331.404 165.113)"/><symbol id="am"><path d="M.5 0v.031c-.067 0-.078 0-.078.045v.367L.296.434.278.432.26.431H.142v.113c0 .099.086.139.148.139.03 0 .066-.01.086-.033C.335.648.329.62.329.604c0-.033.026-.046.045-.046.023 0 .046.016.046.046C.42.663.365.705.291.705.198.705.079.654.079.545V.431H0V.4h.079V.076C.079.031.068.031.001.031V0l.111.003L.223 0v.031c-.067 0-.078 0-.078.045V.4h.158C.349.4.356.387.356.346v-.27C.356.031.345.031.278.031V0l.111.003L.5 0z"/></symbol><use xlink:href="#am" transform="matrix(10.95274 0 0 -10.9091 236.272 178.663)"/><use xlink:href="#L" transform="matrix(10.95274 0 0 -10.9091 242.416 178.663)"/><use xlink:href="#T" transform="matrix(10.95274 0 0 -10.9091 248.528 178.783)"/><use xlink:href="#B" transform="matrix(10.95274 0 0 -10.9091 254.607 178.663)"/><use xlink:href="#L" transform="matrix(10.95274 0 0 -10.9091 257.64 178.663)"/><use xlink:href="#M" transform="matrix(10.95274 0 0 -10.9091 263.686 180.91)"/><use xlink:href="#C" transform="matrix(10.95274 0 0 -10.9091 269.218 178.783)"/><use xlink:href="#u" transform="matrix(10.95274 0 0 -10.9091 277.104 178.783)"/><use xlink:href="#L" transform="matrix(10.95274 0 0 -10.9091 282.624 178.663)"/><use xlink:href="#Y" transform="matrix(10.95274 0 0 -10.9091 292.175 178.783)"/><use xlink:href="#u" transform="matrix(10.95274 0 0 -10.9091 299.896 178.783)"/><use xlink:href="#A" transform="matrix(10.95274 0 0 -10.9091 305.373 178.663)"/><use xlink:href="#ak" transform="matrix(10.95274 0 0 -10.9091 309.666 178.663)"/><use xlink:href="#D" transform="matrix(10.95274 0 0 -10.9091 315.504 178.663)"/><use xlink:href="#u" transform="matrix(10.95274 0 0 -10.9091 318.494 178.783)"/><use xlink:href="#y" transform="matrix(10.95274 0 0 -10.9091 324.014 178.783)"/><use xlink:href="#T" transform="matrix(10.95274 0 0 -10.9091 329.512 178.783)"/><use xlink:href="#O" transform="matrix(10.9091 0 0 -10.9091 236.281 194.328)"/><use xlink:href="#D" transform="matrix(10.9091 0 0 -10.9091 242.401 192.212)"/><use xlink:href="#y" transform="matrix(10.9091 0 0 -10.9091 245.423 192.332)"/><use xlink:href="#U" transform="matrix(10.9091 0 0 -10.9091 250.9 192.332)"/><use xlink:href="#w" transform="matrix(10.9091 0 0 -10.9091 255.689 192.332)"/><use xlink:href="#P" transform="matrix(10.9091 0 0 -10.9091 260.587 192.212)"/><use xlink:href="#w" transform="matrix(10.9091 0 0 -10.9091 269.63 192.332)"/><use xlink:href="#L" transform="matrix(10.9091 0 0 -10.9091 274.529 192.212)"/><use xlink:href="#v" transform="matrix(10.9091 0 0 -10.9091 280.147 192.332)"/><use xlink:href="#C" transform="matrix(10.9091 0 0 -10.9091 284.543 192.332)"/><path stroke-width=".398" stroke-miterlimit="10" fill="none" stroke="#000" d="M341.366 196.277v-40.648"/><use xlink:href="#t" transform="matrix(10.9091 0 0 -10.9091 396.437 165.113)"/><use xlink:href="#u" transform="matrix(10.9091 0 0 -10.9091 404.564 165.233)"/><path stroke-width=".398" stroke-miterlimit="10" fill="none" stroke="#000" d="M464.424 196.277v-40.648M4.648 196.476h459.975M4.847 250.872v-54.197"/><symbol id="an"><path d="M.443.208c0 .1-.066.182-.15.202L.165.441a.13.13 0 0 0 .031.258C.363.699.385.535.391.49.392.484.392.478.403.478c.013 0 .013.005.013.024v.201c0 .017 0 .024-.011.024C.398.727.397.726.39.714L.355.657c-.03.029-.071.07-.16.07A.193.193 0 0 1 .131.35C.142.346.193.334.263.317.29.31.32.303.348.266A.146.146 0 0 0 .379.174C.379.103.329.031.245.031a.241.241 0 0 0-.158.054.202.202 0 0 0-.062.154c-.001.01-.009.01-.012.01C0 .249 0 .242 0 .224v-.2C0 .007 0 0 .011 0c.007 0 .008.002.015.013L.062.07A.25.25 0 0 1 .246 0c.117 0 .197.098.197.208z"/></symbol><symbol id="ao"><path d="M.493 0v.031c-.067 0-.078 0-.078.045v.56H.393L.355.545C.342.573.301.636.221.636A.225.225 0 0 1 0 .409C0 .284.097.183.213.183c.07 0 .111.043.133.072V.076C.346.031.335.031.268.031V0L.38.003.493 0M.349.33C.349.298.331.27.309.246A.128.128 0 0 0 .217.205C.144.205.083.294.083.409c0 .119.07.202.144.202.08 0 .122-.087.122-.14V.33z"/></symbol><symbol id="ap"><path d="M.649.452.63.677H.019L0 .452h.025c.014.161.029.194.18.194.018 0 .044 0 .054-.002C.28.64.28.629.28.606V.079C.28.045.28.031.175.031h-.04V0c.041.003.143.003.189.003.046 0 .149 0 .19-.003v.031h-.04C.369.031.369.045.369.079v.527c0 .02 0 .034.018.038a.471.471 0 0 0 .057.002C.595.646.61.613.624.452h.025z"/></symbol><symbol id="aq"><path d="M.672.336c0 .19-.135.347-.306.347H0V.652h.024C.101.652.103.641.103.605V.078C.103.042.101.031.024.031H0V0h.366c.168 0 .306.148.306.336m-.1 0C.572.225.553.165.517.116A.22.22 0 0 0 .339.031H.238c-.047 0-.049.007-.049.04v.541c0 .033.002.04.049.04h.1A.216.216 0 0 0 .52.559C.563.5.572.414.572.336z"/></symbol><symbol id="ar"><path d="M.415.226c0 .127-.089.223-.2.223C.147.449.11.398.09.35v.024c0 .253.124.289.175.289.024 0 .066-.006.088-.04-.015 0-.055 0-.055-.045 0-.031.024-.046.046-.046C.36.532.39.541.39.58.39.64.346.688.263.688.135.688 0 .559 0 .338 0 .071.116 0 .209 0 .32 0 .415.094.415.226m-.09.001c0-.048 0-.098-.017-.134C.278.033.232.028.209.028.146.028.116.088.11.103.092.15.092.23.092.248c0 .078.032.178.122.178.016 0 .062 0 .093-.062C.325.327.325.276.325.227z"/></symbol><symbol id="as"><path d="M.399.223c0 .119-.082.219-.19.219A.176.176 0 0 1 .082.391v.195A.317.317 0 0 1 .167.573C.29.573.36.664.36.677.36.683.357.688.35.688c0 0-.003 0-.008-.003A.33.33 0 0 0 .073.684L.061.687c-.01 0-.01-.008-.01-.024V.367c0-.018 0-.026.014-.026.007 0 .009.003.013.009.011.016.048.07.129.07C.259.42.284.374.292.356A.308.308 0 0 0 .31.23C.31.195.31.135.286.093A.125.125 0 0 0 .179.028.156.156 0 0 0 .032.14C.035.139.038.138.049.138c.033 0 .05.025.05.049a.048.048 0 0 1-.05.049C.035.236 0 .229 0 .183 0 .097.069 0 .181 0a.22.22 0 0 1 .218.223z"/></symbol><symbol id="at"><path d="M.415.19a.18.18 0 0 1-.049.123.422.422 0 0 1-.099.071c.072.037.121.089.121.155 0 .092-.089.149-.18.149-.1 0-.181-.074-.181-.167a.16.16 0 0 1 .044-.11C.082.399.119.374.144.357.086.328 0 .272 0 .173 0 .067.102 0 .207 0 .32 0 .415.083.415.19M.344.539C.344.482.305.434.245.399l-.124.08C.075.509.071.543.071.56c0 .061.065.103.136.103C.28.663.344.611.344.539M.365.154C.365.08.29.028.208.028.122.028.05.09.05.173c0 .058.032.122.117.169L.29.264C.318.245.365.215.365.154z"/></symbol><symbol id="au"><path d="M.415.351C.415.62.3.688.211.688A.193.193 0 0 1 .064.625.214.214 0 0 1 0 .463C0 .338.088.24.2.24c.061 0 .102.042.125.1V.308c0-.234-.104-.28-.162-.28C.146.028.092.03.065.064c.044 0 .052.029.052.046 0 .031-.024.046-.046.046C.055.156.025.147.025.108.025.041.079 0 .164 0c.129 0 .251.136.251.351M.323.443C.323.36.289.263.201.263c-.016 0-.062 0-.093.063C.09.363.09.413.09.462.09.516.09.563.111.6c.027.05.065.063.1.063C.257.663.29.629.307.584A.497.497 0 0 0 .323.443z"/></symbol><symbol id="av"><path d="M.697.11c0 .006 0 .017-.013.017C.673.127.673.118.672.111.666.04.631.022.606.022.557.022.549.073.535.166l-.013.08C.504.31.455.343.4.362c.097.024.175.085.175.163 0 .096-.114.18-.261.18H0V.674h.024C.101.674.103.663.103.627V.1C.103.064.101.053.024.053H0V.022c.036.003.107.003.146.003.039 0 .11 0 .146-.003v.031H.268C.191.053.189.064.189.1v.253h.115c.016 0 .058 0 .093-.034C.435.283.435.252.435.185c0-.065 0-.105.041-.143A.195.195 0 0 1 .602 0C.68 0 .697.082.697.11M.472.525C.472.456.448.375.3.375H.189v.259c0 .023 0 .035.022.038A.49.49 0 0 0 .27.674C.36.674.472.67.472.525z"/></symbol><use xlink:href="#an" transform="matrix(11.12728 0 0 -10.9091 11.647 206.399)"/><use xlink:href="#w" transform="matrix(11.12728 0 0 -10.9091 17.522 206.279)"/><use xlink:href="#ao" transform="matrix(11.12728 0 0 -10.9091 22.54 208.275)"/><use xlink:href="#Q" transform="matrix(11.12728 0 0 -10.9091 28.394 206.279)"/><use xlink:href="#w" transform="matrix(11.12728 0 0 -10.9091 34.536 206.279)"/><use xlink:href="#L" transform="matrix(11.12728 0 0 -10.9091 39.532 206.159)"/><use xlink:href="#U" transform="matrix(11.12728 0 0 -10.9091 45.741 206.279)"/><use xlink:href="#w" transform="matrix(11.12728 0 0 -10.9091 50.626 206.279)"/><use xlink:href="#V" transform="matrix(11.12728 0 0 -10.9091 55.388 204.119)"/><use xlink:href="#R" transform="matrix(11.12728 0 0 -10.9091 59.283 206.279)"/><use xlink:href="#y" transform="matrix(11.12728 0 0 -10.9091 65.514 206.279)"/><use xlink:href="#C" transform="matrix(11.12728 0 0 -10.9091 71.09 206.279)"/><use xlink:href="#w" transform="matrix(11.12728 0 0 -10.9091 75.418 206.279)"/><use xlink:href="#T" transform="matrix(11.12728 0 0 -10.9091 80.436 206.279)"/><use xlink:href="#y" transform="matrix(11.12728 0 0 -10.9091 90.862 206.279)"/><use xlink:href="#O" transform="matrix(11.12728 0 0 -10.9091 96.381 208.275)"/><use xlink:href="#O" transform="matrix(11.12728 0 0 -10.9091 102.568 208.275)"/><use xlink:href="#A" transform="matrix(11.12728 0 0 -10.9091 108.755 206.159)"/><use xlink:href="#u" transform="matrix(11.12728 0 0 -10.9091 113.117 206.279)"/><use xlink:href="#y" transform="matrix(11.12728 0 0 -10.9091 118.725 206.279)"/><use xlink:href="#U" transform="matrix(11.12728 0 0 -10.9091 124.31 206.279)"/><use xlink:href="#x" transform="matrix(11.12728 0 0 -10.9091 128.94 206.159)"/><use xlink:href="#w" transform="matrix(11.12728 0 0 -10.9091 135.082 206.279)"/><use xlink:href="#C" transform="matrix(11.12728 0 0 -10.9091 140.09 206.279)"/><use xlink:href="#X" transform="matrix(11.12728 0 0 -10.9091 148.735 206.159)"/><use xlink:href="#u" transform="matrix(11.12728 0 0 -10.9091 152.085 206.279)"/><use xlink:href="#A" transform="matrix(11.12728 0 0 -10.9091 157.648 206.159)"/><use xlink:href="#af" transform="matrix(11.12728 0 0 -10.9091 166.583 206.399)"/><use xlink:href="#ap" transform="matrix(11.12728 0 0 -10.9091 174.395 206.159)"/><use xlink:href="#aq" transform="matrix(11.12728 0 0 -10.9091 182.418 206.159)"/><use xlink:href="#ae" transform="matrix(11.12728 0 0 -10.9091 191.152 206.399)"/><use xlink:href="#C" transform="matrix(11.12728 0 0 -10.9091 199.631 206.279)"/><use xlink:href="#ag" transform="matrix(11.12728 0 0 -10.9091 209.223 208.886)"/><use xlink:href="#al" transform="matrix(11.12728 0 0 -10.9091 211.47 206.399)"/><use xlink:href="#ar" transform="matrix(11.12728 0 0 -10.9091 217.035 206.399)"/><use xlink:href="#W" transform="matrix(11.12728 0 0 -10.9091 223.088 208.264)"/><use xlink:href="#as" transform="matrix(11.12728 0 0 -10.9091 11.58 219.949)"/><use xlink:href="#at" transform="matrix(11.12728 0 0 -10.9091 17.055 219.949)"/><use xlink:href="#W" transform="matrix(11.12728 0 0 -10.9091 23.108 221.814)"/><use xlink:href="#as" transform="matrix(11.12728 0 0 -10.9091 30.163 219.949)"/><use xlink:href="#au" transform="matrix(11.12728 0 0 -10.9091 35.638 219.949)"/><use xlink:href="#W" transform="matrix(11.12728 0 0 -10.9091 41.69 221.814)"/><use xlink:href="#al" transform="matrix(11.12728 0 0 -10.9091 48.656 219.949)"/><use xlink:href="#at" transform="matrix(11.12728 0 0 -10.9091 54.22 219.949)"/><use xlink:href="#ai" transform="matrix(11.12728 0 0 -10.9091 59.561 222.436)"/><use xlink:href="#Q" transform="matrix(11.12728 0 0 -10.9091 66.983 219.829)"/><use xlink:href="#C" transform="matrix(11.12728 0 0 -10.9091 73.181 219.829)"/><use xlink:href="#w" transform="matrix(11.12728 0 0 -10.9091 77.51 219.829)"/><use xlink:href="#av" transform="matrix(11.12728 0 0 -10.9091 86.756 219.949)"/><use xlink:href="#t" transform="matrix(11.12728 0 0 -10.9091 94.924 219.709)"/><use xlink:href="#t" transform="matrix(11.12728 0 0 -10.9091 103.27 219.709)"/><use xlink:href="#C" transform="matrix(11.12728 0 0 -10.9091 111.615 219.829)"/><use xlink:href="#v" transform="matrix(11.12728 0 0 -10.9091 120.05 219.829)"/><use xlink:href="#u" transform="matrix(11.12728 0 0 -10.9091 124.478 219.829)"/><use xlink:href="#Q" transform="matrix(11.12728 0 0 -10.9091 134.303 219.829)"/><use xlink:href="#O" transform="matrix(11.12728 0 0 -10.9091 140.445 221.825)"/><use xlink:href="#T" transform="matrix(11.12728 0 0 -10.9091 147.01 219.829)"/><use xlink:href="#y" transform="matrix(11.12728 0 0 -10.9091 153.175 219.829)"/><use xlink:href="#v" transform="matrix(11.12728 0 0 -10.9091 158.594 219.829)"/><use xlink:href="#w" transform="matrix(11.12728 0 0 -10.9091 163.023 219.829)"/><use xlink:href="#A" transform="matrix(11.12728 0 0 -10.9091 172.18 219.709)"/><use xlink:href="#w" transform="matrix(11.12728 0 0 -10.9091 176.542 219.829)"/><use xlink:href="#O" transform="matrix(11.12728 0 0 -10.9091 181.494 221.825)"/><use xlink:href="#A" transform="matrix(11.12728 0 0 -10.9091 187.68 219.709)"/><use xlink:href="#w" transform="matrix(11.12728 0 0 -10.9091 192.043 219.829)"/><use xlink:href="#C" transform="matrix(11.12728 0 0 -10.9091 197.05 219.829)"/><use xlink:href="#w" transform="matrix(11.12728 0 0 -10.9091 201.378 219.829)"/><use xlink:href="#L" transform="matrix(11.12728 0 0 -10.9091 206.375 219.709)"/><use xlink:href="#v" transform="matrix(11.12728 0 0 -10.9091 212.116 219.829)"/><use xlink:href="#y" transform="matrix(11.12728 0 0 -10.9091 216.59 219.829)"/><use xlink:href="#V" transform="matrix(11.12728 0 0 -10.9091 221.92 217.669)"/><use xlink:href="#v" transform="matrix(10.70183 0 0 -10.9091 11.227 233.378)"/><use xlink:href="#B" transform="matrix(10.70183 0 0 -10.9091 15.54 233.258)"/><use xlink:href="#u" transform="matrix(10.70183 0 0 -10.9091 18.462 233.378)"/><use xlink:href="#L" transform="matrix(10.70183 0 0 -10.9091 23.855 233.258)"/><use xlink:href="#C" transform="matrix(10.70183 0 0 -10.9091 29.816 233.378)"/><use xlink:href="#u" transform="matrix(10.70183 0 0 -10.9091 37.607 233.378)"/><use xlink:href="#X" transform="matrix(10.70183 0 0 -10.9091 43.012 233.258)"/><use xlink:href="#v" transform="matrix(10.70183 0 0 -10.9091 49.765 233.378)"/><use xlink:href="#x" transform="matrix(10.70183 0 0 -10.9091 54.067 233.258)"/><use xlink:href="#w" transform="matrix(10.70183 0 0 -10.9091 59.974 233.378)"/><use xlink:href="#C" transform="matrix(10.70183 0 0 -10.9091 68.429 233.378)"/><use xlink:href="#u" transform="matrix(10.70183 0 0 -10.9091 72.592 233.378)"/><use xlink:href="#Q" transform="matrix(10.70183 0 0 -10.9091 77.985 233.378)"/><use xlink:href="#A" transform="matrix(10.70183 0 0 -10.9091 83.893 233.258)"/><use xlink:href="#U" transform="matrix(10.70183 0 0 -10.9091 88.152 233.378)"/><use xlink:href="#w" transform="matrix(10.70183 0 0 -10.9091 92.85 233.378)"/><use xlink:href="#y" transform="matrix(10.70183 0 0 -10.9091 101.283 233.378)"/><use xlink:href="#L" transform="matrix(10.70183 0 0 -10.9091 106.634 233.258)"/><use xlink:href="#T" transform="matrix(10.70183 0 0 -10.9091 112.606 233.378)"/><use xlink:href="#T" transform="matrix(10.70183 0 0 -10.9091 122.184 233.378)"/><use xlink:href="#w" transform="matrix(10.70183 0 0 -10.9091 128.07 233.378)"/><use xlink:href="#C" transform="matrix(10.70183 0 0 -10.9091 132.886 233.378)"/><use xlink:href="#v" transform="matrix(10.70183 0 0 -10.9091 136.952 233.378)"/><use xlink:href="#B" transform="matrix(10.70183 0 0 -10.9091 141.265 233.258)"/><use xlink:href="#L" transform="matrix(10.70183 0 0 -10.9091 144.23 233.258)"/><use xlink:href="#y" transform="matrix(10.70183 0 0 -10.9091 150.18 233.378)"/><use xlink:href="#v" transform="matrix(10.70183 0 0 -10.9091 155.392 233.378)"/><use xlink:href="#B" transform="matrix(10.70183 0 0 -10.9091 159.704 233.258)"/><use xlink:href="#u" transform="matrix(10.70183 0 0 -10.9091 162.626 233.378)"/><use xlink:href="#L" transform="matrix(10.70183 0 0 -10.9091 168.02 233.258)"/><use xlink:href="#L" transform="matrix(10.70183 0 0 -10.9091 177.598 233.258)"/><use xlink:href="#u" transform="matrix(10.70183 0 0 -10.9091 183.505 233.378)"/><use xlink:href="#T" transform="matrix(10.70183 0 0 -10.9091 189.22 233.378)"/><use xlink:href="#w" transform="matrix(10.70183 0 0 -10.9091 195.117 233.378)"/><use xlink:href="#w" transform="matrix(10.70183 0 0 -10.9091 203.507 233.378)"/><use xlink:href="#y" transform="matrix(10.70183 0 0 -10.9091 208.312 233.378)"/><use xlink:href="#U" transform="matrix(10.70183 0 0 -10.9091 213.685 233.378)"/><use xlink:href="#x" transform="matrix(10.70183 0 0 -10.9091 218.115 233.258)"/><use xlink:href="#v" transform="matrix(10.9091 0 0 -10.9091 11.231 246.927)"/><use xlink:href="#B" transform="matrix(10.9091 0 0 -10.9091 15.628 246.807)"/><use xlink:href="#P" transform="matrix(10.9091 0 0 -10.9091 18.65 246.807)"/><use xlink:href="#w" transform="matrix(10.9091 0 0 -10.9091 27.693 246.927)"/><use xlink:href="#y" transform="matrix(10.9091 0 0 -10.9091 36.224 246.927)"/><use xlink:href="#L" transform="matrix(10.9091 0 0 -10.9091 45.322 246.807)"/><use xlink:href="#w" transform="matrix(10.9091 0 0 -10.9091 51.344 246.927)"/><use xlink:href="#Y" transform="matrix(10.9091 0 0 -10.9091 56.09 246.927)"/><use xlink:href="#w" transform="matrix(10.9091 0 0 -10.9091 67.708 246.927)"/><use xlink:href="#T" transform="matrix(10.9091 0 0 -10.9091 72.628 246.927)"/><use xlink:href="#M" transform="matrix(10.9091 0 0 -10.9091 78.628 249.054)"/><use xlink:href="#w" transform="matrix(10.9091 0 0 -10.9091 84.082 246.927)"/><use xlink:href="#y" transform="matrix(10.9091 0 0 -10.9091 92.613 246.927)"/><use xlink:href="#O" transform="matrix(10.9091 0 0 -10.9091 98.024 248.923)"/><use xlink:href="#O" transform="matrix(10.9091 0 0 -10.9091 104.09 248.923)"/><use xlink:href="#w" transform="matrix(10.9091 0 0 -10.9091 110.46 246.927)"/><use xlink:href="#y" transform="matrix(10.9091 0 0 -10.9091 115.359 246.927)"/><use xlink:href="#A" transform="matrix(10.9091 0 0 -10.9091 120.77 246.807)"/><use xlink:href="#C" transform="matrix(10.9091 0 0 -10.9091 125.1 246.927)"/><use xlink:href="#E" transform="matrix(10.9091 0 0 -10.9091 129.977 246.807)"/><path stroke-width=".398" stroke-miterlimit="10" fill="none" stroke="#000" d="M229.8 250.872v-54.197"/><symbol id="aw"><path d="M.489.411v.031A.94.94 0 0 0 .414.439L.327.442V.411C.364.41.375.387.375.368.375.359.373.355.369.344L.267.089.155.368C.149.381.149.385.149.385c0 .026.039.026.057.026v.031L.097.439C.07.439.03.44 0 .442V.411C.063.411.067.405.08.374L.224.019C.23.005.232 0 .245 0c.013 0 .017.009.021.019l.131.325C.406.367.423.41.489.411z"/></symbol><use xlink:href="#O" transform="matrix(10.95274 0 0 -10.9091 236.283 208.275)"/><use xlink:href="#A" transform="matrix(10.95274 0 0 -10.9091 242.372 206.159)"/><use xlink:href="#u" transform="matrix(10.95274 0 0 -10.9091 246.666 206.279)"/><use xlink:href="#aw" transform="matrix(10.95274 0 0 -10.9091 251.737 206.279)"/><use xlink:href="#B" transform="matrix(10.95274 0 0 -10.9091 257.673 206.159)"/><use xlink:href="#T" transform="matrix(10.95274 0 0 -10.9091 260.73 206.279)"/><use xlink:href="#B" transform="matrix(10.95274 0 0 -10.9091 266.808 206.159)"/><use xlink:href="#L" transform="matrix(10.95274 0 0 -10.9091 269.842 206.159)"/><use xlink:href="#M" transform="matrix(10.95274 0 0 -10.9091 275.888 208.406)"/><use xlink:href="#U" transform="matrix(10.95274 0 0 -10.9091 285.088 206.279)"/><use xlink:href="#u" transform="matrix(10.95274 0 0 -10.9091 289.896 206.279)"/><use xlink:href="#L" transform="matrix(10.95274 0 0 -10.9091 295.417 206.159)"/><use xlink:href="#v" transform="matrix(10.95274 0 0 -10.9091 301.057 206.279)"/><use xlink:href="#w" transform="matrix(10.95274 0 0 -10.9091 305.416 206.279)"/><use xlink:href="#S" transform="matrix(10.95274 0 0 -10.9091 310.115 206.159)"/><use xlink:href="#v" transform="matrix(10.95274 0 0 -10.9091 315.975 206.279)"/><use xlink:href="#u" transform="matrix(10.95274 0 0 -10.9091 323.981 206.279)"/><use xlink:href="#L" transform="matrix(10.95274 0 0 -10.9091 329.502 206.159)"/><use xlink:href="#C" transform="matrix(11.12728 0 0 -10.9091 236.343 219.829)"/><use xlink:href="#w" transform="matrix(11.12728 0 0 -10.9091 240.672 219.829)"/><use xlink:href="#ao" transform="matrix(11.12728 0 0 -10.9091 245.69 221.825)"/><use xlink:href="#Q" transform="matrix(11.12728 0 0 -10.9091 251.543 219.829)"/><use xlink:href="#w" transform="matrix(11.12728 0 0 -10.9091 257.685 219.829)"/><use xlink:href="#L" transform="matrix(11.12728 0 0 -10.9091 262.682 219.709)"/><use xlink:href="#U" transform="matrix(11.12728 0 0 -10.9091 268.89 219.829)"/><use xlink:href="#w" transform="matrix(11.12728 0 0 -10.9091 273.775 219.829)"/><use xlink:href="#V" transform="matrix(11.12728 0 0 -10.9091 278.538 217.669)"/><use xlink:href="#R" transform="matrix(11.12728 0 0 -10.9091 282.432 219.829)"/><use xlink:href="#y" transform="matrix(11.12728 0 0 -10.9091 288.664 219.829)"/><use xlink:href="#C" transform="matrix(11.12728 0 0 -10.9091 294.238 219.829)"/><use xlink:href="#w" transform="matrix(11.12728 0 0 -10.9091 298.567 219.829)"/><use xlink:href="#T" transform="matrix(11.12728 0 0 -10.9091 303.585 219.829)"/><use xlink:href="#y" transform="matrix(11.12728 0 0 -10.9091 321.956 219.829)"/><use xlink:href="#O" transform="matrix(11.12728 0 0 -10.9091 327.476 221.825)"/><use xlink:href="#V" transform="matrix(11.12728 0 0 -10.9091 333.473 217.669)"/><use xlink:href="#O" transform="matrix(10.9091 0 0 -10.9091 236.281 235.374)"/><use xlink:href="#A" transform="matrix(10.9091 0 0 -10.9091 242.347 233.258)"/><use xlink:href="#u" transform="matrix(10.9091 0 0 -10.9091 246.623 233.378)"/><use xlink:href="#y" transform="matrix(10.9091 0 0 -10.9091 252.121 233.378)"/><use xlink:href="#U" transform="matrix(10.9091 0 0 -10.9091 257.598 233.378)"/><use xlink:href="#x" transform="matrix(10.9091 0 0 -10.9091 262.125 233.258)"/><use xlink:href="#w" transform="matrix(10.9091 0 0 -10.9091 268.147 233.378)"/><use xlink:href="#C" transform="matrix(10.9091 0 0 -10.9091 273.056 233.378)"/><use xlink:href="#X" transform="matrix(10.9091 0 0 -10.9091 280.998 233.258)"/><use xlink:href="#u" transform="matrix(10.9091 0 0 -10.9091 284.282 233.378)"/><use xlink:href="#A" transform="matrix(10.9091 0 0 -10.9091 289.736 233.258)"/><use xlink:href="#af" transform="matrix(10.9091 0 0 -10.9091 297.95 233.498)"/><use xlink:href="#ap" transform="matrix(10.9091 0 0 -10.9091 305.609 233.258)"/><use xlink:href="#aq" transform="matrix(10.9091 0 0 -10.9091 313.474 233.258)"/><use xlink:href="#ae" transform="matrix(10.9091 0 0 -10.9091 322.038 233.498)"/><use xlink:href="#C" transform="matrix(10.9091 0 0 -10.9091 330.35 233.378)"/><path stroke-width=".398" stroke-miterlimit="10" fill="none" stroke="#000" d="M341.366 250.872v-54.197"/><use xlink:href="#t" transform="matrix(10.9091 0 0 -10.9091 396.437 206.159)"/><use xlink:href="#u" transform="matrix(10.9091 0 0 -10.9091 404.564 206.279)"/><path stroke-width=".398" stroke-miterlimit="10" fill="none" stroke="#000" d="M464.424 250.872v-54.197M4.648 251.071h459.975"/><clipPath id="ax"><path transform="matrix(1 0 0 -1 -121.15 520.66)" d="M121.15 262.341h470.59v258.32H121.15z"/></clipPath><g clip-path="url(#ax)"><path d="M.5 257.819h469.59V.499H.5z" fill="#fff" fill-opacity=".1" fill-rule="evenodd"/><path stroke-miterlimit="10" fill="none" stroke="#00a5e4" stroke-opacity=".1" d="M.5 257.819h469.59V.499H.5z"/></g></svg>